<?xml version="1.0" standalone="no"?>
<!DOCTYPE svg PUBLIC "-//W3C//DTD SVG 1.1//EN" "http://www.w3.org/Graphics/SVG/1.1/DTD/svg11.dtd" >
<svg xmlns="http://www.w3.org/2000/svg">
<metadata>
This is a custom SVG webfont generated by Font Squirrel.
Copyright   : Copyright c 2007 by George Triantafyllakos All rights reserved
Designer    : George Triantafyllakos
Foundry     : George Triantafyllakos
Foundry URL : httpwwwbackpackergr
</metadata>
<defs>
<font id="webfontxR6oBxho" horiz-adv-x="1228" >
<font-face units-per-em="2048" ascent="1638" descent="-410" />
<missing-glyph horiz-adv-x="500" />
<glyph unicode=" " />
<glyph unicode="!" d="M465 53l51 58l55 -58l-55 -51zM465 262l51 57l55 -57l-55 -51zM465 678l51 55l55 -55l-55 -51zM465 887l51 53l55 -53l-55 -53zM465 1094l51 55l55 -55l-55 -52zM465 1303l51 53l55 -53l-55 -54z" />
<glyph unicode="&#x22;" d="M256 887l51 53l55 -53l-55 -53zM463 1094l53 55l53 -55l-53 -52zM463 1303l53 53l53 -53l-53 -54zM672 887l51 53l55 -53l-55 -53zM881 1094l53 55l53 -55l-53 -52zM881 1303l53 53l53 -53l-53 -54z" />
<glyph unicode="#" d="M49 471l51 53l54 -53l-54 -53zM49 887l51 53l54 -53l-54 -53zM256 53q8 8 53 58l53 -58l-53 -51zM256 262q8 8 53 57l53 -57l-53 -51zM256 471l53 53l53 -53l-53 -53zM256 678l53 55l53 -55l-53 -51zM256 887l53 53l53 -53l-53 -53zM256 1094l53 55l53 -55l-53 -52z M256 1303l53 53l53 -53l-53 -54zM465 471l51 53l55 -53l-55 -53zM465 887l51 53l55 -53l-55 -53zM672 53q8 8 53 58l53 -58l-53 -51zM672 262q8 8 53 57l53 -57l-53 -51zM672 471l53 53l53 -53l-53 -53zM672 678l53 55l53 -55l-53 -51zM672 887l53 53l53 -53l-53 -53z M672 1094l53 55l53 -55l-53 -52zM672 1303l53 53l53 -53l-53 -54zM881 471l51 53l55 -53l-55 -53zM881 887l51 53l55 -53l-55 -53z" />
<glyph unicode="$" d="M49 53l51 58l54 -58l-54 -51zM49 678l51 55l54 -55l-54 -51zM256 53q8 8 53 58l53 -58l-53 -51zM256 471l53 53l53 -53l-53 -53zM256 887l53 53l53 -53l-53 -53zM465 53l51 58l55 -58l-55 -51zM465 -154l51 56l55 -56l-55 -53zM465 262l51 57l55 -57l-55 -51zM465 471 l51 53l55 -53l-55 -53zM465 678l51 55l55 -55l-55 -51zM465 887l51 53l55 -53l-55 -53zM465 1094l51 55l55 -55l-55 -52zM672 53q8 8 53 58l53 -58l-53 -51zM672 471l53 53l53 -53l-53 -53zM672 887l53 53l53 -53l-53 -53zM881 262q20 20 51 57l55 -57l-55 -51zM881 887 l51 53l55 -53l-55 -53z" />
<glyph unicode="%" d="M49 53q20 20 51 58l56 -58l-56 -51zM49 262q20 20 51 57l56 -57l-56 -51zM49 1094l51 55l56 -55l-56 -52zM49 1303l51 53l56 -53l-56 -54zM258 471l51 53l53 -53l-53 -53zM258 678l51 55l53 -55l-53 -51zM258 1094l51 55l53 -55l-53 -52zM258 1303l51 53l53 -53l-53 -54z M465 53q20 20 51 58l55 -58l-55 -51zM465 262q20 20 51 57l55 -57l-55 -51zM465 887l51 53l55 -53l-55 -53zM674 53l51 58l53 -58l-53 -51zM674 262l51 57l53 -57l-53 -51zM674 1094l51 55l53 -55l-53 -52zM674 1303l51 53l53 -53l-53 -54z" />
<glyph unicode="&#x26;" d="M49 262l51 57l54 -57l-54 -51zM49 471l51 53l54 -53l-54 -53zM49 887l51 53l54 -53l-54 -53zM49 1094l51 55l54 -55l-54 -52zM256 53q8 8 53 58l53 -58l-53 -51zM256 678l53 55l53 -55l-53 -51zM256 1303l53 53l53 -53l-53 -54zM465 53l51 58l55 -58l-55 -51zM465 678 l51 55l55 -55l-55 -51zM465 1303l51 53l55 -53l-55 -54zM672 262q8 8 53 57l53 -57l-53 -51zM672 471l53 53l53 -53l-53 -53zM672 678l53 55l53 -55l-53 -51zM881 678l51 55l55 -55l-55 -51z" />
<glyph unicode="'" d="M463 889l53 53l53 -53l-53 -53zM672 1094l51 55l55 -55l-55 -52zM672 1305l51 53l55 -53l-55 -54z" />
<glyph unicode="(" d="M463 262q8 8 53 57l53 -57l-53 -51zM463 471l53 53l53 -53l-53 -53zM463 678l53 55l53 -55l-53 -51zM463 887l53 53l53 -53l-53 -53zM463 1094l53 55l53 -55l-53 -52zM672 53q20 20 51 58l55 -58l-55 -51zM672 1303l51 53l55 -53l-55 -54z" />
<glyph unicode=")" d="M463 53q8 8 53 58l53 -58l-53 -51zM463 1303l53 53l53 -53l-53 -54zM672 262q20 20 51 57l55 -57l-55 -51zM672 471l51 53l55 -53l-55 -53zM672 678l51 55l55 -55l-55 -51zM672 887l51 53l55 -53l-55 -53zM672 1094l51 55l55 -55l-55 -52z" />
<glyph unicode="*" d="M49 887l53 53l54 -53l-54 -53zM49 1303l53 53l54 -53l-54 -54zM258 1094l51 55l56 -55l-56 -52zM465 887l53 53l53 -53l-53 -53zM465 1303l53 53l53 -53l-53 -54z" />
<glyph unicode="+" d="M49 471l51 53l54 -53l-54 -53zM256 471l53 53l53 -53l-53 -53zM465 53l51 58l55 -58l-55 -51zM465 262l51 57l55 -57l-55 -51zM465 471l51 53l55 -53l-55 -53zM465 678l51 55l55 -55l-55 -51zM465 887l51 53l55 -53l-55 -53zM672 471l53 53l53 -53l-53 -53zM881 471 l51 53l55 -53l-55 -53z" />
<glyph unicode="," d="M258 -154q49 53 51 56l53 -56l-53 -53zM465 53q20 20 51 58l55 -58l-55 -51zM465 262q20 20 51 57l55 -57l-55 -51z" />
<glyph unicode="-" d="M256 471l53 53l53 -53l-53 -53zM465 471l51 53l55 -53l-55 -53zM672 471l53 53l53 -53l-53 -53z" />
<glyph unicode="." d="M465 53l51 58l55 -58l-55 -51zM465 262l51 57l55 -57l-55 -51z" />
<glyph unicode="/" d="M256 53l51 58l55 -58l-55 -51zM256 262l51 57l55 -57l-55 -51zM463 471l53 53l53 -53l-53 -53zM463 678l53 55l53 -55l-53 -51zM672 887l51 53l55 -53l-55 -53zM879 1094l53 55l53 -55l-53 -52zM879 1303l53 53l53 -53l-53 -54z" />
<glyph unicode="0" d="M49 262l51 57l54 -57l-54 -51zM49 471l51 53l54 -53l-54 -53zM49 678l51 55l54 -55l-54 -51zM256 53q8 8 53 58l53 -58l-53 -51zM256 262q8 8 53 57l53 -57l-53 -51zM256 887l53 53l53 -53l-53 -53zM465 53l51 58l55 -58l-55 -51zM465 471l51 53l55 -53l-55 -53zM465 887 l51 53l55 -53l-55 -53zM672 53q8 8 53 58l53 -58l-53 -51zM672 678l53 55l53 -55l-53 -51zM672 887l53 53l53 -53l-53 -53zM881 262q20 20 51 57l55 -57l-55 -51zM881 471l51 53l55 -53l-55 -53zM881 678l51 55l55 -55l-55 -51z" />
<glyph unicode="1" d="M49 53l51 58l54 -58l-54 -51zM49 887l51 53l54 -53l-54 -53zM256 53q8 8 53 58l53 -58l-53 -51zM256 887l53 53l53 -53l-53 -53zM465 53l51 58l55 -58l-55 -51zM465 262l51 57l55 -57l-55 -51zM465 471l51 53l55 -53l-55 -53zM465 678l51 55l55 -55l-55 -51zM465 887 l51 53l55 -53l-55 -53zM672 53q8 8 53 58l53 -58l-53 -51zM881 53q20 20 51 58l55 -58l-55 -51z" />
<glyph unicode="2" d="M49 53l51 58l54 -58l-54 -51zM49 678l51 55l54 -55l-54 -51zM256 53q8 8 53 58l53 -58l-53 -51zM256 262q8 8 53 57l53 -57l-53 -51zM256 887l53 53l53 -53l-53 -53zM465 53l51 58l55 -58l-55 -51zM465 471l51 53l55 -53l-55 -53zM465 887l51 53l55 -53l-55 -53zM672 53 q8 8 53 58l53 -58l-53 -51zM672 471l53 53l53 -53l-53 -53zM672 887l53 53l53 -53l-53 -53zM881 53q20 20 51 58l55 -58l-55 -51zM881 678l51 55l55 -55l-55 -51z" />
<glyph unicode="3" d="M49 -154q49 53 51 56l54 -56l-54 -53zM49 678l51 55l54 -55l-54 -51zM256 262q8 8 53 57l53 -57l-53 -51zM256 -362q8 8 53 57l53 -57l-53 -52zM256 887l53 53l53 -53l-53 -53zM465 262l51 57l55 -57l-55 -51zM465 -362l51 57l55 -57l-55 -52zM465 887l51 53l55 -53 l-55 -53zM672 262q8 8 53 57l53 -57l-53 -51zM672 -362q8 8 53 57l53 -57l-53 -52zM672 887l53 53l53 -53l-53 -53zM881 53q20 20 51 58l55 -58l-55 -51zM881 -154q10 10 51 56l55 -56l-55 -53zM881 471l51 53l55 -53l-55 -53zM881 678l51 55l55 -55l-55 -51z" />
<glyph unicode="4" d="M49 53l51 58l54 -58l-54 -51zM49 262l51 57l54 -57l-54 -51zM256 53q8 8 53 58l53 -58l-53 -51zM256 471l53 53l53 -53l-53 -53zM465 53l51 58l55 -58l-55 -51zM465 678l51 55l55 -55l-55 -51zM672 53q8 8 53 58l53 -58l-53 -51zM672 -154l53 56l53 -56l-53 -53zM672 262 q8 8 53 57l53 -57l-53 -51zM672 -362q8 8 53 57l53 -57l-53 -52zM672 471l53 53l53 -53l-53 -53zM672 678l53 55l53 -55l-53 -51zM672 887l53 53l53 -53l-53 -53zM881 53q20 20 51 58l55 -58l-55 -51z" />
<glyph unicode="5" d="M49 262l51 57l54 -57l-54 -51zM49 -362l51 57l54 -57l-54 -52zM49 471l51 53l54 -53l-54 -53zM49 678l51 55l54 -55l-54 -51zM49 887l51 53l54 -53l-54 -53zM256 262q8 8 53 57l53 -57l-53 -51zM256 -362q8 8 53 57l53 -57l-53 -52zM256 887l53 53l53 -53l-53 -53z M465 262l51 57l55 -57l-55 -51zM465 -362l51 57l55 -57l-55 -52zM465 887l51 53l55 -53l-55 -53zM672 262q8 8 53 57l53 -57l-53 -51zM672 -362q8 8 53 57l53 -57l-53 -52zM672 887l53 53l53 -53l-53 -53zM881 53q20 20 51 58l55 -58l-55 -51zM881 -154q10 10 51 56l55 -56 l-55 -53zM881 887l51 53l55 -53l-55 -53z" />
<glyph unicode="6" d="M49 262l51 57l54 -57l-54 -51zM49 471l51 53l54 -53l-54 -53zM49 678l51 55l54 -55l-54 -51zM49 887l51 53l54 -53l-54 -53zM256 53q8 8 53 58l53 -58l-53 -51zM256 678l53 55l53 -55l-53 -51zM256 1094l53 55l53 -55l-53 -52zM465 53l51 58l55 -58l-55 -51zM465 678 l51 55l55 -55l-55 -51zM465 1303l51 53l55 -53l-55 -54zM672 53q8 8 53 58l53 -58l-53 -51zM672 678l53 55l53 -55l-53 -51zM672 1303l53 53l53 -53l-53 -54zM881 262q20 20 51 57l55 -57l-55 -51zM881 471l51 53l55 -53l-55 -53z" />
<glyph unicode="7" d="M49 887l51 53l54 -53l-54 -53zM256 53q8 8 53 58l53 -58l-53 -51zM256 -154l53 56l53 -56l-53 -53zM256 -362q8 8 53 57l53 -57l-53 -52zM256 887l53 53l53 -53l-53 -53zM465 262l51 57l55 -57l-55 -51zM465 887l51 53l55 -53l-55 -53zM672 471l53 53l53 -53l-53 -53z M672 887l53 53l53 -53l-53 -53zM881 678l51 55l55 -55l-55 -51zM881 887l51 53l55 -53l-55 -53z" />
<glyph unicode="8" d="M49 262l51 57l54 -57l-54 -51zM49 471l51 53l54 -53l-54 -53zM49 887l51 53l54 -53l-54 -53zM49 1094l51 55l54 -55l-54 -52zM256 53q8 8 53 58l53 -58l-53 -51zM256 678l53 55l53 -55l-53 -51zM256 1303l53 53l53 -53l-53 -54zM465 53l51 58l55 -58l-55 -51zM465 678 l51 55l55 -55l-55 -51zM465 1303l51 53l55 -53l-55 -54zM672 53q8 8 53 58l53 -58l-53 -51zM672 678l53 55l53 -55l-53 -51zM672 1303l53 53l53 -53l-53 -54zM881 262q20 20 51 57l55 -57l-55 -51zM881 471l51 53l55 -53l-55 -53zM881 887l51 53l55 -53l-55 -53zM881 1094 l51 55l55 -55l-55 -52z" />
<glyph unicode="9" d="M49 471l51 53l54 -53l-54 -53zM49 678l51 55l54 -55l-54 -51zM256 262q8 8 53 57l53 -57l-53 -51zM256 -362q8 8 53 57l53 -57l-53 -52zM256 887l53 53l53 -53l-53 -53zM465 262l51 57l55 -57l-55 -51zM465 -362l51 57l55 -57l-55 -52zM465 887l51 53l55 -53l-55 -53z M672 -154l53 56l53 -56l-53 -53zM672 262q8 8 53 57l53 -57l-53 -51zM672 887l53 53l53 -53l-53 -53zM881 53q20 20 51 58l55 -58l-55 -51zM881 262q20 20 51 57l55 -57l-55 -51zM881 471l51 53l55 -53l-55 -53zM881 678l51 55l55 -55l-55 -51z" />
<glyph unicode=":" d="M465 53l51 58l55 -58l-55 -51zM465 262l51 57l55 -57l-55 -51zM465 678l51 55l55 -55l-55 -51zM465 887l51 53l55 -53l-55 -53z" />
<glyph unicode=";" d="M258 -154q49 53 51 56l53 -56l-53 -53zM465 53q20 20 51 58l55 -58l-55 -51zM465 262q20 20 51 57l55 -57l-55 -51zM465 678l51 55l55 -55l-55 -51zM465 887l51 53l55 -53l-55 -53z" />
<glyph unicode="&#x3c;" d="M256 471l53 53l53 -53l-53 -53zM465 262l51 57l55 -57l-55 -51zM465 678l51 55l55 -55l-55 -51zM672 53q8 8 53 58l53 -58l-53 -51zM672 887l53 53l53 -53l-53 -53z" />
<glyph unicode="=" d="M49 262l51 57l54 -57l-54 -51zM49 678l51 55l54 -55l-54 -51zM256 262q8 8 53 57l53 -57l-53 -51zM256 678l53 55l53 -55l-53 -51zM465 262l51 57l55 -57l-55 -51zM465 678l51 55l55 -55l-55 -51zM672 262q8 8 53 57l53 -57l-53 -51zM672 678l53 55l53 -55l-53 -51z M881 262q20 20 51 57l55 -57l-55 -51zM881 678l51 55l55 -55l-55 -51z" />
<glyph unicode="&#x3e;" d="M463 53q20 20 51 58l55 -58l-55 -51zM463 887l51 53l55 -53l-55 -53zM672 262l51 57l53 -57l-53 -51zM672 678l51 55l53 -55l-53 -51zM879 471l51 53l55 -53l-55 -53z" />
<glyph unicode="?" d="M49 1094l51 55l54 -55l-54 -52zM256 1303l53 53l53 -53l-53 -54zM465 53l51 58l55 -58l-55 -51zM465 262l51 57l55 -57l-55 -51zM465 678l51 55l55 -55l-55 -51zM465 1303l51 53l55 -53l-55 -54zM672 678l53 55l53 -55l-53 -51zM672 1303l53 53l53 -53l-53 -54zM881 887 l51 53l55 -53l-55 -53zM881 1094l51 55l55 -55l-55 -52z" />
<glyph unicode="@" d="M49 262l51 57l54 -57l-54 -51zM49 471l51 53l54 -53l-54 -53zM49 678l51 55l54 -55l-54 -51zM49 887l51 53l54 -53l-54 -53zM49 1094l51 55l54 -55l-54 -52zM256 53q8 8 53 58l53 -58l-53 -51zM256 471l53 53l53 -53l-53 -53zM256 678l53 55l53 -55l-53 -51zM256 1303 l53 53l53 -53l-53 -54zM465 53l51 58l55 -58l-55 -51zM465 471l51 53l55 -53l-55 -53zM465 887l51 53l55 -53l-55 -53zM465 1303l51 53l55 -53l-55 -54zM672 53q8 8 53 58l53 -58l-53 -51zM672 471l53 53l53 -53l-53 -53zM672 678l53 55l53 -55l-53 -51zM672 887l53 53 l53 -53l-53 -53zM672 1303l53 53l53 -53l-53 -54zM881 53q20 20 51 58l55 -58l-55 -51zM881 471l51 53l55 -53l-55 -53zM881 678l51 55l55 -55l-55 -51zM881 887l51 53l55 -53l-55 -53zM881 1094l51 55l55 -55l-55 -52z" />
<glyph unicode="A" d="M47 55l53 56l56 -56l-56 -53zM47 262l53 55l56 -55l-56 -53zM47 469l53 55l56 -55l-56 -53zM47 676l53 55l56 -55l-56 -53zM47 883l53 55l56 -55q-20 -23 -56 -52zM47 1087l53 58l56 -58q-18 -18 -56 -49zM256 469q23 20 51 55l55 -55l-55 -53zM256 1296l51 54l55 -54 l-55 -53zM463 469q31 31 51 55l55 -55l-55 -53zM463 1296l51 54l55 -54l-55 -53zM670 469l53 55l53 -55l-53 -53zM670 1296l53 54l53 -54l-53 -53zM877 55l53 56l53 -56l-53 -53zM877 262l53 55l53 -55l-53 -53zM877 469l53 55l53 -55l-53 -53zM877 676l53 55l53 -55 l-53 -53zM877 883l53 55l53 -55l-53 -52zM877 1087l53 58l53 -58l-53 -49z" />
<glyph unicode="B" d="M47 55l53 56l56 -56l-56 -53zM47 262l53 55l56 -55l-56 -53zM47 469l53 55l56 -55l-56 -53zM47 676l53 55l56 -55l-56 -53zM47 883l53 55l56 -55q-20 -23 -56 -52zM47 1087l53 58l56 -58q-18 -18 -56 -49zM47 1296l53 54l56 -54l-56 -53zM256 55q10 10 51 56l55 -56 l-55 -53zM256 676q23 20 51 55l55 -55l-55 -53zM256 1296l51 54l55 -54l-55 -53zM463 55l51 56l55 -56l-55 -53zM463 676q31 31 51 55l55 -55l-55 -53zM463 1296l51 54l55 -54l-55 -53zM670 55l53 56l53 -56l-53 -53zM670 676l53 55l53 -55l-53 -53zM670 1296l53 54l53 -54 l-53 -53zM877 262l53 55l53 -55l-53 -53zM877 469l53 55l53 -55l-53 -53zM877 883l53 55l53 -55l-53 -52zM877 1087l53 58l53 -58l-53 -49z" />
<glyph unicode="C" d="M47 262l53 55l56 -55l-56 -53zM47 469l53 55l56 -55l-56 -53zM47 676l53 55l56 -55l-56 -53zM47 883l53 55l56 -55q-20 -23 -56 -52zM47 1087l53 58l56 -58q-18 -18 -56 -49zM256 55q10 10 51 56l55 -56l-55 -53zM256 1296l51 54l55 -54l-55 -53zM463 55l51 56l55 -56 l-55 -53zM463 1296l51 54l55 -54l-55 -53zM670 55l53 56l53 -56l-53 -53zM670 1296l53 54l53 -54l-53 -53zM877 262l53 55l53 -55l-53 -53zM877 1087l53 58l53 -58l-53 -49z" />
<glyph unicode="D" d="M47 55l53 56l56 -56l-56 -53zM47 262l53 55l56 -55l-56 -53zM47 469l53 55l56 -55l-56 -53zM47 676l53 55l56 -55l-56 -53zM47 883l53 55l56 -55q-20 -23 -56 -52zM47 1087l53 58l56 -58q-18 -18 -56 -49zM47 1296l53 54l56 -54l-56 -53zM256 55q10 10 51 56l55 -56 l-55 -53zM256 1296l51 54l55 -54l-55 -53zM463 55l51 56l55 -56l-55 -53zM463 1296l51 54l55 -54l-55 -53zM670 55l53 56l53 -56l-53 -53zM670 1296l53 54l53 -54l-53 -53zM877 262l53 55l53 -55l-53 -53zM877 469l53 55l53 -55l-53 -53zM877 676l53 55l53 -55l-53 -53z M877 883l53 55l53 -55l-53 -52zM877 1087l53 58l53 -58l-53 -49z" />
<glyph unicode="E" d="M47 55l53 56l56 -56l-56 -53zM47 262l53 55l56 -55l-56 -53zM47 469l53 55l56 -55l-56 -53zM47 676l53 55l56 -55l-56 -53zM47 883l53 55l56 -55q-20 -23 -56 -52zM47 1087l53 58l56 -58q-18 -18 -56 -49zM47 1296l53 54l56 -54l-56 -53zM256 55q10 10 51 56l55 -56 l-55 -53zM256 676q23 20 51 55l55 -55l-55 -53zM256 1296l51 54l55 -54l-55 -53zM463 55l51 56l55 -56l-55 -53zM463 676q31 31 51 55l55 -55l-55 -53zM463 1296l51 54l55 -54l-55 -53zM670 55l53 56l53 -56l-53 -53zM670 676l53 55l53 -55l-53 -53zM670 1296l53 54l53 -54 l-53 -53zM877 55l53 56l53 -56l-53 -53zM877 1296l53 54l53 -54l-53 -53z" />
<glyph unicode="F" d="M47 55l53 56l56 -56l-56 -53zM47 262l53 55l56 -55l-56 -53zM47 469l53 55l56 -55l-56 -53zM47 676l53 55l56 -55l-56 -53zM47 883l53 55l56 -55q-20 -23 -56 -52zM47 1087l53 58l56 -58q-18 -18 -56 -49zM47 1296l53 54l56 -54l-56 -53zM256 676q23 20 51 55l55 -55 l-55 -53zM256 1296l51 54l55 -54l-55 -53zM463 676q31 31 51 55l55 -55l-55 -53zM463 1296l51 54l55 -54l-55 -53zM670 676l53 55l53 -55l-53 -53zM670 1296l53 54l53 -54l-53 -53zM877 1296l53 54l53 -54l-53 -53z" />
<glyph unicode="G" d="M47 262l53 55l56 -55l-56 -53zM47 469l53 55l56 -55l-56 -53zM47 676l53 55l56 -55l-56 -53zM47 883l53 55l56 -55q-20 -23 -56 -52zM47 1087l53 58l56 -58q-18 -18 -56 -49zM256 55q10 10 51 56l55 -56l-55 -53zM256 1296l51 54l55 -54l-55 -53zM463 55l51 56l55 -56 l-55 -53zM463 1296l51 54l55 -54l-55 -53zM670 55l53 56l53 -56l-53 -53zM670 469l53 55l53 -55l-53 -53zM670 1296l53 54l53 -54l-53 -53zM877 55l53 56l53 -56l-53 -53zM877 262l53 55l53 -55l-53 -53zM877 469l53 55l53 -55l-53 -53zM877 1087l53 58l53 -58l-53 -49z" />
<glyph unicode="H" d="M47 55l53 56l56 -56l-56 -53zM47 262l53 55l56 -55l-56 -53zM47 469l53 55l56 -55l-56 -53zM47 676l53 55l56 -55l-56 -53zM47 883l53 55l56 -55q-20 -23 -56 -52zM47 1087l53 58l56 -58q-18 -18 -56 -49zM47 1296l53 54l56 -54l-56 -53zM256 676q23 20 51 55l55 -55 l-55 -53zM463 676q31 31 51 55l55 -55l-55 -53zM670 676l53 55l53 -55l-53 -53zM877 55l53 56l53 -56l-53 -53zM877 262l53 55l53 -55l-53 -53zM877 469l53 55l53 -55l-53 -53zM877 676l53 55l53 -55l-53 -53zM877 883l53 55l53 -55l-53 -52zM877 1087l53 58l53 -58l-53 -49 zM877 1296l53 54l53 -54l-53 -53z" />
<glyph unicode="I" d="M47 55l53 56l56 -56l-56 -53zM47 1296l53 54l56 -54l-56 -53zM256 55q10 10 51 56l55 -56l-55 -53zM256 1296l51 54l55 -54l-55 -53zM463 55l51 56l55 -56l-55 -53zM463 262q10 10 51 55l55 -55l-55 -53zM463 469q31 31 51 55l55 -55l-55 -53zM463 676q31 31 51 55 l55 -55l-55 -53zM463 883q31 31 51 55l55 -55q-10 -10 -55 -52zM463 1087l51 58l55 -58l-55 -49zM463 1296l51 54l55 -54l-55 -53zM670 55l53 56l53 -56l-53 -53zM670 1296l53 54l53 -54l-53 -53zM877 55l53 56l53 -56l-53 -53zM877 1296l53 54l53 -54l-53 -53z" />
<glyph unicode="J" d="M49 262q6 6 51 55l56 -55l-56 -53zM49 1296l51 54l56 -54l-56 -53zM256 55l53 56l53 -56l-53 -53zM256 1296l53 54l53 -54l-53 -53zM463 55l53 56l53 -56l-53 -53zM463 1296l53 54l53 -54l-53 -53zM670 262l53 55l55 -55l-55 -53zM670 469l53 55l55 -55l-55 -53zM670 676 l53 55l55 -55l-55 -53zM670 883l53 55l55 -55q-10 -10 -55 -52zM670 1087l53 58l55 -58l-55 -49zM670 1296l53 54l55 -54l-55 -53z" />
<glyph unicode="K" d="M47 55l53 56l56 -56l-56 -53zM47 262l53 55l56 -55l-56 -53zM47 469l53 55l56 -55l-56 -53zM47 676l53 55l56 -55l-56 -53zM47 883l53 55l56 -55q-20 -23 -56 -52zM47 1087l53 58l56 -58q-18 -18 -56 -49zM47 1296l53 54l56 -54l-56 -53zM256 676q23 20 51 55l55 -55 l-55 -53zM463 676q31 31 51 55l55 -55l-55 -53zM670 469l53 55l53 -55l-53 -53zM670 883l53 55l53 -55l-53 -52zM877 55l53 56l53 -56l-53 -53zM877 262l53 55l53 -55l-53 -53zM877 1087l53 58l53 -58l-53 -49zM877 1296l53 54l53 -54l-53 -53z" />
<glyph unicode="L" d="M47 55l53 56l56 -56l-56 -53zM47 262l53 55l56 -55l-56 -53zM47 469l53 55l56 -55l-56 -53zM47 676l53 55l56 -55l-56 -53zM47 883l53 55l56 -55q-20 -23 -56 -52zM47 1087l53 58l56 -58q-18 -18 -56 -49zM47 1296l53 54l56 -54l-56 -53zM256 55q10 10 51 56l55 -56 l-55 -53zM463 55l51 56l55 -56l-55 -53zM670 55l53 56l53 -56l-53 -53zM877 55l53 56l53 -56l-53 -53z" />
<glyph unicode="M" d="M47 55l53 56l56 -56l-56 -53zM47 262l53 55l56 -55l-56 -53zM47 469l53 55l56 -55l-56 -53zM47 676l53 55l56 -55l-56 -53zM47 883l53 55l56 -55q-20 -23 -56 -52zM47 1087l53 58l56 -58q-18 -18 -56 -49zM47 1296l53 54l56 -54l-56 -53zM256 883q23 20 51 55l55 -55 q-6 -6 -55 -52zM256 1087q20 20 51 58l55 -58q-14 -14 -31.5 -28.5t-23.5 -20.5zM463 469q31 31 51 55l55 -55l-55 -53zM463 676q31 31 51 55l55 -55l-55 -53zM670 883l53 55l53 -55l-53 -52zM670 1087l53 58l53 -58l-53 -49zM877 55l53 56l53 -56l-53 -53zM877 262l53 55 l53 -55l-53 -53zM877 469l53 55l53 -55l-53 -53zM877 676l53 55l53 -55l-53 -53zM877 883l53 55l53 -55l-53 -52zM877 1087l53 58l53 -58l-53 -49zM877 1296l53 54l53 -54l-53 -53z" />
<glyph unicode="N" d="M47 55l53 56l56 -56l-56 -53zM47 262l53 55l56 -55l-56 -53zM47 469l53 55l56 -55l-56 -53zM47 676l53 55l56 -55l-56 -53zM47 883l53 55l56 -55q-20 -23 -56 -52zM47 1087l53 58l56 -58q-18 -18 -56 -49zM47 1296l53 54l56 -54l-56 -53zM256 1087q20 20 51 58l55 -58 q-14 -14 -31.5 -28.5t-23.5 -20.5zM463 676q31 31 51 55l55 -55l-55 -53zM463 883q31 31 51 55l55 -55q-10 -10 -55 -52zM670 469l53 55l53 -55l-53 -53zM877 55l53 56l53 -56l-53 -53zM877 262l53 55l53 -55l-53 -53zM877 469l53 55l53 -55l-53 -53zM877 676l53 55l53 -55 l-53 -53zM877 883l53 55l53 -55l-53 -52zM877 1087l53 58l53 -58l-53 -49zM877 1296l53 54l53 -54l-53 -53z" />
<glyph unicode="O" d="M47 262l53 55l56 -55l-56 -53zM47 469l53 55l56 -55l-56 -53zM47 676l53 55l56 -55l-56 -53zM47 883l53 55l56 -55q-20 -23 -56 -52zM47 1087l53 58l56 -58q-18 -18 -56 -49zM256 55q10 10 51 56l55 -56l-55 -53zM256 1296l51 54l55 -54l-55 -53zM463 55l51 56l55 -56 l-55 -53zM463 1296l51 54l55 -54l-55 -53zM670 55l53 56l53 -56l-53 -53zM670 1296l53 54l53 -54l-53 -53zM877 262l53 55l53 -55l-53 -53zM877 469l53 55l53 -55l-53 -53zM877 676l53 55l53 -55l-53 -53zM877 883l53 55l53 -55l-53 -52zM877 1087l53 58l53 -58l-53 -49z " />
<glyph unicode="P" d="M47 55l53 56l56 -56l-56 -53zM47 262l53 55l56 -55l-56 -53zM47 469l53 55l56 -55l-56 -53zM47 676l53 55l56 -55l-56 -53zM47 883l53 55l56 -55q-20 -23 -56 -52zM47 1087l53 58l56 -58q-18 -18 -56 -49zM47 1296l53 54l56 -54l-56 -53zM256 469q23 20 51 55l55 -55 l-55 -53zM256 1296l51 54l55 -54l-55 -53zM463 469q31 31 51 55l55 -55l-55 -53zM463 1296l51 54l55 -54l-55 -53zM670 469l53 55l53 -55l-53 -53zM670 1296l53 54l53 -54l-53 -53zM877 676l53 55l53 -55l-53 -53zM877 883l53 55l53 -55l-53 -52zM877 1087l53 58l53 -58 l-53 -49z" />
<glyph unicode="Q" d="M47 262l53 55l56 -55l-56 -53zM47 469l53 55l56 -55l-56 -53zM47 676l53 55l56 -55l-56 -53zM47 883l53 55l56 -55q-20 -23 -56 -52zM47 1087l53 58l56 -58q-18 -18 -56 -49zM256 55q10 10 51 56l55 -56l-55 -53zM256 1296l51 54l55 -54l-55 -53zM463 55l51 56l55 -56 l-55 -53zM463 -152l51 54l55 -54l-55 -53zM463 262q10 10 51 55l55 -55l-55 -53zM463 1296l51 54l55 -54l-55 -53zM670 55l53 56l53 -56l-53 -53zM670 -358l53 53l53 -53l-53 -54zM670 1296l53 54l53 -54l-53 -53zM877 262l53 55l53 -55l-53 -53zM877 469l53 55l53 -55 l-53 -53zM877 676l53 55l53 -55l-53 -53zM877 883l53 55l53 -55l-53 -52zM877 1087l53 58l53 -58l-53 -49z" />
<glyph unicode="R" d="M47 55l53 56l56 -56l-56 -53zM47 262l53 55l56 -55l-56 -53zM47 469l53 55l56 -55l-56 -53zM47 676l53 55l56 -55l-56 -53zM47 883l53 55l56 -55q-20 -23 -56 -52zM47 1087l53 58l56 -58q-18 -18 -56 -49zM47 1296l53 54l56 -54l-56 -53zM256 676q23 20 51 55l55 -55 l-55 -53zM256 1296l51 54l55 -54l-55 -53zM463 676q31 31 51 55l55 -55l-55 -53zM463 1296l51 54l55 -54l-55 -53zM670 469l53 55l53 -55l-53 -53zM670 676l53 55l53 -55l-53 -53zM670 1296l53 54l53 -54l-53 -53zM877 55l53 56l53 -56l-53 -53zM877 262l53 55l53 -55 l-53 -53zM877 883l53 55l53 -55l-53 -52zM877 1087l53 58l53 -58l-53 -49z" />
<glyph unicode="S" d="M47 55l53 56l56 -56l-56 -53zM47 883l53 55l56 -55q-20 -23 -56 -52zM47 1087l53 58l56 -58q-18 -18 -56 -49zM256 55q10 10 51 56l55 -56l-55 -53zM256 676q23 20 51 55l55 -55l-55 -53zM256 1296l51 54l55 -54l-55 -53zM463 55l51 56l55 -56l-55 -53zM463 676 q31 31 51 55l55 -55l-55 -53zM463 1296l51 54l55 -54l-55 -53zM670 55l53 56l53 -56l-53 -53zM670 676l53 55l53 -55l-53 -53zM670 1296l53 54l53 -54l-53 -53zM877 262l53 55l53 -55l-53 -53zM877 469l53 55l53 -55l-53 -53zM877 1296l53 54l53 -54l-53 -53z" />
<glyph unicode="T" d="M47 1296l53 54l56 -54l-56 -53zM256 1296l51 54l55 -54l-55 -53zM463 55l51 56l55 -56l-55 -53zM463 262q10 10 51 55l55 -55l-55 -53zM463 469q31 31 51 55l55 -55l-55 -53zM463 676q31 31 51 55l55 -55l-55 -53zM463 883q31 31 51 55l55 -55q-10 -10 -55 -52zM463 1087 l51 58l55 -58l-55 -49zM463 1296l51 54l55 -54l-55 -53zM670 1296l53 54l53 -54l-53 -53zM877 1296l53 54l53 -54l-53 -53z" />
<glyph unicode="U" d="M47 262l53 55l56 -55l-56 -53zM47 469l53 55l56 -55l-56 -53zM47 676l53 55l56 -55l-56 -53zM47 883l53 55l56 -55q-20 -23 -56 -52zM47 1087l53 58l56 -58q-18 -18 -56 -49zM47 1296l53 54l56 -54l-56 -53zM256 55q10 10 51 56l55 -56l-55 -53zM463 55l51 56l55 -56 l-55 -53zM670 55l53 56l53 -56l-53 -53zM877 262l53 55l53 -55l-53 -53zM877 469l53 55l53 -55l-53 -53zM877 676l53 55l53 -55l-53 -53zM877 883l53 55l53 -55l-53 -52zM877 1087l53 58l53 -58l-53 -49zM877 1296l53 54l53 -54l-53 -53z" />
<glyph unicode="V" d="M47 676l53 55l56 -55l-56 -53zM47 883l53 55l56 -55q-20 -23 -56 -52zM47 1087l53 58l56 -58q-18 -18 -56 -49zM47 1296l53 54l56 -54l-56 -53zM256 262q6 6 51 55l55 -55l-55 -53zM256 469q23 20 51 55l55 -55l-55 -53zM463 55l51 56l55 -56l-55 -53zM670 262l53 55 l53 -55l-53 -53zM670 469l53 55l53 -55l-53 -53zM877 676l53 55l53 -55l-53 -53zM877 883l53 55l53 -55l-53 -52zM877 1087l53 58l53 -58l-53 -49zM877 1296l53 54l53 -54l-53 -53z" />
<glyph unicode="W" d="M47 469l53 55l56 -55l-56 -53zM47 676l53 55l56 -55l-56 -53zM47 883l53 55l56 -55q-20 -23 -56 -52zM47 1087l53 58l56 -58q-18 -18 -56 -49zM47 1296l53 54l56 -54l-56 -53zM256 55q10 10 51 56l55 -56l-55 -53zM256 262q6 6 51 55l55 -55l-55 -53zM463 469 q31 31 51 55l55 -55l-55 -53zM463 676q31 31 51 55l55 -55l-55 -53zM463 883q31 31 51 55l55 -55q-10 -10 -55 -52zM463 1087l51 58l55 -58l-55 -49zM670 55l53 56l53 -56l-53 -53zM670 262l53 55l53 -55l-53 -53zM877 469l53 55l53 -55l-53 -53zM877 676l53 55l53 -55 l-53 -53zM877 883l53 55l53 -55l-53 -52zM877 1087l53 58l53 -58l-53 -49zM877 1296l53 54l53 -54l-53 -53z" />
<glyph unicode="X" d="M47 55l53 56l56 -56l-56 -53zM47 262l53 55l56 -55l-56 -53zM47 1087l53 58l56 -58q-18 -18 -56 -49zM47 1296l53 54l56 -54l-56 -53zM256 469q23 20 51 55l55 -55l-55 -53zM256 883q23 20 51 55l55 -55q-6 -6 -55 -52zM463 676q31 31 51 55l55 -55l-55 -53zM670 469 l53 55l53 -55l-53 -53zM670 883l53 55l53 -55l-53 -52zM877 55l53 56l53 -56l-53 -53zM877 262l53 55l53 -55l-53 -53zM877 1087l53 58l53 -58l-53 -49zM877 1296l53 54l53 -54l-53 -53z" />
<glyph unicode="Y" d="M47 883l53 55l56 -55q-20 -23 -56 -52zM47 1087l53 58l56 -58q-18 -18 -56 -49zM47 1296l53 54l56 -54l-56 -53zM256 676q23 20 51 55l55 -55l-55 -53zM463 55l51 56l55 -56l-55 -53zM463 262q10 10 51 55l55 -55l-55 -53zM463 469q31 31 51 55l55 -55l-55 -53zM670 676 l53 55l53 -55l-53 -53zM877 883l53 55l53 -55l-53 -52zM877 1087l53 58l53 -58l-53 -49zM877 1296l53 54l53 -54l-53 -53z" />
<glyph unicode="Z" d="M47 55l53 56l56 -56l-56 -53zM47 262l53 55l56 -55l-56 -53zM47 1296l53 54l56 -54l-56 -53zM256 55q10 10 51 56l55 -56l-55 -53zM256 469q23 20 51 55l55 -55l-55 -53zM256 1296l51 54l55 -54l-55 -53zM463 55l51 56l55 -56l-55 -53zM463 676q31 31 51 55l55 -55 l-55 -53zM463 1296l51 54l55 -54l-55 -53zM670 55l53 56l53 -56l-53 -53zM670 883l53 55l53 -55l-53 -52zM670 1296l53 54l53 -54l-53 -53zM877 55l53 56l53 -56l-53 -53zM877 1087l53 58l53 -58l-53 -49zM877 1296l53 54l53 -54l-53 -53z" />
<glyph unicode="[" d="M463 53q8 8 53 58l53 -58l-53 -51zM463 262q8 8 53 57l53 -57l-53 -51zM463 471l53 53l53 -53l-53 -53zM463 678l53 55l53 -55l-53 -51zM463 887l53 53l53 -53l-53 -53zM463 1094l53 55l53 -55l-53 -52zM463 1303l53 53l53 -53l-53 -54zM672 53q20 20 51 58l55 -58 l-55 -51zM672 1303l51 53l55 -53l-55 -54z" />
<glyph unicode="\" d="M256 1094l51 55l55 -55l-55 -52zM256 1303l51 53l55 -53l-55 -54zM463 887l53 53l53 -53l-53 -53zM672 471l51 53l55 -53l-55 -53zM672 678l51 55l55 -55l-55 -51zM879 53q8 8 53 58l53 -58l-53 -51zM879 262q8 8 53 57l53 -57l-53 -51z" />
<glyph unicode="]" d="M463 53q8 8 53 58l53 -58l-53 -51zM463 1303l53 53l53 -53l-53 -54zM672 53q20 20 51 58l55 -58l-55 -51zM672 262q20 20 51 57l55 -57l-55 -51zM672 471l51 53l55 -53l-55 -53zM672 678l51 55l55 -55l-55 -51zM672 887l51 53l55 -53l-55 -53zM672 1094l51 55l55 -55 l-55 -52zM672 1303l51 53l55 -53l-55 -54z" />
<glyph unicode="^" d="M256 1303l53 53l53 -53l-53 -54zM465 1509l51 56l55 -56l-55 -51zM672 1303l53 53l53 -53l-53 -54z" />
<glyph unicode="_" d="M49 53l51 58l54 -58l-54 -51zM256 53q8 8 53 58l53 -58l-53 -51zM465 53l51 58l55 -58l-55 -51zM672 53q8 8 53 58l53 -58l-53 -51zM881 53q20 20 51 58l55 -58l-55 -51z" />
<glyph unicode="`" d="M49 1509l53 56l54 -56l-54 -51zM258 1303l51 53l56 -53l-56 -54zM465 1303l53 53l53 -53l-53 -54z" />
<glyph unicode="a" d="M49 262l51 57l54 -57l-54 -51zM256 53q8 8 53 58l53 -58l-53 -51zM256 471l53 53l53 -53l-53 -53zM256 887l53 53l53 -53l-53 -53zM465 53l51 58l55 -58l-55 -51zM465 471l51 53l55 -53l-55 -53zM465 887l51 53l55 -53l-55 -53zM672 53q8 8 53 58l53 -58l-53 -51z M672 471l53 53l53 -53l-53 -53zM672 887l53 53l53 -53l-53 -53zM881 53q20 20 51 58l55 -58l-55 -51zM881 262q20 20 51 57l55 -57l-55 -51zM881 471l51 53l55 -53l-55 -53zM881 678l51 55l55 -55l-55 -51z" />
<glyph unicode="b" d="M49 53l51 58l54 -58l-54 -51zM49 262l51 57l54 -57l-54 -51zM49 471l51 53l54 -53l-54 -53zM49 678l51 55l54 -55l-54 -51zM49 887l51 53l54 -53l-54 -53zM49 1094l51 55l54 -55l-54 -52zM49 1303l51 53l54 -53l-54 -54zM256 53q8 8 53 58l53 -58l-53 -51zM256 678l53 55 l53 -55l-53 -51zM465 53l51 58l55 -58l-55 -51zM465 887l51 53l55 -53l-55 -53zM672 53q8 8 53 58l53 -58l-53 -51zM672 887l53 53l53 -53l-53 -53zM881 262q20 20 51 57l55 -57l-55 -51zM881 471l51 53l55 -53l-55 -53zM881 678l51 55l55 -55l-55 -51z" />
<glyph unicode="c" d="M49 262l51 57l54 -57l-54 -51zM49 471l51 53l54 -53l-54 -53zM49 678l51 55l54 -55l-54 -51zM256 53q8 8 53 58l53 -58l-53 -51zM256 887l53 53l53 -53l-53 -53zM465 53l51 58l55 -58l-55 -51zM465 887l51 53l55 -53l-55 -53zM672 53q8 8 53 58l53 -58l-53 -51zM672 887 l53 53l53 -53l-53 -53zM881 262q20 20 51 57l55 -57l-55 -51zM881 678l51 55l55 -55l-55 -51z" />
<glyph unicode="d" d="M49 262l51 57l54 -57l-54 -51zM49 471l51 53l54 -53l-54 -53zM49 678l51 55l54 -55l-54 -51zM256 53q8 8 53 58l53 -58l-53 -51zM256 887l53 53l53 -53l-53 -53zM465 53l51 58l55 -58l-55 -51zM465 887l51 53l55 -53l-55 -53zM672 262q8 8 53 57l53 -57l-53 -51zM672 887 l53 53l53 -53l-53 -53zM881 53q20 20 51 58l55 -58l-55 -51zM881 262q20 20 51 57l55 -57l-55 -51zM881 471l51 53l55 -53l-55 -53zM881 678l51 55l55 -55l-55 -51zM881 887l51 53l55 -53l-55 -53zM881 1094l51 55l55 -55l-55 -52zM881 1303l51 53l55 -53l-55 -54z" />
<glyph unicode="e" d="M49 262l51 57l54 -57l-54 -51zM49 471l51 53l54 -53l-54 -53zM49 678l51 55l54 -55l-54 -51zM256 53q8 8 53 58l53 -58l-53 -51zM256 471l53 53l53 -53l-53 -53zM256 887l53 53l53 -53l-53 -53zM465 53l51 58l55 -58l-55 -51zM465 471l51 53l55 -53l-55 -53zM465 887 l51 53l55 -53l-55 -53zM672 53q8 8 53 58l53 -58l-53 -51zM672 471l53 53l53 -53l-53 -53zM672 887l53 53l53 -53l-53 -53zM881 53q20 20 51 58l55 -58l-55 -51zM881 471l51 53l55 -53l-55 -53zM881 678l51 55l55 -55l-55 -51z" />
<glyph unicode="f" d="M49 53l51 58l54 -58l-54 -51zM256 53q8 8 53 58l53 -58l-53 -51zM256 887l53 53l53 -53l-53 -53zM465 53l51 58l55 -58l-55 -51zM465 262l51 57l55 -57l-55 -51zM465 471l51 53l55 -53l-55 -53zM465 678l51 55l55 -55l-55 -51zM465 887l51 53l55 -53l-55 -53zM465 1094 l51 55l55 -55l-55 -52zM672 53q8 8 53 58l53 -58l-53 -51zM672 887l53 53l53 -53l-53 -53zM672 1303l53 53l53 -53l-53 -54zM881 53q20 20 51 58l55 -58l-55 -51zM881 887l51 53l55 -53l-55 -53zM881 1303l51 53l55 -53l-55 -54z" />
<glyph unicode="g" d="M49 262l51 57l54 -57l-54 -51zM49 471l51 53l54 -53l-54 -53zM49 678l51 55l54 -55l-54 -51zM256 53q8 8 53 58l53 -58l-53 -51zM256 -362q8 8 53 57l53 -57l-53 -52zM256 887l53 53l53 -53l-53 -53zM465 53l51 58l55 -58l-55 -51zM465 -362l51 57l55 -57l-55 -52z M465 887l51 53l55 -53l-55 -53zM672 262q8 8 53 57l53 -57l-53 -51zM672 -362q8 8 53 57l53 -57l-53 -52zM672 887l53 53l53 -53l-53 -53zM881 53q20 20 51 58l55 -58l-55 -51zM881 -154q10 10 51 56l55 -56l-55 -53zM881 262q20 20 51 57l55 -57l-55 -51zM881 471l51 53 l55 -53l-55 -53zM881 678l51 55l55 -55l-55 -51zM881 887l51 53l55 -53l-55 -53z" />
<glyph unicode="h" d="M49 53l51 58l54 -58l-54 -51zM49 262l51 57l54 -57l-54 -51zM49 471l51 53l54 -53l-54 -53zM49 678l51 55l54 -55l-54 -51zM49 887l51 53l54 -53l-54 -53zM49 1094l51 55l54 -55l-54 -52zM49 1303l51 53l54 -53l-54 -54zM256 887l53 53l53 -53l-53 -53zM465 887l51 53 l55 -53l-55 -53zM672 887l53 53l53 -53l-53 -53zM881 53q20 20 51 58l55 -58l-55 -51zM881 262q20 20 51 57l55 -57l-55 -51zM881 471l51 53l55 -53l-55 -53zM881 678l51 55l55 -55l-55 -51z" />
<glyph unicode="i" d="M49 53l51 58l54 -58l-54 -51zM49 887l51 53l54 -53l-54 -53zM256 53q8 8 53 58l53 -58l-53 -51zM256 887l53 53l53 -53l-53 -53zM465 53l51 58l55 -58l-55 -51zM465 262l51 57l55 -57l-55 -51zM465 471l51 53l55 -53l-55 -53zM465 678l51 55l55 -55l-55 -51zM465 887 l51 53l55 -53l-55 -53zM465 1303l51 53l55 -53l-55 -54zM672 53q8 8 53 58l53 -58l-53 -51zM881 53q20 20 51 58l55 -58l-55 -51z" />
<glyph unicode="j" d="M49 -154q49 53 51 56l54 -56l-54 -53zM256 -362q8 8 53 57l53 -57l-53 -52zM256 887l53 53l53 -53l-53 -53zM465 -362l51 57l55 -57l-55 -52zM465 887l51 53l55 -53l-55 -53zM672 -362q8 8 53 57l53 -57l-53 -52zM672 887l53 53l53 -53l-53 -53zM881 53q20 20 51 58 l55 -58l-55 -51zM881 -154q10 10 51 56l55 -56l-55 -53zM881 262q20 20 51 57l55 -57l-55 -51zM881 471l51 53l55 -53l-55 -53zM881 678l51 55l55 -55l-55 -51zM881 887l51 53l55 -53l-55 -53zM881 1303l51 53l55 -53l-55 -54z" />
<glyph unicode="k" d="M49 53l51 58l54 -58l-54 -51zM49 262l51 57l54 -57l-54 -51zM49 471l51 53l54 -53l-54 -53zM49 678l51 55l54 -55l-54 -51zM49 887l51 53l54 -53l-54 -53zM49 1094l51 55l54 -55l-54 -52zM49 1303l51 53l54 -53l-54 -54zM256 471l53 53l53 -53l-53 -53zM465 471l51 53 l55 -53l-55 -53zM672 262q8 8 53 57l53 -57l-53 -51zM672 678l53 55l53 -55l-53 -51zM672 887l53 53l53 -53l-53 -53zM881 53q20 20 51 58l55 -58l-55 -51z" />
<glyph unicode="l" d="M49 53l51 58l54 -58l-54 -51zM49 1303l51 53l54 -53l-54 -54zM256 53q8 8 53 58l53 -58l-53 -51zM256 1303l53 53l53 -53l-53 -54zM465 53l51 58l55 -58l-55 -51zM465 262l51 57l55 -57l-55 -51zM465 471l51 53l55 -53l-55 -53zM465 678l51 55l55 -55l-55 -51zM465 887 l51 53l55 -53l-55 -53zM465 1094l51 55l55 -55l-55 -52zM465 1303l51 53l55 -53l-55 -54zM672 53q8 8 53 58l53 -58l-53 -51zM881 53q20 20 51 58l55 -58l-55 -51z" />
<glyph unicode="m" d="M49 53l51 58l54 -58l-54 -51zM49 262l51 57l54 -57l-54 -51zM49 471l51 53l54 -53l-54 -53zM49 678l51 55l54 -55l-54 -51zM49 887l51 53l54 -53l-54 -53zM256 678l53 55l53 -55l-53 -51zM465 53l51 58l55 -58l-55 -51zM465 262l51 57l55 -57l-55 -51zM465 471l51 53 l55 -53l-55 -53zM465 678l51 55l55 -55l-55 -51zM465 887l51 53l55 -53l-55 -53zM672 678l53 55l53 -55l-53 -51zM881 53q20 20 51 58l55 -58l-55 -51zM881 262q20 20 51 57l55 -57l-55 -51zM881 471l51 53l55 -53l-55 -53zM881 678l51 55l55 -55l-55 -51zM881 887l51 53 l55 -53l-55 -53z" />
<glyph unicode="n" d="M49 53l51 58l54 -58l-54 -51zM49 262l51 57l54 -57l-54 -51zM49 471l51 53l54 -53l-54 -53zM49 678l51 55l54 -55l-54 -51zM49 887l51 53l54 -53l-54 -53zM256 678l53 55l53 -55l-53 -51zM465 887l51 53l55 -53l-55 -53zM672 887l53 53l53 -53l-53 -53zM881 53 q20 20 51 58l55 -58l-55 -51zM881 262q20 20 51 57l55 -57l-55 -51zM881 471l51 53l55 -53l-55 -53zM881 678l51 55l55 -55l-55 -51z" />
<glyph unicode="o" d="M49 262l51 57l54 -57l-54 -51zM49 471l51 53l54 -53l-54 -53zM49 678l51 55l54 -55l-54 -51zM256 53q8 8 53 58l53 -58l-53 -51zM256 887l53 53l53 -53l-53 -53zM465 53l51 58l55 -58l-55 -51zM465 887l51 53l55 -53l-55 -53zM672 53q8 8 53 58l53 -58l-53 -51zM672 887 l53 53l53 -53l-53 -53zM881 262q20 20 51 57l55 -57l-55 -51zM881 471l51 53l55 -53l-55 -53zM881 678l51 55l55 -55l-55 -51z" />
<glyph unicode="p" d="M49 53l51 58l54 -58l-54 -51zM49 -154q49 53 51 56l54 -56l-54 -53zM49 262l51 57l54 -57l-54 -51zM49 -362l51 57l54 -57l-54 -52zM49 471l51 53l54 -53l-54 -53zM49 678l51 55l54 -55l-54 -51zM49 887l51 53l54 -53l-54 -53zM256 53q8 8 53 58l53 -58l-53 -51zM256 678 l53 55l53 -55l-53 -51zM465 53l51 58l55 -58l-55 -51zM465 887l51 53l55 -53l-55 -53zM672 53q8 8 53 58l53 -58l-53 -51zM672 887l53 53l53 -53l-53 -53zM881 262q20 20 51 57l55 -57l-55 -51zM881 471l51 53l55 -53l-55 -53zM881 678l51 55l55 -55l-55 -51z" />
<glyph unicode="q" d="M49 262l51 57l54 -57l-54 -51zM49 471l51 53l54 -53l-54 -53zM49 678l51 55l54 -55l-54 -51zM256 53q8 8 53 58l53 -58l-53 -51zM256 887l53 53l53 -53l-53 -53zM465 53l51 58l55 -58l-55 -51zM465 887l51 53l55 -53l-55 -53zM672 262q8 8 53 57l53 -57l-53 -51zM672 887 l53 53l53 -53l-53 -53zM881 53q20 20 51 58l55 -58l-55 -51zM881 -154q10 10 51 56l55 -56l-55 -53zM881 262q20 20 51 57l55 -57l-55 -51zM881 -362q20 20 51 57l55 -57l-55 -52zM881 471l51 53l55 -53l-55 -53zM881 678l51 55l55 -55l-55 -51zM881 887l51 53l55 -53 l-55 -53z" />
<glyph unicode="r" d="M49 53l51 58l54 -58l-54 -51zM49 887l51 53l54 -53l-54 -53zM256 53q8 8 53 58l53 -58l-53 -51zM256 262q8 8 53 57l53 -57l-53 -51zM256 471l53 53l53 -53l-53 -53zM256 678l53 55l53 -55l-53 -51zM256 887l53 53l53 -53l-53 -53zM465 53l51 58l55 -58l-55 -51zM465 678 l51 55l55 -55l-55 -51zM672 53q8 8 53 58l53 -58l-53 -51zM672 887l53 53l53 -53l-53 -53zM881 887l51 53l55 -53l-55 -53z" />
<glyph unicode="s" d="M49 53l51 58l54 -58l-54 -51zM49 678l51 55l54 -55l-54 -51zM256 53q8 8 53 58l53 -58l-53 -51zM256 471l53 53l53 -53l-53 -53zM256 887l53 53l53 -53l-53 -53zM465 53l51 58l55 -58l-55 -51zM465 471l51 53l55 -53l-55 -53zM465 887l51 53l55 -53l-55 -53zM672 53 q8 8 53 58l53 -58l-53 -51zM672 471l53 53l53 -53l-53 -53zM672 887l53 53l53 -53l-53 -53zM881 262q20 20 51 57l55 -57l-55 -51zM881 887l51 53l55 -53l-55 -53z" />
<glyph unicode="t" d="M49 887l51 53l54 -53l-54 -53zM256 887l53 53l53 -53l-53 -53zM465 262l51 57l55 -57l-55 -51zM465 471l51 53l55 -53l-55 -53zM465 678l51 55l55 -55l-55 -51zM465 887l51 53l55 -53l-55 -53zM465 1094l51 55l55 -55l-55 -52zM672 53q8 8 53 58l53 -58l-53 -51zM672 887 l53 53l53 -53l-53 -53zM881 53q20 20 51 58l55 -58l-55 -51zM881 887l51 53l55 -53l-55 -53z" />
<glyph unicode="u" d="M49 262l51 57l54 -57l-54 -51zM49 471l51 53l54 -53l-54 -53zM49 678l51 55l54 -55l-54 -51zM49 887l51 53l54 -53l-54 -53zM256 53q8 8 53 58l53 -58l-53 -51zM465 53l51 58l55 -58l-55 -51zM672 262q8 8 53 57l53 -57l-53 -51zM881 53q20 20 51 58l55 -58l-55 -51z M881 262q20 20 51 57l55 -57l-55 -51zM881 471l51 53l55 -53l-55 -53zM881 678l51 55l55 -55l-55 -51zM881 887l51 53l55 -53l-55 -53z" />
<glyph unicode="v" d="M49 678l51 55l54 -55l-54 -51zM49 887l51 53l54 -53l-54 -53zM256 262q8 8 53 57l53 -57l-53 -51zM256 471l53 53l53 -53l-53 -53zM465 53l51 58l55 -58l-55 -51zM672 262q8 8 53 57l53 -57l-53 -51zM672 471l53 53l53 -53l-53 -53zM881 678l51 55l55 -55l-55 -51z M881 887l51 53l55 -53l-55 -53z" />
<glyph unicode="w" d="M49 471l51 53l54 -53l-54 -53zM49 678l51 55l54 -55l-54 -51zM49 887l51 53l54 -53l-54 -53zM256 53q8 8 53 58l53 -58l-53 -51zM256 262q8 8 53 57l53 -57l-53 -51zM465 471l51 53l55 -53l-55 -53zM465 678l51 55l55 -55l-55 -51zM672 53q8 8 53 58l53 -58l-53 -51z M672 262q8 8 53 57l53 -57l-53 -51zM881 471l51 53l55 -53l-55 -53zM881 678l51 55l55 -55l-55 -51zM881 887l51 53l55 -53l-55 -53z" />
<glyph unicode="x" d="M49 53l51 58l54 -58l-54 -51zM49 262l51 57l54 -57l-54 -51zM49 678l51 55l54 -55l-54 -51zM49 887l51 53l54 -53l-54 -53zM256 471l53 53l53 -53l-53 -53zM465 471l51 53l55 -53l-55 -53zM672 471l53 53l53 -53l-53 -53zM881 53q20 20 51 58l55 -58l-55 -51zM881 262 q20 20 51 57l55 -57l-55 -51zM881 678l51 55l55 -55l-55 -51zM881 887l51 53l55 -53l-55 -53z" />
<glyph unicode="y" d="M49 -362l51 57l54 -57l-54 -52zM49 678l51 55l54 -55l-54 -51zM49 887l51 53l54 -53l-54 -53zM256 262q8 8 53 57l53 -57l-53 -51zM256 -362q8 8 53 57l53 -57l-53 -52zM256 471l53 53l53 -53l-53 -53zM465 53l51 58l55 -58l-55 -51zM465 -154l51 56l55 -56l-55 -53z M672 262q8 8 53 57l53 -57l-53 -51zM672 471l53 53l53 -53l-53 -53zM881 678l51 55l55 -55l-55 -51zM881 887l51 53l55 -53l-55 -53z" />
<glyph unicode="z" d="M49 53l51 58l54 -58l-54 -51zM49 887l51 53l54 -53l-54 -53zM256 53q8 8 53 58l53 -58l-53 -51zM256 262q8 8 53 57l53 -57l-53 -51zM256 887l53 53l53 -53l-53 -53zM465 53l51 58l55 -58l-55 -51zM465 471l51 53l55 -53l-55 -53zM465 887l51 53l55 -53l-55 -53zM672 53 q8 8 53 58l53 -58l-53 -51zM672 678l53 55l53 -55l-53 -51zM672 887l53 53l53 -53l-53 -53zM881 53q20 20 51 58l55 -58l-55 -51zM881 887l51 53l55 -53l-55 -53z" />
<glyph unicode="{" d="M256 678l53 55l53 -55l-53 -51zM465 262l51 57l55 -57l-55 -51zM465 471l51 53l55 -53l-55 -53zM465 887l51 53l55 -53l-55 -53zM465 1094l51 55l55 -55l-55 -52zM672 53q8 8 53 58l53 -58l-53 -51zM672 1303l53 53l53 -53l-53 -54z" />
<glyph unicode="|" d="M465 53l51 58l55 -58l-55 -51zM465 262l51 57l55 -57l-55 -51zM465 471l51 53l55 -53l-55 -53zM465 678l51 55l55 -55l-55 -51zM465 887l51 53l55 -53l-55 -53zM465 1094l51 55l55 -55l-55 -52zM465 1303l51 53l55 -53l-55 -54z" />
<glyph unicode="}" d="M463 53q20 20 51 58l55 -58l-55 -51zM463 1303l51 53l55 -53l-55 -54zM672 262l51 57l53 -57l-53 -51zM672 471l51 53l53 -53l-53 -53zM672 887l51 53l53 -53l-53 -53zM672 1094l51 55l53 -55l-53 -52zM879 678l51 55l55 -55l-55 -51z" />
<glyph unicode="~" d="M49 678l51 55l54 -55l-54 -51zM256 887l53 53l53 -53l-53 -53zM465 678l51 55l55 -55l-55 -51zM672 471l53 53l53 -53l-53 -53zM881 678l51 55l55 -55l-55 -51z" />
<glyph unicode="&#xa0;" />
<glyph unicode="&#xa1;" d="M567 80l51 53l56 -53l-56 -53zM567 289l51 51l56 -51l-56 -56zM567 496l51 53l56 -53l-56 -54zM567 705l51 51l56 -51l-56 -56zM567 1120l51 51l56 -51l-56 -57zM567 1329l51 51l56 -51l-56 -57z" />
<glyph unicode="&#xa2;" d="M49 262l51 57l54 -57l-54 -51zM49 471l51 53l54 -53l-54 -53zM49 678l51 55l54 -55l-54 -51zM256 53q8 8 53 58l53 -58l-53 -51zM256 887l53 53l53 -53l-53 -53zM465 53l51 58l55 -58l-55 -51zM465 -154l51 56l55 -56l-55 -53zM465 262l51 57l55 -57l-55 -51zM465 471 l51 53l55 -53l-55 -53zM465 678l51 55l55 -55l-55 -51zM465 887l51 53l55 -53l-55 -53zM465 1094l51 55l55 -55l-55 -52zM672 53q8 8 53 58l53 -58l-53 -51zM672 887l53 53l53 -53l-53 -53zM881 262q20 20 51 57l55 -57l-55 -51zM881 678l51 55l55 -55l-55 -51z" />
<glyph unicode="&#xa3;" d="M49 53l51 58l54 -58l-54 -51zM49 678l51 55l54 -55l-54 -51zM256 53q8 8 53 58l53 -58l-53 -51zM256 262q8 8 53 57l53 -57l-53 -51zM256 471l53 53l53 -53l-53 -53zM256 678l53 55l53 -55l-53 -51zM256 887l53 53l53 -53l-53 -53zM256 1094l53 55l53 -55l-53 -52z M465 53l51 58l55 -58l-55 -51zM465 678l51 55l55 -55l-55 -51zM465 1303l51 53l55 -53l-55 -54zM672 53q8 8 53 58l53 -58l-53 -51zM672 678l53 55l53 -55l-53 -51zM672 1303l53 53l53 -53l-53 -54zM881 53q20 20 51 58l55 -58l-55 -51zM881 1094l51 55l55 -55l-55 -52z" />
<glyph unicode="&#xa4;" d="M49 53l51 58l54 -58l-54 -51zM49 887l51 53l54 -53l-54 -53zM256 262q8 8 53 57l53 -57l-53 -51zM256 471l53 53l53 -53l-53 -53zM256 678l53 55l53 -55l-53 -51zM465 262l51 57l55 -57l-55 -51zM465 678l51 55l55 -55l-55 -51zM672 262q8 8 53 57l53 -57l-53 -51z M672 471l53 53l53 -53l-53 -53zM672 678l53 55l53 -55l-53 -51zM881 53q20 20 51 58l55 -58l-55 -51zM881 887l51 53l55 -53l-55 -53z" />
<glyph unicode="&#xa5;" d="M49 471l51 53l54 -53l-54 -53zM49 1094l51 55l54 -55l-54 -52zM49 1303l51 53l54 -53l-54 -54zM256 471l53 53l53 -53l-53 -53zM256 887l53 53l53 -53l-53 -53zM465 53l51 58l55 -58l-55 -51zM465 262l51 57l55 -57l-55 -51zM465 471l51 53l55 -53l-55 -53zM465 678 l51 55l55 -55l-55 -51zM672 471l53 53l53 -53l-53 -53zM672 887l53 53l53 -53l-53 -53zM881 471l51 53l55 -53l-55 -53zM881 1094l51 55l55 -55l-55 -52zM881 1303l51 53l55 -53l-55 -54z" />
<glyph unicode="&#xa6;" d="M465 53l51 58l55 -58l-55 -51zM465 262l51 57l55 -57l-55 -51zM465 471l51 53l55 -53l-55 -53zM465 887l51 53l55 -53l-55 -53zM465 1094l51 55l55 -55l-55 -52zM465 1303l51 53l55 -53l-55 -54z" />
<glyph unicode="&#xa7;" d="M256 53l51 58l55 -58l-55 -51zM256 678l51 55l55 -55l-55 -51zM256 1094l51 55l55 -55l-55 -52zM463 53q8 8 53 58l53 -58l-53 -51zM463 471l53 53l53 -53l-53 -53zM463 887l53 53l53 -53l-53 -53zM463 1303l53 53l53 -53l-53 -54zM672 53q20 20 51 58l55 -58l-55 -51z M672 471l51 53l55 -53l-55 -53zM672 887l51 53l55 -53l-55 -53zM672 1303l51 53l55 -53l-55 -54zM879 262q8 8 53 57l53 -57l-53 -51zM879 678l53 55l53 -55l-53 -51zM879 1303l53 53l53 -53l-53 -54z" />
<glyph unicode="&#xa8;" d="M49 1303l51 53l54 -53l-54 -54zM49 1509l51 56l54 -56l-54 -51zM881 1303l51 53l55 -53l-55 -54zM881 1509l51 56l55 -56l-55 -51z" />
<glyph unicode="&#xa9;" d="M49 262l51 57l54 -57l-54 -51zM49 471l51 53l54 -53l-54 -53zM49 678l51 55l54 -55l-54 -51zM256 53q8 8 53 58l53 -58l-53 -51zM256 471l53 53l53 -53l-53 -53zM256 887l53 53l53 -53l-53 -53zM465 53l51 58l55 -58l-55 -51zM465 262l51 57l55 -57l-55 -51zM465 678 l51 55l55 -55l-55 -51zM465 887l51 53l55 -53l-55 -53zM672 53q8 8 53 58l53 -58l-53 -51zM672 887l53 53l53 -53l-53 -53zM881 262q20 20 51 57l55 -57l-55 -51zM881 471l51 53l55 -53l-55 -53zM881 678l51 55l55 -55l-55 -51z" />
<glyph unicode="&#xaa;" d="M49 887l53 53l54 -53l-54 -53zM258 678l51 55l56 -55l-56 -51zM258 887l51 53l56 -53l-56 -53zM258 1303l51 53l56 -53l-56 -54zM465 678l53 55l53 -55l-53 -51zM465 887l53 53l53 -53l-53 -53zM465 1094l53 55l53 -55l-53 -52z" />
<glyph unicode="&#xab;" d="M49 471l51 53l54 -53l-54 -53zM256 262q8 8 53 57l53 -57l-53 -51zM256 678l53 55l53 -55l-53 -51zM465 53l51 58l55 -58l-55 -51zM465 471l51 53l55 -53l-55 -53zM465 887l51 53l55 -53l-55 -53zM672 262q8 8 53 57l53 -57l-53 -51zM672 678l53 55l53 -55l-53 -51z M881 53q20 20 51 58l55 -58l-55 -51zM881 887l51 53l55 -53l-55 -53z" />
<glyph unicode="&#xac;" d="M49 471l51 53l54 -53l-54 -53zM256 471l53 53l53 -53l-53 -53zM465 471l51 53l55 -53l-55 -53zM672 471l53 53l53 -53l-53 -53zM881 53q20 20 51 58l55 -58l-55 -51zM881 262q20 20 51 57l55 -57l-55 -51zM881 471l51 53l55 -53l-55 -53z" />
<glyph unicode="&#xad;" d="M256 471l53 53l53 -53l-53 -53zM465 471l51 53l55 -53l-55 -53zM672 471l53 53l53 -53l-53 -53z" />
<glyph unicode="&#xae;" d="M49 678l51 55l54 -55l-54 -51zM49 887l51 53l54 -53l-54 -53zM49 1094l51 55l54 -55l-54 -52zM256 471l53 53l53 -53l-53 -53zM256 1303l53 53l53 -53l-53 -54zM465 471l51 53l55 -53l-55 -53zM465 887l51 53l55 -53l-55 -53zM465 1094l51 55l55 -55l-55 -52zM465 1303 l51 53l55 -53l-55 -54zM672 471l53 53l53 -53l-53 -53zM672 678l53 55l53 -55l-53 -51zM672 1094l53 55l53 -55l-53 -52zM672 1303l53 53l53 -53l-53 -54zM881 678l51 55l55 -55l-55 -51zM881 887l51 53l55 -53l-55 -53zM881 1094l51 55l55 -55l-55 -52z" />
<glyph unicode="&#xaf;" d="M256 1303l53 53l53 -53l-53 -54zM465 1303l51 53l55 -53l-55 -54zM672 1303l53 53l53 -53l-53 -54z" />
<glyph unicode="&#xb0;" d="M49 1094l53 55l54 -55l-54 -52zM258 887l51 53l56 -53l-56 -53zM258 1303l51 53l56 -53l-56 -54zM465 1094l53 55l53 -55l-53 -52z" />
<glyph unicode="&#xb1;" d="M49 53l51 58l54 -58l-54 -51zM49 678l51 55l54 -55l-54 -51zM256 53q8 8 53 58l53 -58l-53 -51zM256 678l53 55l53 -55l-53 -51zM465 53l51 58l55 -58l-55 -51zM465 471l51 53l55 -53l-55 -53zM465 678l51 55l55 -55l-55 -51zM465 887l51 53l55 -53l-55 -53zM672 53 q8 8 53 58l53 -58l-53 -51zM672 678l53 55l53 -55l-53 -51zM881 53q20 20 51 58l55 -58l-55 -51zM881 678l51 55l55 -55l-55 -51z" />
<glyph unicode="&#xb2;" d="M51 678l51 55l56 -55l-56 -51zM51 887l51 53l56 -53l-56 -53zM51 1303l51 53l56 -53l-56 -54zM258 678l53 55l54 -55l-54 -51zM258 1094l53 55l54 -55l-54 -52z" />
<glyph unicode="&#xb3;" d="M51 678l51 55l56 -55l-56 -51zM51 1303l51 53l56 -53l-56 -54zM258 678l53 55l54 -55l-54 -51zM258 887l53 53l54 -53l-54 -53zM258 1094l53 55l54 -55l-54 -52z" />
<glyph unicode="&#xb4;" d="M256 1303l53 53l53 -53l-53 -54zM465 1303l51 53l55 -53l-55 -54zM672 1509l53 56l53 -56l-53 -51z" />
<glyph unicode="&#xb5;" d="M49 53l51 58l54 -58l-54 -51zM49 -154q49 53 51 56l54 -56l-54 -53zM49 262l51 57l54 -57l-54 -51zM49 -362l51 57l54 -57l-54 -52zM49 471l51 53l54 -53l-54 -53zM49 678l51 55l54 -55l-54 -51zM49 887l51 53l54 -53l-54 -53zM256 53q8 8 53 58l53 -58l-53 -51zM465 53 l51 58l55 -58l-55 -51zM672 262q8 8 53 57l53 -57l-53 -51zM881 53q20 20 51 58l55 -58l-55 -51zM881 262q20 20 51 57l55 -57l-55 -51zM881 471l51 53l55 -53l-55 -53zM881 678l51 55l55 -55l-55 -51zM881 887l51 53l55 -53l-55 -53z" />
<glyph unicode="&#xb6;" d="M49 887l51 53l54 -53l-54 -53zM49 1094l51 55l54 -55l-54 -52zM256 678l53 55l53 -55l-53 -51zM256 887l53 53l53 -53l-53 -53zM256 1094l53 55l53 -55l-53 -52zM256 1303l53 53l53 -53l-53 -54zM465 53l51 58l55 -58l-55 -51zM465 262l51 57l55 -57l-55 -51zM465 471 l51 53l55 -53l-55 -53zM465 678l51 55l55 -55l-55 -51zM465 887l51 53l55 -53l-55 -53zM465 1094l51 55l55 -55l-55 -52zM465 1303l51 53l55 -53l-55 -54zM881 53q20 20 51 58l55 -58l-55 -51zM881 262q20 20 51 57l55 -57l-55 -51zM881 471l51 53l55 -53l-55 -53zM881 678 l51 55l55 -55l-55 -51zM881 887l51 53l55 -53l-55 -53zM881 1094l51 55l55 -55l-55 -52zM881 1303l51 53l55 -53l-55 -54z" />
<glyph unicode="&#xb7;" d="M258 471l51 53l56 -53l-56 -53zM258 678l51 55l56 -55l-56 -51z" />
<glyph unicode="&#xb8;" d="M258 -362l51 57l53 -57l-53 -52zM465 -154q10 10 51 56l55 -56l-55 -53z" />
<glyph unicode="&#xb9;" d="M49 678l53 55l54 -55l-54 -51zM49 1303l53 53l54 -53l-54 -54zM258 678l51 55l56 -55l-56 -51zM258 887l51 53l56 -53l-56 -53zM258 1094l51 55l56 -55l-56 -52zM258 1303l51 53l56 -53l-56 -54zM465 678l53 55l53 -55l-53 -51z" />
<glyph unicode="&#xba;" d="M49 1094l53 55l54 -55l-54 -52zM258 887l51 53l56 -53l-56 -53zM258 1303l51 53l56 -53l-56 -54zM465 1094l53 55l53 -55l-53 -52z" />
<glyph unicode="&#xbb;" d="M49 53l51 58l54 -58l-54 -51zM49 887l51 53l54 -53l-54 -53zM256 262q8 8 53 57l53 -57l-53 -51zM256 678l53 55l53 -55l-53 -51zM465 53l51 58l55 -58l-55 -51zM465 471l51 53l55 -53l-55 -53zM465 887l51 53l55 -53l-55 -53zM672 262q8 8 53 57l53 -57l-53 -51z M672 678l53 55l53 -55l-53 -51zM881 471l51 53l55 -53l-55 -53z" />
<glyph unicode="&#xbc;" d="M47 1303l53 53l54 -53l-54 -54zM256 53l51 58l55 -58l-55 -51zM256 262l51 57l55 -57l-55 -51zM256 887l51 53l55 -53l-55 -53zM256 1094l51 55l55 -55l-55 -52zM256 1303l51 53l55 -53l-55 -54zM463 471l53 53l53 -53l-53 -53zM463 678l53 55l53 -55l-53 -51zM672 887 l51 53l55 -53l-55 -53zM879 471l53 53l53 -53l-53 -53zM879 1094l53 55l53 -55l-53 -52zM879 1303l53 53l53 -53l-53 -54zM1087 53q20 20 52 58l55 -58l-55 -51zM1087 262q20 20 52 57l55 -57l-55 -51zM1087 471l52 53l55 -53l-55 -53zM1087 678l52 55l55 -55l-55 -51z" />
<glyph unicode="&#xbd;" d="M47 1303l53 53l54 -53l-54 -54zM256 53l51 58l55 -58l-55 -51zM256 262l51 57l55 -57l-55 -51zM256 887l51 53l55 -53l-55 -53zM256 1094l51 55l55 -55l-55 -52zM256 1303l51 53l55 -53l-55 -54zM463 471l53 53l53 -53l-53 -53zM463 678l53 55l53 -55l-53 -51zM672 887 l51 53l55 -53l-55 -53zM879 53q8 8 53 58l53 -58l-53 -51zM879 262q8 8 53 57l53 -57l-53 -51zM879 678l53 55l53 -55l-53 -51zM879 1094l53 55l53 -55l-53 -52zM879 1303l53 53l53 -53l-53 -54zM1087 53q20 20 52 58l55 -58l-55 -51zM1087 471l52 53l55 -53l-55 -53z" />
<glyph unicode="&#xbe;" d="M47 678l53 55l54 -55l-54 -51zM47 1303l53 53l54 -53l-54 -54zM256 53l51 58l55 -58l-55 -51zM256 262l51 57l55 -57l-55 -51zM256 678l51 55l55 -55l-55 -51zM256 887l51 53l55 -53l-55 -53zM256 1094l51 55l55 -55l-55 -52zM463 471l53 53l53 -53l-53 -53zM463 678 l53 55l53 -55l-53 -51zM672 887l51 53l55 -53l-55 -53zM879 471l53 53l53 -53l-53 -53zM879 1094l53 55l53 -55l-53 -52zM879 1303l53 53l53 -53l-53 -54zM1087 53q20 20 52 58l55 -58l-55 -51zM1087 262q20 20 52 57l55 -57l-55 -51zM1087 471l52 53l55 -53l-55 -53z M1087 678l52 55l55 -55l-55 -51z" />
<glyph unicode="&#xbf;" d="M88 289l55 51l52 -51l-52 -56zM88 496l55 53l52 -53l-52 -54zM297 80l53 53l53 -53l-53 -53zM297 705l53 51l53 -51l-53 -56zM504 80l55 53l51 -53l-51 -53zM504 705l55 51l51 -51l-51 -56zM504 1120l55 51l51 -51l-51 -57zM504 1329l55 51l51 -51l-51 -57zM713 80l53 53 l53 -53l-53 -53zM922 289l53 51l51 -51l-51 -56z" />
<glyph unicode="&#xc0;" d="M150 55l53 56l55 -56l-55 -53zM150 262l53 55l55 -55l-55 -53zM150 469l53 55l55 -55l-55 -53zM150 676l53 55l55 -55l-55 -53zM150 883l53 55l55 -55q-20 -23 -55 -52zM150 1087l53 58l55 -58q-18 -18 -55 -49zM356 1970l54 55l53 -55l-53 -51zM358 469q23 20 52 55 l55 -55l-55 -53zM358 1296l52 54l55 -54l-55 -53zM565 469q31 31 51 55l56 -55l-56 -53zM565 1296l51 54l56 -54l-56 -53zM565 1763l51 54l56 -54l-56 -53zM772 469l53 55l54 -55l-54 -53zM772 1296l53 54l54 -54l-54 -53zM772 1763l53 54l54 -54l-54 -53zM979 55l53 56 l53 -56l-53 -53zM979 262l53 55l53 -55l-53 -53zM979 469l53 55l53 -55l-53 -53zM979 676l53 55l53 -55l-53 -53zM979 883l53 55l53 -55l-53 -52zM979 1087l53 58l53 -58l-53 -49z" />
<glyph unicode="&#xc1;" d="M150 55l53 56l55 -56l-55 -53zM150 262l53 55l55 -55l-55 -53zM150 469l53 55l55 -55l-55 -53zM150 676l53 55l55 -55l-55 -53zM150 883l53 55l55 -55q-20 -23 -55 -52zM150 1087l53 58l55 -58q-18 -18 -55 -49zM358 469q23 20 52 55l55 -55l-55 -53zM358 1296l52 54 l55 -54l-55 -53zM358 1763l54 54l53 -54l-53 -53zM565 469q31 31 51 55l56 -55l-56 -53zM565 1296l51 54l56 -54l-56 -53zM567 1763l51 54l56 -54l-56 -53zM772 469l53 55l54 -55l-54 -53zM772 1296l53 54l54 -54l-54 -53zM774 1970l53 55l54 -55l-54 -51zM979 55l53 56 l53 -56l-53 -53zM979 262l53 55l53 -55l-53 -53zM979 469l53 55l53 -55l-53 -53zM979 676l53 55l53 -55l-53 -53zM979 883l53 55l53 -55l-53 -52zM979 1087l53 58l53 -58l-53 -49z" />
<glyph unicode="&#xc2;" d="M150 55l53 56l55 -56l-55 -53zM150 262l53 55l55 -55l-55 -53zM150 469l53 55l55 -55l-55 -53zM150 676l53 55l55 -55l-55 -53zM150 883l53 55l55 -55q-20 -23 -55 -52zM150 1087l53 58l55 -58q-18 -18 -55 -49zM358 469q23 20 52 55l55 -55l-55 -53zM358 1296l52 54 l55 -54l-55 -53zM358 1763l54 54l53 -54l-53 -53zM565 469q31 31 51 55l56 -55l-56 -53zM565 1296l51 54l56 -54l-56 -53zM567 1970l51 55l56 -55l-56 -51zM772 469l53 55l54 -55l-54 -53zM772 1296l53 54l54 -54l-54 -53zM774 1763l53 54l54 -54l-54 -53zM979 55l53 56 l53 -56l-53 -53zM979 262l53 55l53 -55l-53 -53zM979 469l53 55l53 -55l-53 -53zM979 676l53 55l53 -55l-53 -53zM979 883l53 55l53 -55l-53 -52zM979 1087l53 58l53 -58l-53 -49z" />
<glyph unicode="&#xc3;" d="M150 55l53 56l55 -56l-55 -53zM150 262l53 55l55 -55l-55 -53zM150 469l53 55l55 -55l-55 -53zM150 676l53 55l55 -55l-55 -53zM150 883l53 55l55 -55q-20 -23 -55 -52zM150 1087l53 58l55 -58q-18 -18 -55 -49zM152 1763l51 54l53 -54l-53 -53zM358 469q23 20 52 55 l55 -55l-55 -53zM358 1296l52 54l55 -54l-55 -53zM358 1970l54 55l53 -55l-53 -51zM565 469q31 31 51 55l56 -55l-56 -53zM565 1296l51 54l56 -54l-56 -53zM567 1763l51 54l56 -54l-56 -53zM772 469l53 55l54 -55l-54 -53zM772 1296l53 54l54 -54l-54 -53zM774 1763l53 54 l54 -54l-54 -53zM979 55l53 56l53 -56l-53 -53zM979 262l53 55l53 -55l-53 -53zM979 469l53 55l53 -55l-53 -53zM979 676l53 55l53 -55l-53 -53zM979 883l53 55l53 -55l-53 -52zM979 1087l53 58l53 -58l-53 -49zM983 1970l51 55l56 -55l-56 -51z" />
<glyph unicode="&#xc4;" d="M150 55l53 56l55 -56l-55 -53zM150 262l53 55l55 -55l-55 -53zM150 469l53 55l55 -55l-55 -53zM150 676l53 55l55 -55l-55 -53zM150 883l53 55l55 -55q-20 -23 -55 -52zM150 1087l53 58l55 -58q-18 -18 -55 -49zM152 1763l51 54l53 -54l-53 -53zM152 1970l51 55l53 -55 l-53 -51zM358 469q23 20 52 55l55 -55l-55 -53zM358 1296l52 54l55 -54l-55 -53zM565 469q31 31 51 55l56 -55l-56 -53zM565 1296l51 54l56 -54l-56 -53zM772 469l53 55l54 -55l-54 -53zM772 1296l53 54l54 -54l-54 -53zM979 55l53 56l53 -56l-53 -53zM979 262l53 55l53 -55 l-53 -53zM979 469l53 55l53 -55l-53 -53zM979 676l53 55l53 -55l-53 -53zM979 883l53 55l53 -55l-53 -52zM979 1087l53 58l53 -58l-53 -49zM983 1763l51 54l56 -54l-56 -53zM983 1970l51 55l56 -55l-56 -51z" />
<glyph unicode="&#xc5;" d="M150 55l53 56l55 -56l-55 -53zM150 262l53 55l55 -55l-55 -53zM150 469l53 55l55 -55l-55 -53zM150 676l53 55l55 -55l-55 -53zM150 883l53 55l55 -55q-20 -23 -55 -52zM150 1087l53 58l55 -58q-18 -18 -55 -49zM358 469q23 20 52 55l55 -55l-55 -53zM358 1296l52 54 l55 -54l-55 -53zM358 1970l54 55l53 -55l-53 -51zM565 469q31 31 51 55l56 -55l-56 -53zM565 1296l51 54l56 -54l-56 -53zM567 1763l51 54l56 -54l-56 -53zM567 2179l51 53l56 -53l-56 -51zM772 469l53 55l54 -55l-54 -53zM772 1296l53 54l54 -54l-54 -53zM774 1970l53 55 l54 -55l-54 -51zM979 55l53 56l53 -56l-53 -53zM979 262l53 55l53 -55l-53 -53zM979 469l53 55l53 -55l-53 -53zM979 676l53 55l53 -55l-53 -53zM979 883l53 55l53 -55l-53 -52zM979 1087l53 58l53 -58l-53 -49z" />
<glyph unicode="&#xc6;" d="M47 55l53 56l56 -56l-56 -53zM47 262l53 55l56 -55l-56 -53zM47 469l53 55l56 -55l-56 -53zM47 676l53 55l56 -55l-56 -53zM47 883l53 55l56 -55q-20 -23 -56 -52zM47 1087l53 58l56 -58q-18 -18 -56 -49zM256 469q23 20 51 55l55 -55l-55 -53zM256 1296l51 54l55 -54 l-55 -53zM463 55l51 56l55 -56l-55 -53zM463 262q10 10 51 55l55 -55l-55 -53zM463 469q31 31 51 55l55 -55l-55 -53zM463 676q31 31 51 55l55 -55l-55 -53zM463 883q31 31 51 55l55 -55q-10 -10 -55 -52zM463 1087l51 58l55 -58l-55 -49zM463 1296l51 54l55 -54l-55 -53z M670 55l53 56l53 -56l-53 -53zM670 676l53 55l53 -55l-53 -53zM670 1296l53 54l53 -54l-53 -53zM877 55l53 56l53 -56l-53 -53zM877 1296l53 54l53 -54l-53 -53z" />
<glyph unicode="&#xc7;" d="M150 262l53 55l55 -55l-55 -53zM150 469l53 55l55 -55l-55 -53zM150 676l53 55l55 -55l-55 -53zM150 883l53 55l55 -55q-20 -23 -55 -52zM150 1087l53 58l55 -58q-18 -18 -55 -49zM358 55q10 10 52 56l55 -56l-55 -53zM358 1296l52 54l55 -54l-55 -53zM360 -362l52 57 l53 -57l-53 -52zM565 55l51 56l56 -56l-56 -53zM565 1296l51 54l56 -54l-56 -53zM567 -154q10 10 51 56l56 -56l-56 -53zM772 55l53 56l54 -56l-54 -53zM772 1296l53 54l54 -54l-54 -53zM979 262l53 55l53 -55l-53 -53zM979 1087l53 58l53 -58l-53 -49z" />
<glyph unicode="&#xc8;" d="M150 55l53 56l55 -56l-55 -53zM150 262l53 55l55 -55l-55 -53zM150 469l53 55l55 -55l-55 -53zM150 676l53 55l55 -55l-55 -53zM150 883l53 55l55 -55q-20 -23 -55 -52zM150 1087l53 58l55 -58q-18 -18 -55 -49zM150 1296l53 54l55 -54l-55 -53zM356 1970l54 55l53 -55 l-53 -51zM358 55q10 10 52 56l55 -56l-55 -53zM358 676q23 20 52 55l55 -55l-55 -53zM358 1296l52 54l55 -54l-55 -53zM565 55l51 56l56 -56l-56 -53zM565 676q31 31 51 55l56 -55l-56 -53zM565 1296l51 54l56 -54l-56 -53zM565 1763l51 54l56 -54l-56 -53zM772 55l53 56 l54 -56l-54 -53zM772 676l53 55l54 -55l-54 -53zM772 1296l53 54l54 -54l-54 -53zM772 1763l53 54l54 -54l-54 -53zM979 55l53 56l53 -56l-53 -53zM979 1296l53 54l53 -54l-53 -53z" />
<glyph unicode="&#xc9;" d="M150 55l53 56l55 -56l-55 -53zM150 262l53 55l55 -55l-55 -53zM150 469l53 55l55 -55l-55 -53zM150 676l53 55l55 -55l-55 -53zM150 883l53 55l55 -55q-20 -23 -55 -52zM150 1087l53 58l55 -58q-18 -18 -55 -49zM150 1296l53 54l55 -54l-55 -53zM358 55q10 10 52 56 l55 -56l-55 -53zM358 676q23 20 52 55l55 -55l-55 -53zM358 1296l52 54l55 -54l-55 -53zM358 1763l54 54l53 -54l-53 -53zM565 55l51 56l56 -56l-56 -53zM565 676q31 31 51 55l56 -55l-56 -53zM565 1296l51 54l56 -54l-56 -53zM567 1763l51 54l56 -54l-56 -53zM772 55l53 56 l54 -56l-54 -53zM772 676l53 55l54 -55l-54 -53zM772 1296l53 54l54 -54l-54 -53zM774 1970l53 55l54 -55l-54 -51zM979 55l53 56l53 -56l-53 -53zM979 1296l53 54l53 -54l-53 -53z" />
<glyph unicode="&#xca;" d="M150 55l53 56l55 -56l-55 -53zM150 262l53 55l55 -55l-55 -53zM150 469l53 55l55 -55l-55 -53zM150 676l53 55l55 -55l-55 -53zM150 883l53 55l55 -55q-20 -23 -55 -52zM150 1087l53 58l55 -58q-18 -18 -55 -49zM150 1296l53 54l55 -54l-55 -53zM358 55q10 10 52 56 l55 -56l-55 -53zM358 676q23 20 52 55l55 -55l-55 -53zM358 1296l52 54l55 -54l-55 -53zM358 1763l54 54l53 -54l-53 -53zM565 55l51 56l56 -56l-56 -53zM565 676q31 31 51 55l56 -55l-56 -53zM565 1296l51 54l56 -54l-56 -53zM567 1970l51 55l56 -55l-56 -51zM772 55l53 56 l54 -56l-54 -53zM772 676l53 55l54 -55l-54 -53zM772 1296l53 54l54 -54l-54 -53zM774 1763l53 54l54 -54l-54 -53zM979 55l53 56l53 -56l-53 -53zM979 1296l53 54l53 -54l-53 -53z" />
<glyph unicode="&#xcb;" d="M150 55l53 56l55 -56l-55 -53zM150 262l53 55l55 -55l-55 -53zM150 469l53 55l55 -55l-55 -53zM150 676l53 55l55 -55l-55 -53zM150 883l53 55l55 -55q-20 -23 -55 -52zM150 1087l53 58l55 -58q-18 -18 -55 -49zM150 1296l53 54l55 -54l-55 -53zM152 1763l51 54l53 -54 l-53 -53zM152 1970l51 55l53 -55l-53 -51zM358 55q10 10 52 56l55 -56l-55 -53zM358 676q23 20 52 55l55 -55l-55 -53zM358 1296l52 54l55 -54l-55 -53zM565 55l51 56l56 -56l-56 -53zM565 676q31 31 51 55l56 -55l-56 -53zM565 1296l51 54l56 -54l-56 -53zM772 55l53 56 l54 -56l-54 -53zM772 676l53 55l54 -55l-54 -53zM772 1296l53 54l54 -54l-54 -53zM979 55l53 56l53 -56l-53 -53zM979 1296l53 54l53 -54l-53 -53zM983 1763l51 54l56 -54l-56 -53zM983 1970l51 55l56 -55l-56 -51z" />
<glyph unicode="&#xcc;" d="M150 55l53 56l55 -56l-55 -53zM150 1296l53 54l55 -54l-55 -53zM356 1970l54 55l53 -55l-53 -51zM358 55q10 10 52 56l55 -56l-55 -53zM358 1296l52 54l55 -54l-55 -53zM565 55l51 56l56 -56l-56 -53zM565 262q10 10 51 55l56 -55l-56 -53zM565 469q31 31 51 55l56 -55 l-56 -53zM565 676q31 31 51 55l56 -55l-56 -53zM565 883q31 31 51 55l56 -55q-10 -10 -56 -52zM565 1087l51 58l56 -58l-56 -49zM565 1296l51 54l56 -54l-56 -53zM565 1763l51 54l56 -54l-56 -53zM772 55l53 56l54 -56l-54 -53zM772 1296l53 54l54 -54l-54 -53zM772 1763 l53 54l54 -54l-54 -53zM979 55l53 56l53 -56l-53 -53zM979 1296l53 54l53 -54l-53 -53z" />
<glyph unicode="&#xcd;" d="M150 55l53 56l55 -56l-55 -53zM150 1296l53 54l55 -54l-55 -53zM358 55q10 10 52 56l55 -56l-55 -53zM358 1296l52 54l55 -54l-55 -53zM358 1763l54 54l53 -54l-53 -53zM565 55l51 56l56 -56l-56 -53zM565 262q10 10 51 55l56 -55l-56 -53zM565 469q31 31 51 55l56 -55 l-56 -53zM565 676q31 31 51 55l56 -55l-56 -53zM565 883q31 31 51 55l56 -55q-10 -10 -56 -52zM565 1087l51 58l56 -58l-56 -49zM565 1296l51 54l56 -54l-56 -53zM567 1763l51 54l56 -54l-56 -53zM772 55l53 56l54 -56l-54 -53zM772 1296l53 54l54 -54l-54 -53zM774 1970 l53 55l54 -55l-54 -51zM979 55l53 56l53 -56l-53 -53zM979 1296l53 54l53 -54l-53 -53z" />
<glyph unicode="&#xce;" d="M150 55l53 56l55 -56l-55 -53zM150 1296l53 54l55 -54l-55 -53zM358 55q10 10 52 56l55 -56l-55 -53zM358 1296l52 54l55 -54l-55 -53zM358 1763l54 54l53 -54l-53 -53zM565 55l51 56l56 -56l-56 -53zM565 262q10 10 51 55l56 -55l-56 -53zM565 469q31 31 51 55l56 -55 l-56 -53zM565 676q31 31 51 55l56 -55l-56 -53zM565 883q31 31 51 55l56 -55q-10 -10 -56 -52zM565 1087l51 58l56 -58l-56 -49zM565 1296l51 54l56 -54l-56 -53zM567 1970l51 55l56 -55l-56 -51zM772 55l53 56l54 -56l-54 -53zM772 1296l53 54l54 -54l-54 -53zM774 1763 l53 54l54 -54l-54 -53zM979 55l53 56l53 -56l-53 -53zM979 1296l53 54l53 -54l-53 -53z" />
<glyph unicode="&#xcf;" d="M150 55l53 56l55 -56l-55 -53zM150 1296l53 54l55 -54l-55 -53zM152 1763l51 54l53 -54l-53 -53zM152 1970l51 55l53 -55l-53 -51zM358 55q10 10 52 56l55 -56l-55 -53zM358 1296l52 54l55 -54l-55 -53zM565 55l51 56l56 -56l-56 -53zM565 262q10 10 51 55l56 -55 l-56 -53zM565 469q31 31 51 55l56 -55l-56 -53zM565 676q31 31 51 55l56 -55l-56 -53zM565 883q31 31 51 55l56 -55q-10 -10 -56 -52zM565 1087l51 58l56 -58l-56 -49zM565 1296l51 54l56 -54l-56 -53zM772 55l53 56l54 -56l-54 -53zM772 1296l53 54l54 -54l-54 -53zM979 55 l53 56l53 -56l-53 -53zM979 1296l53 54l53 -54l-53 -53zM983 1763l51 54l56 -54l-56 -53zM983 1970l51 55l56 -55l-56 -51z" />
<glyph unicode="&#xd0;" d="M47 676l53 55l56 -55l-56 -53zM256 55q10 10 51 56l55 -56l-55 -53zM256 262q6 6 51 55l55 -55l-55 -53zM256 469q23 20 51 55l55 -55l-55 -53zM256 676q23 20 51 55l55 -55l-55 -53zM256 883q23 20 51 55l55 -55q-6 -6 -55 -52zM256 1087q20 20 51 58l55 -58 q-14 -14 -31.5 -28.5t-23.5 -20.5zM256 1296l51 54l55 -54l-55 -53zM463 55l51 56l55 -56l-55 -53zM463 676q31 31 51 55l55 -55l-55 -53zM463 1296l51 54l55 -54l-55 -53zM670 55l53 56l53 -56l-53 -53zM670 1296l53 54l53 -54l-53 -53zM877 262l53 55l53 -55l-53 -53z M877 469l53 55l53 -55l-53 -53zM877 676l53 55l53 -55l-53 -53zM877 883l53 55l53 -55l-53 -52zM877 1087l53 58l53 -58l-53 -49z" />
<glyph unicode="&#xd1;" d="M150 55l53 56l55 -56l-55 -53zM150 262l53 55l55 -55l-55 -53zM150 469l53 55l55 -55l-55 -53zM150 676l53 55l55 -55l-55 -53zM150 883l53 55l55 -55q-20 -23 -55 -52zM150 1087l53 58l55 -58q-18 -18 -55 -49zM150 1296l53 54l55 -54l-55 -53zM152 1763l51 54l53 -54 l-53 -53zM358 1087q20 20 52 58l55 -58q-14 -14 -31.5 -28.5t-23.5 -20.5zM358 1970l54 55l53 -55l-53 -51zM565 676q31 31 51 55l56 -55l-56 -53zM565 883q31 31 51 55l56 -55q-10 -10 -56 -52zM567 1763l51 54l56 -54l-56 -53zM772 469l53 55l54 -55l-54 -53zM774 1763 l53 54l54 -54l-54 -53zM979 55l53 56l53 -56l-53 -53zM979 262l53 55l53 -55l-53 -53zM979 469l53 55l53 -55l-53 -53zM979 676l53 55l53 -55l-53 -53zM979 883l53 55l53 -55l-53 -52zM979 1087l53 58l53 -58l-53 -49zM979 1296l53 54l53 -54l-53 -53zM983 1970l51 55 l56 -55l-56 -51z" />
<glyph unicode="&#xd2;" d="M150 262l53 55l55 -55l-55 -53zM150 469l53 55l55 -55l-55 -53zM150 676l53 55l55 -55l-55 -53zM150 883l53 55l55 -55q-20 -23 -55 -52zM150 1087l53 58l55 -58q-18 -18 -55 -49zM356 1970l54 55l53 -55l-53 -51zM358 55q10 10 52 56l55 -56l-55 -53zM358 1296l52 54 l55 -54l-55 -53zM565 55l51 56l56 -56l-56 -53zM565 1296l51 54l56 -54l-56 -53zM565 1763l51 54l56 -54l-56 -53zM772 55l53 56l54 -56l-54 -53zM772 1296l53 54l54 -54l-54 -53zM772 1763l53 54l54 -54l-54 -53zM979 262l53 55l53 -55l-53 -53zM979 469l53 55l53 -55 l-53 -53zM979 676l53 55l53 -55l-53 -53zM979 883l53 55l53 -55l-53 -52zM979 1087l53 58l53 -58l-53 -49z" />
<glyph unicode="&#xd3;" d="M150 262l53 55l55 -55l-55 -53zM150 469l53 55l55 -55l-55 -53zM150 676l53 55l55 -55l-55 -53zM150 883l53 55l55 -55q-20 -23 -55 -52zM150 1087l53 58l55 -58q-18 -18 -55 -49zM358 55q10 10 52 56l55 -56l-55 -53zM358 1296l52 54l55 -54l-55 -53zM358 1763l54 54 l53 -54l-53 -53zM565 55l51 56l56 -56l-56 -53zM565 1296l51 54l56 -54l-56 -53zM567 1763l51 54l56 -54l-56 -53zM772 55l53 56l54 -56l-54 -53zM772 1296l53 54l54 -54l-54 -53zM774 1970l53 55l54 -55l-54 -51zM979 262l53 55l53 -55l-53 -53zM979 469l53 55l53 -55 l-53 -53zM979 676l53 55l53 -55l-53 -53zM979 883l53 55l53 -55l-53 -52zM979 1087l53 58l53 -58l-53 -49z" />
<glyph unicode="&#xd4;" d="M150 262l53 55l55 -55l-55 -53zM150 469l53 55l55 -55l-55 -53zM150 676l53 55l55 -55l-55 -53zM150 883l53 55l55 -55q-20 -23 -55 -52zM150 1087l53 58l55 -58q-18 -18 -55 -49zM358 55q10 10 52 56l55 -56l-55 -53zM358 1296l52 54l55 -54l-55 -53zM358 1763l54 54 l53 -54l-53 -53zM565 55l51 56l56 -56l-56 -53zM565 1296l51 54l56 -54l-56 -53zM567 1970l51 55l56 -55l-56 -51zM772 55l53 56l54 -56l-54 -53zM772 1296l53 54l54 -54l-54 -53zM774 1763l53 54l54 -54l-54 -53zM979 262l53 55l53 -55l-53 -53zM979 469l53 55l53 -55 l-53 -53zM979 676l53 55l53 -55l-53 -53zM979 883l53 55l53 -55l-53 -52zM979 1087l53 58l53 -58l-53 -49z" />
<glyph unicode="&#xd5;" d="M150 262l53 55l55 -55l-55 -53zM150 469l53 55l55 -55l-55 -53zM150 676l53 55l55 -55l-55 -53zM150 883l53 55l55 -55q-20 -23 -55 -52zM150 1087l53 58l55 -58q-18 -18 -55 -49zM152 1763l51 54l53 -54l-53 -53zM358 55q10 10 52 56l55 -56l-55 -53zM358 1296l52 54 l55 -54l-55 -53zM358 1970l54 55l53 -55l-53 -51zM565 55l51 56l56 -56l-56 -53zM565 1296l51 54l56 -54l-56 -53zM567 1763l51 54l56 -54l-56 -53zM772 55l53 56l54 -56l-54 -53zM772 1296l53 54l54 -54l-54 -53zM774 1763l53 54l54 -54l-54 -53zM979 262l53 55l53 -55 l-53 -53zM979 469l53 55l53 -55l-53 -53zM979 676l53 55l53 -55l-53 -53zM979 883l53 55l53 -55l-53 -52zM979 1087l53 58l53 -58l-53 -49zM983 1970l51 55l56 -55l-56 -51z" />
<glyph unicode="&#xd6;" d="M150 262l53 55l55 -55l-55 -53zM150 469l53 55l55 -55l-55 -53zM150 676l53 55l55 -55l-55 -53zM150 883l53 55l55 -55q-20 -23 -55 -52zM150 1087l53 58l55 -58q-18 -18 -55 -49zM152 1763l51 54l53 -54l-53 -53zM152 1970l51 55l53 -55l-53 -51zM358 55q10 10 52 56 l55 -56l-55 -53zM358 1296l52 54l55 -54l-55 -53zM565 55l51 56l56 -56l-56 -53zM565 1296l51 54l56 -54l-56 -53zM772 55l53 56l54 -56l-54 -53zM772 1296l53 54l54 -54l-54 -53zM979 262l53 55l53 -55l-53 -53zM979 469l53 55l53 -55l-53 -53zM979 676l53 55l53 -55 l-53 -53zM979 883l53 55l53 -55l-53 -52zM979 1087l53 58l53 -58l-53 -49zM983 1763l51 54l56 -54l-56 -53zM983 1970l51 55l56 -55l-56 -51z" />
<glyph unicode="&#xd7;" d="M49 53l51 58l54 -58l-54 -51zM49 887l51 53l54 -53l-54 -53zM256 262q8 8 53 57l53 -57l-53 -51zM256 678l53 55l53 -55l-53 -51zM465 471l51 53l55 -53l-55 -53zM672 262q8 8 53 57l53 -57l-53 -51zM672 678l53 55l53 -55l-53 -51zM881 53q20 20 51 58l55 -58l-55 -51z M881 887l51 53l55 -53l-55 -53z" />
<glyph unicode="&#xd8;" d="M47 262l53 55l56 -55l-56 -53zM47 469l53 55l56 -55l-56 -53zM47 676l53 55l56 -55l-56 -53zM47 883l53 55l56 -55q-20 -23 -56 -52zM47 1087l53 58l56 -58q-18 -18 -56 -49zM256 55q10 10 51 56l55 -56l-55 -53zM256 1296l51 54l55 -54l-55 -53zM258 262l53 55l56 -55 l-56 -53zM463 55l51 56l55 -56l-55 -53zM463 1296l51 54l55 -54l-55 -53zM465 469q31 31 51 55l55 -55l-55 -53zM465 676q31 31 51 55l55 -55l-55 -53zM465 883q31 31 51 55l55 -55q-6 -6 -55 -52zM670 55l53 56l53 -56l-53 -53zM670 1087l53 58l53 -58l-53 -49zM670 1296 l53 54l53 -54l-53 -53zM877 262l53 55l53 -55l-53 -53zM877 469l53 55l53 -55l-53 -53zM877 676l53 55l53 -55l-53 -53zM877 883l53 55l53 -55l-53 -52zM877 1087l53 58l53 -58l-53 -49z" />
<glyph unicode="&#xd9;" d="M150 262l53 55l55 -55l-55 -53zM150 469l53 55l55 -55l-55 -53zM150 676l53 55l55 -55l-55 -53zM150 883l53 55l55 -55q-20 -23 -55 -52zM150 1087l53 58l55 -58q-18 -18 -55 -49zM150 1296l53 54l55 -54l-55 -53zM356 1970l54 55l53 -55l-53 -51zM358 55q10 10 52 56 l55 -56l-55 -53zM565 55l51 56l56 -56l-56 -53zM565 1763l51 54l56 -54l-56 -53zM772 55l53 56l54 -56l-54 -53zM772 1763l53 54l54 -54l-54 -53zM979 262l53 55l53 -55l-53 -53zM979 469l53 55l53 -55l-53 -53zM979 676l53 55l53 -55l-53 -53zM979 883l53 55l53 -55 l-53 -52zM979 1087l53 58l53 -58l-53 -49zM979 1296l53 54l53 -54l-53 -53z" />
<glyph unicode="&#xda;" d="M150 262l53 55l55 -55l-55 -53zM150 469l53 55l55 -55l-55 -53zM150 676l53 55l55 -55l-55 -53zM150 883l53 55l55 -55q-20 -23 -55 -52zM150 1087l53 58l55 -58q-18 -18 -55 -49zM150 1296l53 54l55 -54l-55 -53zM358 55q10 10 52 56l55 -56l-55 -53zM358 1763l54 54 l53 -54l-53 -53zM565 55l51 56l56 -56l-56 -53zM567 1763l51 54l56 -54l-56 -53zM772 55l53 56l54 -56l-54 -53zM774 1970l53 55l54 -55l-54 -51zM979 262l53 55l53 -55l-53 -53zM979 469l53 55l53 -55l-53 -53zM979 676l53 55l53 -55l-53 -53zM979 883l53 55l53 -55 l-53 -52zM979 1087l53 58l53 -58l-53 -49zM979 1296l53 54l53 -54l-53 -53z" />
<glyph unicode="&#xdb;" d="M150 262l53 55l55 -55l-55 -53zM150 469l53 55l55 -55l-55 -53zM150 676l53 55l55 -55l-55 -53zM150 883l53 55l55 -55q-20 -23 -55 -52zM150 1087l53 58l55 -58q-18 -18 -55 -49zM150 1296l53 54l55 -54l-55 -53zM358 55q10 10 52 56l55 -56l-55 -53zM358 1763l54 54 l53 -54l-53 -53zM565 55l51 56l56 -56l-56 -53zM567 1970l51 55l56 -55l-56 -51zM772 55l53 56l54 -56l-54 -53zM774 1763l53 54l54 -54l-54 -53zM979 262l53 55l53 -55l-53 -53zM979 469l53 55l53 -55l-53 -53zM979 676l53 55l53 -55l-53 -53zM979 883l53 55l53 -55 l-53 -52zM979 1087l53 58l53 -58l-53 -49zM979 1296l53 54l53 -54l-53 -53z" />
<glyph unicode="&#xdc;" d="M150 262l53 55l55 -55l-55 -53zM150 469l53 55l55 -55l-55 -53zM150 676l53 55l55 -55l-55 -53zM150 883l53 55l55 -55q-20 -23 -55 -52zM150 1087l53 58l55 -58q-18 -18 -55 -49zM150 1296l53 54l55 -54l-55 -53zM152 1763l51 54l53 -54l-53 -53zM152 1970l51 55l53 -55 l-53 -51zM358 55q10 10 52 56l55 -56l-55 -53zM565 55l51 56l56 -56l-56 -53zM772 55l53 56l54 -56l-54 -53zM979 262l53 55l53 -55l-53 -53zM979 469l53 55l53 -55l-53 -53zM979 676l53 55l53 -55l-53 -53zM979 883l53 55l53 -55l-53 -52zM979 1087l53 58l53 -58l-53 -49z M979 1296l53 54l53 -54l-53 -53zM983 1763l51 54l56 -54l-56 -53zM983 1970l51 55l56 -55l-56 -51z" />
<glyph unicode="&#xdd;" d="M150 883l53 55l55 -55q-20 -23 -55 -52zM150 1087l53 58l55 -58q-18 -18 -55 -49zM150 1296l53 54l55 -54l-55 -53zM358 676q23 20 52 55l55 -55l-55 -53zM358 1763l54 54l53 -54l-53 -53zM565 55l51 56l56 -56l-56 -53zM565 262q10 10 51 55l56 -55l-56 -53zM565 469 q31 31 51 55l56 -55l-56 -53zM567 1763l51 54l56 -54l-56 -53zM772 676l53 55l54 -55l-54 -53zM774 1970l53 55l54 -55l-54 -51zM979 883l53 55l53 -55l-53 -52zM979 1087l53 58l53 -58l-53 -49zM979 1296l53 54l53 -54l-53 -53z" />
<glyph unicode="&#xde;" d="M47 55l53 56l56 -56l-56 -53zM47 262l53 55l56 -55l-56 -53zM47 469l53 55l56 -55l-56 -53zM47 676l53 55l56 -55l-56 -53zM47 883l53 55l56 -55q-20 -23 -56 -52zM47 1087l53 58l56 -58q-18 -18 -56 -49zM47 1296l53 54l56 -54l-56 -53zM256 469q23 20 51 55l55 -55 l-55 -53zM256 1087q20 20 51 58l55 -58q-14 -14 -31.5 -28.5t-23.5 -20.5zM463 469q31 31 51 55l55 -55l-55 -53zM463 1087l51 58l55 -58l-55 -49zM670 469l53 55l53 -55l-53 -53zM670 1087l53 58l53 -58l-53 -49zM877 676l53 55l53 -55l-53 -53zM877 883l53 55l53 -55 l-53 -52z" />
<glyph unicode="&#xdf;" d="M49 53l51 58l54 -58l-54 -51zM49 262l51 57l54 -57l-54 -51zM49 471l51 53l54 -53l-54 -53zM49 678l51 55l54 -55l-54 -51zM49 887l51 53l54 -53l-54 -53zM256 1094l53 55l53 -55l-53 -52zM465 53l51 58l55 -58l-55 -51zM465 678l51 55l55 -55l-55 -51zM465 1303l51 53 l55 -53l-55 -54zM672 53q8 8 53 58l53 -58l-53 -51zM672 471l53 53l53 -53l-53 -53zM672 887l53 53l53 -53l-53 -53zM672 1094l53 55l53 -55l-53 -52zM881 262q20 20 51 57l55 -57l-55 -51z" />
<glyph unicode="&#xe0;" d="M152 262l51 57l53 -57l-53 -51zM356 1509l54 56l53 -56l-53 -51zM358 53q8 8 54 58l53 -58l-53 -51zM358 471l54 53l53 -53l-53 -53zM358 887l54 53l53 -53l-53 -53zM565 1303l51 53l56 -53l-56 -54zM567 53l51 58l56 -58l-56 -51zM567 471l51 53l56 -53l-56 -53z M567 887l51 53l56 -53l-56 -53zM772 1303l53 53l54 -53l-54 -54zM774 53q8 8 53 58l54 -58l-54 -51zM774 471l53 53l54 -53l-54 -53zM774 887l53 53l54 -53l-54 -53zM983 53q20 20 51 58l56 -58l-56 -51zM983 262q20 20 51 57l56 -57l-56 -51zM983 471l51 53l56 -53l-56 -53 zM983 678l51 55l56 -55l-56 -51z" />
<glyph unicode="&#xe1;" d="M152 262l51 57l53 -57l-53 -51zM358 53q8 8 54 58l53 -58l-53 -51zM358 471l54 53l53 -53l-53 -53zM358 887l54 53l53 -53l-53 -53zM358 1303l54 53l53 -53l-53 -54zM567 53l51 58l56 -58l-56 -51zM567 471l51 53l56 -53l-56 -53zM567 887l51 53l56 -53l-56 -53z M567 1303l51 53l56 -53l-56 -54zM774 53q8 8 53 58l54 -58l-54 -51zM774 471l53 53l54 -53l-54 -53zM774 887l53 53l54 -53l-54 -53zM774 1509l53 56l54 -56l-54 -51zM983 53q20 20 51 58l56 -58l-56 -51zM983 262q20 20 51 57l56 -57l-56 -51zM983 471l51 53l56 -53 l-56 -53zM983 678l51 55l56 -55l-56 -51z" />
<glyph unicode="&#xe2;" d="M152 262l51 57l53 -57l-53 -51zM358 53q8 8 54 58l53 -58l-53 -51zM358 471l54 53l53 -53l-53 -53zM358 887l54 53l53 -53l-53 -53zM567 53l51 58l56 -58l-56 -51zM567 471l51 53l56 -53l-56 -53zM567 887l51 53l56 -53l-56 -53zM774 53q8 8 53 58l54 -58l-54 -51z M774 471l53 53l54 -53l-54 -53zM774 887l53 53l54 -53l-54 -53zM983 53q20 20 51 58l56 -58l-56 -51zM983 262q20 20 51 57l56 -57l-56 -51zM983 471l51 53l56 -53l-56 -53zM983 678l51 55l56 -55l-56 -51z" />
<glyph unicode="&#xe3;" d="M152 262l51 57l53 -57l-53 -51zM152 1303l51 53l53 -53l-53 -54zM358 53q8 8 54 58l53 -58l-53 -51zM358 471l54 53l53 -53l-53 -53zM358 887l54 53l53 -53l-53 -53zM358 1509l54 56l53 -56l-53 -51zM567 53l51 58l56 -58l-56 -51zM567 471l51 53l56 -53l-56 -53z M567 887l51 53l56 -53l-56 -53zM567 1303l51 53l56 -53l-56 -54zM774 53q8 8 53 58l54 -58l-54 -51zM774 471l53 53l54 -53l-54 -53zM774 887l53 53l54 -53l-54 -53zM774 1303l53 53l54 -53l-54 -54zM983 53q20 20 51 58l56 -58l-56 -51zM983 262q20 20 51 57l56 -57 l-56 -51zM983 471l51 53l56 -53l-56 -53zM983 678l51 55l56 -55l-56 -51zM983 1509l51 56l56 -56l-56 -51z" />
<glyph unicode="&#xe4;" d="M152 262l51 57l53 -57l-53 -51zM152 1303l51 53l53 -53l-53 -54zM152 1509l51 56l53 -56l-53 -51zM358 53q8 8 54 58l53 -58l-53 -51zM358 471l54 53l53 -53l-53 -53zM358 887l54 53l53 -53l-53 -53zM567 53l51 58l56 -58l-56 -51zM567 471l51 53l56 -53l-56 -53z M567 887l51 53l56 -53l-56 -53zM774 53q8 8 53 58l54 -58l-54 -51zM774 471l53 53l54 -53l-54 -53zM774 887l53 53l54 -53l-54 -53zM983 53q20 20 51 58l56 -58l-56 -51zM983 262q20 20 51 57l56 -57l-56 -51zM983 471l51 53l56 -53l-56 -53zM983 678l51 55l56 -55l-56 -51z M983 1303l51 53l56 -53l-56 -54zM983 1509l51 56l56 -56l-56 -51z" />
<glyph unicode="&#xe5;" d="M152 262l51 57l53 -57l-53 -51zM358 53q8 8 54 58l53 -58l-53 -51zM358 471l54 53l53 -53l-53 -53zM358 887l54 53l53 -53l-53 -53zM358 1509l54 56l53 -56l-53 -51zM567 53l51 58l56 -58l-56 -51zM567 471l51 53l56 -53l-56 -53zM567 887l51 53l56 -53l-56 -53z M567 1303l51 53l56 -53l-56 -54zM567 1718l51 54l56 -54l-56 -51zM774 53q8 8 53 58l54 -58l-54 -51zM774 471l53 53l54 -53l-54 -53zM774 887l53 53l54 -53l-54 -53zM774 1509l53 56l54 -56l-54 -51zM983 53q20 20 51 58l56 -58l-56 -51zM983 262q20 20 51 57l56 -57 l-56 -51zM983 471l51 53l56 -53l-56 -53zM983 678l51 55l56 -55l-56 -51z" />
<glyph unicode="&#xe6;" d="M49 262l51 57l54 -57l-54 -51zM256 53q8 8 53 58l53 -58l-53 -51zM256 471l53 53l53 -53l-53 -53zM256 887l53 53l53 -53l-53 -53zM465 53l51 58l55 -58l-55 -51zM465 262l51 57l55 -57l-55 -51zM465 471l51 53l55 -53l-55 -53zM465 678l51 55l55 -55l-55 -51zM672 53 q8 8 53 58l53 -58l-53 -51zM672 471l53 53l53 -53l-53 -53zM672 887l53 53l53 -53l-53 -53zM881 53q20 20 51 58l55 -58l-55 -51zM881 678l51 55l55 -55l-55 -51z" />
<glyph unicode="&#xe7;" d="M152 262l51 57l53 -57l-53 -51zM152 471l51 53l53 -53l-53 -53zM152 678l51 55l53 -55l-53 -51zM358 53q8 8 54 58l53 -58l-53 -51zM358 887l54 53l53 -53l-53 -53zM360 -362l52 57l53 -57l-53 -52zM567 53l51 58l56 -58l-56 -51zM567 -154q10 10 51 56l56 -56l-56 -53z M567 887l51 53l56 -53l-56 -53zM774 53q8 8 53 58l54 -58l-54 -51zM774 887l53 53l54 -53l-54 -53zM983 262q20 20 51 57l56 -57l-56 -51zM983 678l51 55l56 -55l-56 -51z" />
<glyph unicode="&#xe8;" d="M152 262l51 57l53 -57l-53 -51zM152 471l51 53l53 -53l-53 -53zM152 678l51 55l53 -55l-53 -51zM356 1509l54 56l53 -56l-53 -51zM358 53q8 8 54 58l53 -58l-53 -51zM358 471l54 53l53 -53l-53 -53zM358 887l54 53l53 -53l-53 -53zM565 1303l51 53l56 -53l-56 -54z M567 53l51 58l56 -58l-56 -51zM567 471l51 53l56 -53l-56 -53zM567 887l51 53l56 -53l-56 -53zM772 1303l53 53l54 -53l-54 -54zM774 53q8 8 53 58l54 -58l-54 -51zM774 471l53 53l54 -53l-54 -53zM774 887l53 53l54 -53l-54 -53zM983 53q20 20 51 58l56 -58l-56 -51z M983 471l51 53l56 -53l-56 -53zM983 678l51 55l56 -55l-56 -51z" />
<glyph unicode="&#xe9;" d="M152 262l51 57l53 -57l-53 -51zM152 471l51 53l53 -53l-53 -53zM152 678l51 55l53 -55l-53 -51zM358 53q8 8 54 58l53 -58l-53 -51zM358 471l54 53l53 -53l-53 -53zM358 887l54 53l53 -53l-53 -53zM358 1303l54 53l53 -53l-53 -54zM567 53l51 58l56 -58l-56 -51zM567 471 l51 53l56 -53l-56 -53zM567 887l51 53l56 -53l-56 -53zM567 1303l51 53l56 -53l-56 -54zM774 53q8 8 53 58l54 -58l-54 -51zM774 471l53 53l54 -53l-54 -53zM774 887l53 53l54 -53l-54 -53zM774 1509l53 56l54 -56l-54 -51zM983 53q20 20 51 58l56 -58l-56 -51zM983 471 l51 53l56 -53l-56 -53zM983 678l51 55l56 -55l-56 -51z" />
<glyph unicode="&#xea;" d="M152 262l51 57l53 -57l-53 -51zM152 471l51 53l53 -53l-53 -53zM152 678l51 55l53 -55l-53 -51zM358 53q8 8 54 58l53 -58l-53 -51zM358 471l54 53l53 -53l-53 -53zM358 887l54 53l53 -53l-53 -53zM358 1303l54 53l53 -53l-53 -54zM567 53l51 58l56 -58l-56 -51zM567 471 l51 53l56 -53l-56 -53zM567 887l51 53l56 -53l-56 -53zM567 1509l51 56l56 -56l-56 -51zM774 53q8 8 53 58l54 -58l-54 -51zM774 471l53 53l54 -53l-54 -53zM774 887l53 53l54 -53l-54 -53zM774 1303l53 53l54 -53l-54 -54zM983 53q20 20 51 58l56 -58l-56 -51zM983 471 l51 53l56 -53l-56 -53zM983 678l51 55l56 -55l-56 -51z" />
<glyph unicode="&#xeb;" d="M152 262l51 57l53 -57l-53 -51zM152 471l51 53l53 -53l-53 -53zM152 678l51 55l53 -55l-53 -51zM152 1303l51 53l53 -53l-53 -54zM152 1509l51 56l53 -56l-53 -51zM358 53q8 8 54 58l53 -58l-53 -51zM358 471l54 53l53 -53l-53 -53zM358 887l54 53l53 -53l-53 -53z M567 53l51 58l56 -58l-56 -51zM567 471l51 53l56 -53l-56 -53zM567 887l51 53l56 -53l-56 -53zM774 53q8 8 53 58l54 -58l-54 -51zM774 471l53 53l54 -53l-54 -53zM774 887l53 53l54 -53l-54 -53zM983 53q20 20 51 58l56 -58l-56 -51zM983 471l51 53l56 -53l-56 -53z M983 678l51 55l56 -55l-56 -51zM983 1303l51 53l56 -53l-56 -54zM983 1509l51 56l56 -56l-56 -51z" />
<glyph unicode="&#xec;" d="M49 53l51 58l54 -58l-54 -51zM49 887l51 53l54 -53l-54 -53zM256 53q8 8 53 58l53 -58l-53 -51zM256 887l53 53l53 -53l-53 -53zM256 1509l53 56l53 -56l-53 -51zM465 53l51 58l55 -58l-55 -51zM465 262l51 57l55 -57l-55 -51zM465 471l51 53l55 -53l-55 -53zM465 678 l51 55l55 -55l-55 -51zM465 887l51 53l55 -53l-55 -53zM465 1303l51 53l55 -53l-55 -54zM672 53q8 8 53 58l53 -58l-53 -51zM672 1303l53 53l53 -53l-53 -54zM881 53q20 20 51 58l55 -58l-55 -51z" />
<glyph unicode="&#xed;" d="M49 53l51 58l54 -58l-54 -51zM49 887l51 53l54 -53l-54 -53zM256 53q8 8 53 58l53 -58l-53 -51zM256 887l53 53l53 -53l-53 -53zM256 1303l53 53l53 -53l-53 -54zM465 53l51 58l55 -58l-55 -51zM465 262l51 57l55 -57l-55 -51zM465 471l51 53l55 -53l-55 -53zM465 678 l51 55l55 -55l-55 -51zM465 887l51 53l55 -53l-55 -53zM465 1303l51 53l55 -53l-55 -54zM672 53q8 8 53 58l53 -58l-53 -51zM672 1509l53 56l53 -56l-53 -51zM881 53q20 20 51 58l55 -58l-55 -51z" />
<glyph unicode="&#xee;" d="M49 53l51 58l54 -58l-54 -51zM49 887l51 53l54 -53l-54 -53zM256 53q8 8 53 58l53 -58l-53 -51zM256 887l53 53l53 -53l-53 -53zM256 1303l53 53l53 -53l-53 -54zM465 53l51 58l55 -58l-55 -51zM465 262l51 57l55 -57l-55 -51zM465 471l51 53l55 -53l-55 -53zM465 678 l51 55l55 -55l-55 -51zM465 887l51 53l55 -53l-55 -53zM465 1509l51 56l55 -56l-55 -51zM672 53q8 8 53 58l53 -58l-53 -51zM672 1303l53 53l53 -53l-53 -54zM881 53q20 20 51 58l55 -58l-55 -51z" />
<glyph unicode="&#xef;" d="M49 53l51 58l54 -58l-54 -51zM49 887l51 53l54 -53l-54 -53zM49 1303l51 53l54 -53l-54 -54zM49 1509l51 56l54 -56l-54 -51zM256 53q8 8 53 58l53 -58l-53 -51zM256 887l53 53l53 -53l-53 -53zM465 53l51 58l55 -58l-55 -51zM465 262l51 57l55 -57l-55 -51zM465 471 l51 53l55 -53l-55 -53zM465 678l51 55l55 -55l-55 -51zM465 887l51 53l55 -53l-55 -53zM672 53q8 8 53 58l53 -58l-53 -51zM881 53q20 20 51 58l55 -58l-55 -51zM881 1303l51 53l55 -53l-55 -54zM881 1509l51 56l55 -56l-55 -51z" />
<glyph unicode="&#xf0;" d="M49 262l51 57l54 -57l-54 -51zM49 471l51 53l54 -53l-54 -53zM256 678l53 55l53 -55l-53 -51zM256 1303l53 53l53 -53l-53 -54zM258 53q8 8 53 58l54 -58l-54 -51zM465 53l51 58l55 -58l-55 -51zM465 678l51 55l55 -55l-55 -51zM465 887l51 53l55 -53l-55 -53zM465 1303 l51 53l55 -53l-55 -54zM670 53q8 8 53 58l53 -58l-53 -51zM672 678l53 55l53 -55l-53 -51zM672 1094l53 55l53 -55l-53 -52zM881 262q20 20 51 57l55 -57l-55 -51zM881 471l51 53l55 -53l-55 -53zM881 678l51 55l55 -55l-55 -51zM881 887l51 53l55 -53l-55 -53zM881 1303 l51 53l55 -53l-55 -54z" />
<glyph unicode="&#xf1;" d="M152 53l51 58l53 -58l-53 -51zM152 262l51 57l53 -57l-53 -51zM152 471l51 53l53 -53l-53 -53zM152 678l51 55l53 -55l-53 -51zM152 887l51 53l53 -53l-53 -53zM152 1303l51 53l53 -53l-53 -54zM358 678l54 55l53 -55l-53 -51zM358 1509l54 56l53 -56l-53 -51zM567 887 l51 53l56 -53l-56 -53zM567 1303l51 53l56 -53l-56 -54zM774 887l53 53l54 -53l-54 -53zM774 1303l53 53l54 -53l-54 -54zM983 53q20 20 51 58l56 -58l-56 -51zM983 262q20 20 51 57l56 -57l-56 -51zM983 471l51 53l56 -53l-56 -53zM983 678l51 55l56 -55l-56 -51zM983 1509 l51 56l56 -56l-56 -51z" />
<glyph unicode="&#xf2;" d="M152 262l51 57l53 -57l-53 -51zM152 471l51 53l53 -53l-53 -53zM152 678l51 55l53 -55l-53 -51zM356 1509l54 56l53 -56l-53 -51zM358 53q8 8 54 58l53 -58l-53 -51zM358 887l54 53l53 -53l-53 -53zM565 1303l51 53l56 -53l-56 -54zM567 53l51 58l56 -58l-56 -51z M567 887l51 53l56 -53l-56 -53zM772 1303l53 53l54 -53l-54 -54zM774 53q8 8 53 58l54 -58l-54 -51zM774 887l53 53l54 -53l-54 -53zM983 262q20 20 51 57l56 -57l-56 -51zM983 471l51 53l56 -53l-56 -53zM983 678l51 55l56 -55l-56 -51z" />
<glyph unicode="&#xf3;" d="M152 262l51 57l53 -57l-53 -51zM152 471l51 53l53 -53l-53 -53zM152 678l51 55l53 -55l-53 -51zM358 53q8 8 54 58l53 -58l-53 -51zM358 887l54 53l53 -53l-53 -53zM358 1303l54 53l53 -53l-53 -54zM567 53l51 58l56 -58l-56 -51zM567 887l51 53l56 -53l-56 -53z M567 1303l51 53l56 -53l-56 -54zM774 53q8 8 53 58l54 -58l-54 -51zM774 887l53 53l54 -53l-54 -53zM774 1509l53 56l54 -56l-54 -51zM983 262q20 20 51 57l56 -57l-56 -51zM983 471l51 53l56 -53l-56 -53zM983 678l51 55l56 -55l-56 -51z" />
<glyph unicode="&#xf4;" d="M152 262l51 57l53 -57l-53 -51zM152 471l51 53l53 -53l-53 -53zM152 678l51 55l53 -55l-53 -51zM358 53q8 8 54 58l53 -58l-53 -51zM358 887l54 53l53 -53l-53 -53zM358 1303l54 53l53 -53l-53 -54zM567 53l51 58l56 -58l-56 -51zM567 887l51 53l56 -53l-56 -53z M567 1509l51 56l56 -56l-56 -51zM774 53q8 8 53 58l54 -58l-54 -51zM774 887l53 53l54 -53l-54 -53zM774 1303l53 53l54 -53l-54 -54zM983 262q20 20 51 57l56 -57l-56 -51zM983 471l51 53l56 -53l-56 -53zM983 678l51 55l56 -55l-56 -51z" />
<glyph unicode="&#xf5;" d="M152 262l51 57l53 -57l-53 -51zM152 471l51 53l53 -53l-53 -53zM152 678l51 55l53 -55l-53 -51zM152 1303l51 53l53 -53l-53 -54zM358 53q8 8 54 58l53 -58l-53 -51zM358 887l54 53l53 -53l-53 -53zM358 1509l54 56l53 -56l-53 -51zM567 53l51 58l56 -58l-56 -51z M567 887l51 53l56 -53l-56 -53zM567 1303l51 53l56 -53l-56 -54zM774 53q8 8 53 58l54 -58l-54 -51zM774 887l53 53l54 -53l-54 -53zM774 1303l53 53l54 -53l-54 -54zM983 262q20 20 51 57l56 -57l-56 -51zM983 471l51 53l56 -53l-56 -53zM983 678l51 55l56 -55l-56 -51z M983 1509l51 56l56 -56l-56 -51z" />
<glyph unicode="&#xf6;" d="M152 262l51 57l53 -57l-53 -51zM152 471l51 53l53 -53l-53 -53zM152 678l51 55l53 -55l-53 -51zM152 1303l51 53l53 -53l-53 -54zM152 1509l51 56l53 -56l-53 -51zM358 53q8 8 54 58l53 -58l-53 -51zM358 887l54 53l53 -53l-53 -53zM567 53l51 58l56 -58l-56 -51z M567 887l51 53l56 -53l-56 -53zM774 53q8 8 53 58l54 -58l-54 -51zM774 887l53 53l54 -53l-54 -53zM983 262q20 20 51 57l56 -57l-56 -51zM983 471l51 53l56 -53l-56 -53zM983 678l51 55l56 -55l-56 -51zM983 1303l51 53l56 -53l-56 -54zM983 1509l51 56l56 -56l-56 -51z " />
<glyph unicode="&#xf7;" d="M49 471l51 53l54 -53l-54 -53zM256 471l53 53l53 -53l-53 -53zM465 53l51 58l55 -58l-55 -51zM465 471l51 53l55 -53l-55 -53zM465 887l51 53l55 -53l-55 -53zM672 471l53 53l53 -53l-53 -53zM881 471l51 53l55 -53l-55 -53z" />
<glyph unicode="&#xf8;" d="M49 262l51 57l54 -57l-54 -51zM49 471l51 53l54 -53l-54 -53zM49 678l51 55l54 -55l-54 -51zM51 -154q49 53 51 56l54 -56l-54 -53zM256 53q8 8 53 58l53 -58l-53 -51zM256 262q8 8 53 57l53 -57l-53 -51zM256 887l53 53l53 -53l-53 -53zM465 53l51 58l55 -58l-55 -51z M465 471l51 53l55 -53l-55 -53zM465 887l51 53l55 -53l-55 -53zM672 53q8 8 53 58l53 -58l-53 -51zM672 678l53 55l53 -55l-53 -51zM672 887l53 53l53 -53l-53 -53zM881 262q20 20 51 57l55 -57l-55 -51zM881 471l51 53l55 -53l-55 -53zM881 678l51 55l55 -55l-55 -51z M881 1094l51 55l55 -55l-55 -52z" />
<glyph unicode="&#xf9;" d="M152 262l51 57l53 -57l-53 -51zM152 471l51 53l53 -53l-53 -53zM152 678l51 55l53 -55l-53 -51zM152 887l51 53l53 -53l-53 -53zM356 1509l54 56l53 -56l-53 -51zM358 53q8 8 54 58l53 -58l-53 -51zM565 1303l51 53l56 -53l-56 -54zM567 53l51 58l56 -58l-56 -51z M772 1303l53 53l54 -53l-54 -54zM774 262q8 8 53 57l54 -57l-54 -51zM983 53q20 20 51 58l56 -58l-56 -51zM983 262q20 20 51 57l56 -57l-56 -51zM983 471l51 53l56 -53l-56 -53zM983 678l51 55l56 -55l-56 -51zM983 887l51 53l56 -53l-56 -53z" />
<glyph unicode="&#xfa;" d="M152 262l51 57l53 -57l-53 -51zM152 471l51 53l53 -53l-53 -53zM152 678l51 55l53 -55l-53 -51zM152 887l51 53l53 -53l-53 -53zM358 53q8 8 54 58l53 -58l-53 -51zM358 1303l54 53l53 -53l-53 -54zM567 53l51 58l56 -58l-56 -51zM567 1303l51 53l56 -53l-56 -54z M774 262q8 8 53 57l54 -57l-54 -51zM774 1509l53 56l54 -56l-54 -51zM983 53q20 20 51 58l56 -58l-56 -51zM983 262q20 20 51 57l56 -57l-56 -51zM983 471l51 53l56 -53l-56 -53zM983 678l51 55l56 -55l-56 -51zM983 887l51 53l56 -53l-56 -53z" />
<glyph unicode="&#xfb;" d="M152 262l51 57l53 -57l-53 -51zM152 471l51 53l53 -53l-53 -53zM152 678l51 55l53 -55l-53 -51zM152 887l51 53l53 -53l-53 -53zM358 53q8 8 54 58l53 -58l-53 -51zM358 1303l54 53l53 -53l-53 -54zM567 53l51 58l56 -58l-56 -51zM567 1509l51 56l56 -56l-56 -51z M774 262q8 8 53 57l54 -57l-54 -51zM774 1303l53 53l54 -53l-54 -54zM983 53q20 20 51 58l56 -58l-56 -51zM983 262q20 20 51 57l56 -57l-56 -51zM983 471l51 53l56 -53l-56 -53zM983 678l51 55l56 -55l-56 -51zM983 887l51 53l56 -53l-56 -53z" />
<glyph unicode="&#xfc;" d="M152 262l51 57l53 -57l-53 -51zM152 471l51 53l53 -53l-53 -53zM152 678l51 55l53 -55l-53 -51zM152 887l51 53l53 -53l-53 -53zM152 1303l51 53l53 -53l-53 -54zM152 1509l51 56l53 -56l-53 -51zM358 53q8 8 54 58l53 -58l-53 -51zM567 53l51 58l56 -58l-56 -51z M774 262q8 8 53 57l54 -57l-54 -51zM983 53q20 20 51 58l56 -58l-56 -51zM983 262q20 20 51 57l56 -57l-56 -51zM983 471l51 53l56 -53l-56 -53zM983 678l51 55l56 -55l-56 -51zM983 887l51 53l56 -53l-56 -53zM983 1303l51 53l56 -53l-56 -54zM983 1509l51 56l56 -56 l-56 -51z" />
<glyph unicode="&#xfd;" d="M152 -362l51 57l53 -57l-53 -52zM152 678l51 55l53 -55l-53 -51zM152 887l51 53l53 -53l-53 -53zM358 262q8 8 54 57l53 -57l-53 -51zM358 -362q8 8 54 57l53 -57l-53 -52zM358 471l54 53l53 -53l-53 -53zM358 1303l54 53l53 -53l-53 -54zM567 53l51 58l56 -58l-56 -51z M567 -154l51 56l56 -56l-56 -53zM567 1303l51 53l56 -53l-56 -54zM774 262q8 8 53 57l54 -57l-54 -51zM774 471l53 53l54 -53l-54 -53zM774 1509l53 56l54 -56l-54 -51zM983 678l51 55l56 -55l-56 -51zM983 887l51 53l56 -53l-56 -53z" />
<glyph unicode="&#xfe;" d="M49 53l51 58l54 -58l-54 -51zM49 -154q49 53 51 56l54 -56l-54 -53zM49 262l51 57l54 -57l-54 -51zM49 -362l51 57l54 -57l-54 -52zM49 471l51 53l54 -53l-54 -53zM49 678l51 55l54 -55l-54 -51zM49 887l51 53l54 -53l-54 -53zM49 1094l51 55l54 -55l-54 -52zM49 1303 l51 53l54 -53l-54 -54zM256 53q8 8 53 58l53 -58l-53 -51zM256 887l53 53l53 -53l-53 -53zM465 53l51 58l55 -58l-55 -51zM465 887l51 53l55 -53l-55 -53zM672 53q8 8 53 58l53 -58l-53 -51zM672 887l53 53l53 -53l-53 -53zM881 262q20 20 51 57l55 -57l-55 -51zM881 471 l51 53l55 -53l-55 -53zM881 678l51 55l55 -55l-55 -51z" />
<glyph unicode="&#xff;" d="M152 -362l51 57l53 -57l-53 -52zM152 678l51 55l53 -55l-53 -51zM152 887l51 53l53 -53l-53 -53zM152 1303l51 53l53 -53l-53 -54zM152 1509l51 56l53 -56l-53 -51zM358 262q8 8 54 57l53 -57l-53 -51zM358 -362q8 8 54 57l53 -57l-53 -52zM358 471l54 53l53 -53l-53 -53 zM567 53l51 58l56 -58l-56 -51zM567 -154l51 56l56 -56l-56 -53zM774 262q8 8 53 57l54 -57l-54 -51zM774 471l53 53l54 -53l-54 -53zM983 678l51 55l56 -55l-56 -51zM983 887l51 53l56 -53l-56 -53zM983 1303l51 53l56 -53l-56 -54zM983 1509l51 56l56 -56l-56 -51z" />
<glyph unicode="&#x152;" d="M47 262l53 55l56 -55l-56 -53zM47 469l53 55l56 -55l-56 -53zM47 676l53 55l56 -55l-56 -53zM47 883l53 55l56 -55q-20 -23 -56 -52zM47 1087l53 58l56 -58q-18 -18 -56 -49zM256 55q10 10 51 56l55 -56l-55 -53zM256 1296l51 54l55 -54l-55 -53zM463 55l51 56l55 -56 l-55 -53zM463 262q10 10 51 55l55 -55l-55 -53zM463 469q31 31 51 55l55 -55l-55 -53zM463 676q31 31 51 55l55 -55l-55 -53zM463 883q31 31 51 55l55 -55q-10 -10 -55 -52zM463 1087l51 58l55 -58l-55 -49zM463 1296l51 54l55 -54l-55 -53zM670 55l53 56l53 -56l-53 -53z M670 676l53 55l53 -55l-53 -53zM670 1296l53 54l53 -54l-53 -53zM877 55l53 56l53 -56l-53 -53zM877 1296l53 54l53 -54l-53 -53z" />
<glyph unicode="&#x153;" d="M49 262l51 57l54 -57l-54 -51zM49 471l51 53l54 -53l-54 -53zM49 678l51 55l54 -55l-54 -51zM256 53q8 8 53 58l53 -58l-53 -51zM256 887l53 53l53 -53l-53 -53zM465 262l51 57l55 -57l-55 -51zM465 471l51 53l55 -53l-55 -53zM465 678l51 55l55 -55l-55 -51zM672 53 q8 8 53 58l53 -58l-53 -51zM672 471l53 53l53 -53l-53 -53zM672 887l53 53l53 -53l-53 -53zM881 53q20 20 51 58l55 -58l-55 -51zM881 471l51 53l55 -53l-55 -53zM881 678l51 55l55 -55l-55 -51z" />
<glyph unicode="&#x178;" d="M150 883l53 55l55 -55q-20 -23 -55 -52zM150 1087l53 58l55 -58q-18 -18 -55 -49zM150 1296l53 54l55 -54l-55 -53zM152 1763l51 54l53 -54l-53 -53zM152 1970l51 55l53 -55l-53 -51zM358 676q23 20 52 55l55 -55l-55 -53zM565 55l51 56l56 -56l-56 -53zM565 262 q10 10 51 55l56 -55l-56 -53zM565 469q31 31 51 55l56 -55l-56 -53zM772 676l53 55l54 -55l-54 -53zM979 883l53 55l53 -55l-53 -52zM979 1087l53 58l53 -58l-53 -49zM979 1296l53 54l53 -54l-53 -53zM983 1763l51 54l56 -54l-56 -53zM983 1970l51 55l56 -55l-56 -51z" />
<glyph unicode="&#x2c6;" d="M256 1303l53 53l53 -53l-53 -54zM465 1509l51 56l55 -56l-55 -51zM672 1303l53 53l53 -53l-53 -54z" />
<glyph unicode="&#x2dc;" d="M49 1303l51 53l54 -53l-54 -54zM256 1509l53 56l53 -56l-53 -51zM465 1303l51 53l55 -53l-55 -54zM672 1303l53 53l53 -53l-53 -54zM881 1509l51 56l55 -56l-55 -51z" />
<glyph unicode="&#x2000;" horiz-adv-x="1116" />
<glyph unicode="&#x2001;" horiz-adv-x="2232" />
<glyph unicode="&#x2002;" horiz-adv-x="1116" />
<glyph unicode="&#x2003;" horiz-adv-x="2232" />
<glyph unicode="&#x2004;" horiz-adv-x="743" />
<glyph unicode="&#x2005;" horiz-adv-x="557" />
<glyph unicode="&#x2006;" horiz-adv-x="370" />
<glyph unicode="&#x2007;" horiz-adv-x="370" />
<glyph unicode="&#x2008;" horiz-adv-x="278" />
<glyph unicode="&#x2009;" horiz-adv-x="446" />
<glyph unicode="&#x200a;" horiz-adv-x="122" />
<glyph unicode="&#x2010;" d="M256 471l53 53l53 -53l-53 -53zM465 471l51 53l55 -53l-55 -53zM672 471l53 53l53 -53l-53 -53z" />
<glyph unicode="&#x2011;" d="M256 471l53 53l53 -53l-53 -53zM465 471l51 53l55 -53l-55 -53zM672 471l53 53l53 -53l-53 -53z" />
<glyph unicode="&#x2012;" d="M256 471l53 53l53 -53l-53 -53zM465 471l51 53l55 -53l-55 -53zM672 471l53 53l53 -53l-53 -53z" />
<glyph unicode="&#x2013;" d="M256 471l53 53l53 -53l-53 -53zM465 471l51 53l55 -53l-55 -53zM672 471l53 53l53 -53l-53 -53z" />
<glyph unicode="&#x2014;" d="M49 471l51 53l54 -53l-54 -53zM256 471l53 53l53 -53l-53 -53zM465 471l51 53l55 -53l-55 -53zM672 471l53 53l53 -53l-53 -53zM881 471l51 53l55 -53l-55 -53z" />
<glyph unicode="&#x2018;" d="M463 887l53 53l53 -53l-53 -53zM463 1094l53 55l53 -55l-53 -52zM672 1303l51 53l55 -53l-55 -54z" />
<glyph unicode="&#x2019;" d="M463 887l53 53l53 -53l-53 -53zM672 1094l51 55l55 -55l-55 -52zM672 1303l51 53l55 -53l-55 -54z" />
<glyph unicode="&#x201a;" d="M463 -154l53 56l53 -56l-53 -53zM672 53q20 20 51 58l55 -58l-55 -51zM672 262q20 20 51 57l55 -57l-55 -51z" />
<glyph unicode="&#x201c;" d="M256 887l51 53l55 -53l-55 -53zM256 1094l51 55l55 -55l-55 -52zM463 1303l53 53l53 -53l-53 -54zM672 887l51 53l55 -53l-55 -53zM672 1094l51 55l55 -55l-55 -52zM879 1303l53 53l53 -53l-53 -54z" />
<glyph unicode="&#x201d;" d="M256 887l51 53l55 -53l-55 -53zM463 1094l53 55l53 -55l-53 -52zM463 1303l53 53l53 -53l-53 -54zM672 887l51 53l55 -53l-55 -53zM879 1094l53 55l53 -55l-53 -52zM879 1303l53 53l53 -53l-53 -54z" />
<glyph unicode="&#x201e;" d="M256 -154l51 56l55 -56l-55 -53zM463 53q8 8 53 58l53 -58l-53 -51zM463 262q8 8 53 57l53 -57l-53 -51zM672 -154q10 10 51 56l55 -56l-55 -53zM879 53q8 8 53 58l53 -58l-53 -51zM879 262q8 8 53 57l53 -57l-53 -51z" />
<glyph unicode="&#x2022;" d="M49 471l53 53l54 -53l-54 -53zM49 678l53 55l54 -55l-54 -51zM49 887l53 53l54 -53l-54 -53zM258 471l51 53l56 -53l-56 -53zM258 678l51 55l56 -55l-56 -51zM258 887l51 53l56 -53l-56 -53zM465 471l53 53l53 -53l-53 -53zM465 678l53 55l53 -55l-53 -51zM465 887l53 53 l53 -53l-53 -53z" />
<glyph unicode="&#x2026;" d="M49 53l51 58l54 -58l-54 -51zM49 262l51 57l54 -57l-54 -51zM465 53l51 58l55 -58l-55 -51zM465 262l51 57l55 -57l-55 -51zM881 53q20 20 51 58l55 -58l-55 -51zM881 262q20 20 51 57l55 -57l-55 -51z" />
<glyph unicode="&#x202f;" horiz-adv-x="446" />
<glyph unicode="&#x2039;" d="M256 471l53 53l53 -53l-53 -53zM465 262l51 57l55 -57l-55 -51zM465 678l51 55l55 -55l-55 -51zM672 53q8 8 53 58l53 -58l-53 -51zM672 887l53 53l53 -53l-53 -53z" />
<glyph unicode="&#x203a;" d="M463 53q20 20 51 58l55 -58l-55 -51zM463 887l51 53l55 -53l-55 -53zM672 262l51 57l53 -57l-53 -51zM672 678l51 55l53 -55l-53 -51zM879 471l51 53l55 -53l-55 -53z" />
<glyph unicode="&#x205f;" horiz-adv-x="557" />
<glyph unicode="&#x20ac;" d="M49 471l51 53l54 -53l-54 -53zM49 887l51 53l54 -53l-54 -53zM256 262q8 8 53 57l53 -57l-53 -51zM256 471l53 53l53 -53l-53 -53zM256 678l53 55l53 -55l-53 -51zM256 887l53 53l53 -53l-53 -53zM256 1094l53 55l53 -55l-53 -52zM465 53l51 58l55 -58l-55 -51zM465 471 l51 53l55 -53l-55 -53zM465 887l51 53l55 -53l-55 -53zM465 1303l51 53l55 -53l-55 -54zM672 53q8 8 53 58l53 -58l-53 -51zM672 887l53 53l53 -53l-53 -53zM672 1303l53 53l53 -53l-53 -54zM881 53q20 20 51 58l55 -58l-55 -51zM881 1303l51 53l55 -53l-55 -54z" />
<glyph unicode="&#x2122;" d="M47 1303l53 53l54 -53l-54 -54zM256 887l51 53l55 -53l-55 -53zM256 1094l51 55l55 -55l-55 -52zM256 1303l51 53l55 -53l-55 -54zM463 1303l53 53l53 -53l-53 -54zM672 887l51 53l55 -53l-55 -53zM672 1094l51 55l55 -55l-55 -52zM672 1303l51 53l55 -53l-55 -54z M879 1094l53 55l53 -55l-53 -52zM1087 887l52 53l55 -53l-55 -53zM1087 1094l52 55l55 -55l-55 -52zM1087 1303l52 53l55 -53l-55 -54z" />
<glyph unicode="&#xe000;" horiz-adv-x="940" d="M0 940h940v-940h-940v940z" />
<glyph unicode="&#xfb01;" horiz-adv-x="2457" d="M1278 53l51 58l54 -58l-54 -51zM1278 887l51 53l54 -53l-54 -53zM1485 53q8 8 53 58l53 -58l-53 -51zM1485 887l53 53l53 -53l-53 -53zM1694 53l51 58l55 -58l-55 -51zM1694 262l51 57l55 -57l-55 -51zM1694 471l51 53l55 -53l-55 -53zM1694 678l51 55l55 -55l-55 -51z M1694 887l51 53l55 -53l-55 -53zM1694 1303l51 53l55 -53l-55 -54zM1901 53q8 8 53 58l53 -58l-53 -51zM2110 53q20 20 51 58l55 -58l-55 -51zM49 53l51 58l54 -58l-54 -51zM256 53q8 8 53 58l53 -58l-53 -51zM256 887l53 53l53 -53l-53 -53zM465 53l51 58l55 -58l-55 -51z M465 262l51 57l55 -57l-55 -51zM465 471l51 53l55 -53l-55 -53zM465 678l51 55l55 -55l-55 -51zM465 887l51 53l55 -53l-55 -53zM465 1094l51 55l55 -55l-55 -52zM672 53q8 8 53 58l53 -58l-53 -51zM672 887l53 53l53 -53l-53 -53zM672 1303l53 53l53 -53l-53 -54zM881 53 q20 20 51 58l55 -58l-55 -51zM881 887l51 53l55 -53l-55 -53zM881 1303l51 53l55 -53l-55 -54z" />
<glyph unicode="&#xfb02;" horiz-adv-x="2457" d="M1278 53l51 58l54 -58l-54 -51zM1278 1303l51 53l54 -53l-54 -54zM1485 53q8 8 53 58l53 -58l-53 -51zM1485 1303l53 53l53 -53l-53 -54zM1694 53l51 58l55 -58l-55 -51zM1694 262l51 57l55 -57l-55 -51zM1694 471l51 53l55 -53l-55 -53zM1694 678l51 55l55 -55l-55 -51z M1694 887l51 53l55 -53l-55 -53zM1694 1094l51 55l55 -55l-55 -52zM1694 1303l51 53l55 -53l-55 -54zM1901 53q8 8 53 58l53 -58l-53 -51zM2110 53q20 20 51 58l55 -58l-55 -51zM49 53l51 58l54 -58l-54 -51zM256 53q8 8 53 58l53 -58l-53 -51zM256 887l53 53l53 -53 l-53 -53zM465 53l51 58l55 -58l-55 -51zM465 262l51 57l55 -57l-55 -51zM465 471l51 53l55 -53l-55 -53zM465 678l51 55l55 -55l-55 -51zM465 887l51 53l55 -53l-55 -53zM465 1094l51 55l55 -55l-55 -52zM672 53q8 8 53 58l53 -58l-53 -51zM672 887l53 53l53 -53l-53 -53z M672 1303l53 53l53 -53l-53 -54zM881 53q20 20 51 58l55 -58l-55 -51zM881 887l51 53l55 -53l-55 -53zM881 1303l51 53l55 -53l-55 -54z" />
<glyph unicode="&#xfb03;" horiz-adv-x="3686" d="M2507 53l51 58l54 -58l-54 -51zM2507 887l51 53l54 -53l-54 -53zM2714 53q8 8 53 58l53 -58l-53 -51zM2714 887l53 53l53 -53l-53 -53zM2923 53l51 58l55 -58l-55 -51zM2923 262l51 57l55 -57l-55 -51zM2923 471l51 53l55 -53l-55 -53zM2923 678l51 55l55 -55l-55 -51z M2923 887l51 53l55 -53l-55 -53zM2923 1303l51 53l55 -53l-55 -54zM3130 53q8 8 53 58l53 -58l-53 -51zM3339 53q20 20 51 58l55 -58l-55 -51zM1278 53l51 58l54 -58l-54 -51zM1485 53q8 8 53 58l53 -58l-53 -51zM1485 887l53 53l53 -53l-53 -53zM1694 53l51 58l55 -58 l-55 -51zM1694 262l51 57l55 -57l-55 -51zM1694 471l51 53l55 -53l-55 -53zM1694 678l51 55l55 -55l-55 -51zM1694 887l51 53l55 -53l-55 -53zM1694 1094l51 55l55 -55l-55 -52zM1901 53q8 8 53 58l53 -58l-53 -51zM1901 887l53 53l53 -53l-53 -53zM1901 1303l53 53l53 -53 l-53 -54zM2110 53q20 20 51 58l55 -58l-55 -51zM2110 887l51 53l55 -53l-55 -53zM2110 1303l51 53l55 -53l-55 -54zM49 53l51 58l54 -58l-54 -51zM256 53q8 8 53 58l53 -58l-53 -51zM256 887l53 53l53 -53l-53 -53zM465 53l51 58l55 -58l-55 -51zM465 262l51 57l55 -57 l-55 -51zM465 471l51 53l55 -53l-55 -53zM465 678l51 55l55 -55l-55 -51zM465 887l51 53l55 -53l-55 -53zM465 1094l51 55l55 -55l-55 -52zM672 53q8 8 53 58l53 -58l-53 -51zM672 887l53 53l53 -53l-53 -53zM672 1303l53 53l53 -53l-53 -54zM881 53q20 20 51 58l55 -58 l-55 -51zM881 887l51 53l55 -53l-55 -53zM881 1303l51 53l55 -53l-55 -54z" />
<glyph unicode="&#xfb04;" horiz-adv-x="3686" d="M2507 53l51 58l54 -58l-54 -51zM2507 1303l51 53l54 -53l-54 -54zM2714 53q8 8 53 58l53 -58l-53 -51zM2714 1303l53 53l53 -53l-53 -54zM2923 53l51 58l55 -58l-55 -51zM2923 262l51 57l55 -57l-55 -51zM2923 471l51 53l55 -53l-55 -53zM2923 678l51 55l55 -55l-55 -51z M2923 887l51 53l55 -53l-55 -53zM2923 1094l51 55l55 -55l-55 -52zM2923 1303l51 53l55 -53l-55 -54zM3130 53q8 8 53 58l53 -58l-53 -51zM3339 53q20 20 51 58l55 -58l-55 -51zM1278 53l51 58l54 -58l-54 -51zM1485 53q8 8 53 58l53 -58l-53 -51zM1485 887l53 53l53 -53 l-53 -53zM1694 53l51 58l55 -58l-55 -51zM1694 262l51 57l55 -57l-55 -51zM1694 471l51 53l55 -53l-55 -53zM1694 678l51 55l55 -55l-55 -51zM1694 887l51 53l55 -53l-55 -53zM1694 1094l51 55l55 -55l-55 -52zM1901 53q8 8 53 58l53 -58l-53 -51zM1901 887l53 53l53 -53 l-53 -53zM1901 1303l53 53l53 -53l-53 -54zM2110 53q20 20 51 58l55 -58l-55 -51zM2110 887l51 53l55 -53l-55 -53zM2110 1303l51 53l55 -53l-55 -54zM49 53l51 58l54 -58l-54 -51zM256 53q8 8 53 58l53 -58l-53 -51zM256 887l53 53l53 -53l-53 -53zM465 53l51 58l55 -58 l-55 -51zM465 262l51 57l55 -57l-55 -51zM465 471l51 53l55 -53l-55 -53zM465 678l51 55l55 -55l-55 -51zM465 887l51 53l55 -53l-55 -53zM465 1094l51 55l55 -55l-55 -52zM672 53q8 8 53 58l53 -58l-53 -51zM672 887l53 53l53 -53l-53 -53zM672 1303l53 53l53 -53l-53 -54z M881 53q20 20 51 58l55 -58l-55 -51zM881 887l51 53l55 -53l-55 -53zM881 1303l51 53l55 -53l-55 -54z" />
</font>
</defs>
</svg>
