<?xml version="1.0" standalone="no"?>
<!DOCTYPE svg PUBLIC "-//W3C//DTD SVG 1.1//EN" "http://www.w3.org/Graphics/SVG/1.1/DTD/svg11.dtd" >
<svg xmlns="http://www.w3.org/2000/svg">
<metadata>
This is a custom SVG webfont generated by Font Squirrel.
Copyright   : Copyright c 2007 by George Triantafyllakos All rights reserved
Designer    : George Triantafyllakos
Foundry     : George Triantafyllakos
Foundry URL : httpwwwbackpackergr
</metadata>
<defs>
<font id="webfontBxqKevb7" horiz-adv-x="1228" >
<font-face units-per-em="2048" ascent="1638" descent="-410" />
<missing-glyph horiz-adv-x="500" />
<glyph unicode=" " />
<glyph unicode="!" d="M373 49v103h200v-103h-200zM373 242v102h200v-102h-200zM373 629v102h200v-102h-200zM373 821v103h200v-103h-200zM373 1016v102h200v-102h-200zM373 1208v103h200v-103h-200z" />
<glyph unicode="&#x22;" d="M332 821v103h198v-103h-198zM526 1016v102h199v-102h-199zM526 1208v103h199v-103h-199zM719 821v103h199v-103h-199zM911 1016v102h201v-102h-201zM911 1208v103h201v-103h-201z" />
<glyph unicode="#" d="M-14 434v105h972v-105h-972zM-14 821v103h972v-103h-972zM180 49v103h199v-103h-199zM180 242v102h199v-102h-199zM180 629v102h199v-102h-199zM180 1016v102h199v-102h-199zM180 1208v103h199v-103h-199zM567 49v103h199v-103h-199zM567 242v102h199v-102h-199zM567 629 v102h199v-102h-199zM567 1016v102h199v-102h-199zM567 1208v103h199v-103h-199z" />
<glyph unicode="$" d="M-14 49v103h780v-103h-780zM-14 629v102h200v-102h-200zM180 434v105h586v-105h-586zM180 821v103h778v-103h-778zM373 -43h200v-102h-200v102zM373 242v102h200v-102h-200zM373 629v102h200v-102h-200zM373 1016v102h200v-102h-200zM760 242v102h198v-102h-198z" />
<glyph unicode="%" d="M-16 49v103h198v-103h-198zM-16 242v102h198v-102h-198zM-16 1016v102h393v-102h-393zM-16 1208v103h393v-103h-393zM176 434v105h201v-105h-201zM176 629v102h201v-102h-201zM371 49v103h393v-103h-393zM371 242v102h393v-102h-393zM371 821v103h198v-103h-198z M563 1016v102h201v-102h-201zM563 1208v103h201v-103h-201z" />
<glyph unicode="&#x26;" d="M-14 242v102h200v-102h-200zM-14 434v105h200v-105h-200zM-14 821v103h200v-103h-200zM-14 1016v102h200v-102h-200zM180 49v103h393v-103h-393zM180 629v102h778v-102h-778zM180 1208v103h393v-103h-393zM567 242v102h199v-102h-199zM567 434v105h199v-105h-199z" />
<glyph unicode="'" d="M526 821v103h199v-103h-199zM719 1016v102h199v-102h-199zM719 1208v103h199v-103h-199z" />
<glyph unicode="(" d="M377 242v102h198v-102h-198zM377 434v105h198v-105h-198zM377 629v102h198v-102h-198zM377 821v103h198v-103h-198zM377 1016v102h198v-102h-198zM569 49v103h199v-103h-199zM569 1208v103h199v-103h-199z" />
<glyph unicode=")" d="M377 49v103h198v-103h-198zM377 1208v103h198v-103h-198zM569 242v102h199v-102h-199zM569 434v105h199v-105h-199zM569 629v102h199v-102h-199zM569 821v103h199v-103h-199zM569 1016v102h199v-102h-199z" />
<glyph unicode="*" d="M-18 821v103h198v-103h-198zM-18 1208v103h198v-103h-198zM174 1016v102h199v-102h-199zM367 821v103h200v-103h-200zM367 1208v103h200v-103h-200z" />
<glyph unicode="+" d="M-14 434v105h972v-105h-972zM373 49v103h200v-103h-200zM373 242v102h200v-102h-200zM373 629v102h200v-102h-200zM373 821v103h200v-103h-200z" />
<glyph unicode="," d="M176 -43h201v-102h-201v102zM371 49v103h198v-103h-198zM371 242v102h198v-102h-198z" />
<glyph unicode="-" d="M180 434v105h586v-105h-586z" />
<glyph unicode="." d="M373 49v103h200v-103h-200zM373 242v102h200v-102h-200z" />
<glyph unicode="/" d="M182 49v103h199v-103h-199zM182 242v102h199v-102h-199zM377 434v105h198v-105h-198zM377 629v102h198v-102h-198zM569 821v103h199v-103h-199zM764 1016v102h199v-102h-199zM764 1208v103h199v-103h-199z" />
<glyph unicode="0" d="M-14 242v102h393v-102h-393zM-14 434v105h200v-105h-200zM-14 629v102h200v-102h-200zM180 49v103h586v-103h-586zM180 821v103h586v-103h-586zM373 434v105h200v-105h-200zM567 629v102h391v-102h-391zM760 242v102h198v-102h-198zM760 434v105h198v-105h-198z" />
<glyph unicode="1" d="M-14 49v103h972v-103h-972zM-14 821v103h587v-103h-587zM373 242v102h200v-102h-200zM373 434v105h200v-105h-200zM373 629v102h200v-102h-200z" />
<glyph unicode="2" d="M-14 49v103h972v-103h-972zM-14 629v102h200v-102h-200zM180 242v102h199v-102h-199zM180 821v103h586v-103h-586zM373 434v105h393v-105h-393zM760 629v102h198v-102h-198z" />
<glyph unicode="3" d="M-14 -43h200v-102h-200v102zM-14 629v102h200v-102h-200zM180 -236h586v-102h-586v102zM180 242v102h586v-102h-586zM180 821v103h586v-103h-586zM760 -43h198v-102h-198v102zM760 49v103h198v-103h-198zM760 434v105h198v-105h-198zM760 629v102h198v-102h-198z" />
<glyph unicode="4" d="M-14 49v103h972v-103h-972zM-14 242v102h200v-102h-200zM180 434v105h199v-105h-199zM373 629v102h393v-102h-393zM567 -43h199v-102h-199v102zM567 -236h199v-102h-199v102zM567 242v102h199v-102h-199zM567 434v105h199v-105h-199zM567 821v103h199v-103h-199z" />
<glyph unicode="5" d="M-14 -236h780v-102h-780v102zM-14 242v102h780v-102h-780zM-14 434v105h200v-105h-200zM-14 629v102h200v-102h-200zM-14 821v103h972v-103h-972zM760 -43h198v-102h-198v102zM760 49v103h198v-103h-198z" />
<glyph unicode="6" d="M-14 242v102h200v-102h-200zM-14 434v105h200v-105h-200zM-14 629v102h780v-102h-780zM-14 821v103h200v-103h-200zM180 49v103h586v-103h-586zM180 1016v102h199v-102h-199zM373 1208v103h393v-103h-393zM760 242v102h198v-102h-198zM760 434v105h198v-105h-198z" />
<glyph unicode="7" d="M-14 821v103h972v-103h-972zM180 -43h199v-102h-199v102zM180 49v103h199v-103h-199zM180 -236h199v-102h-199v102zM373 242v102h200v-102h-200zM567 434v105h199v-105h-199zM760 629v102h198v-102h-198z" />
<glyph unicode="8" d="M-14 242v102h200v-102h-200zM-14 434v105h200v-105h-200zM-14 821v103h200v-103h-200zM-14 1016v102h200v-102h-200zM180 49v103h586v-103h-586zM180 629v102h586v-102h-586zM180 1208v103h586v-103h-586zM760 242v102h198v-102h-198zM760 434v105h198v-105h-198z M760 821v103h198v-103h-198zM760 1016v102h198v-102h-198z" />
<glyph unicode="9" d="M-14 434v105h200v-105h-200zM-14 629v102h200v-102h-200zM180 -236h393v-102h-393v102zM180 242v102h778v-102h-778zM180 821v103h586v-103h-586zM567 -43h199v-102h-199v102zM760 49v103h198v-103h-198zM760 434v105h198v-105h-198zM760 629v102h198v-102h-198z" />
<glyph unicode=":" d="M373 49v103h200v-103h-200zM373 242v102h200v-102h-200zM373 629v102h200v-102h-200zM373 821v103h200v-103h-200z" />
<glyph unicode=";" d="M176 -43h201v-102h-201v102zM371 49v103h198v-103h-198zM371 242v102h198v-102h-198zM371 629v102h198v-102h-198zM371 821v103h198v-103h-198z" />
<glyph unicode="&#x3c;" d="M180 434v105h199v-105h-199zM373 242v102h200v-102h-200zM373 629v102h200v-102h-200zM567 49v103h199v-103h-199zM567 821v103h199v-103h-199z" />
<glyph unicode="=" d="M-14 242v102h972v-102h-972zM-14 629v102h972v-102h-972z" />
<glyph unicode="&#x3e;" d="M379 49v103h199v-103h-199zM379 821v103h199v-103h-199zM571 242v102h201v-102h-201zM571 629v102h201v-102h-201zM766 434v105h199v-105h-199z" />
<glyph unicode="?" d="M-14 1016v102h200v-102h-200zM180 1208v103h586v-103h-586zM373 49v103h200v-103h-200zM373 242v102h200v-102h-200zM373 629v102h393v-102h-393zM760 821v103h198v-103h-198zM760 1016v102h198v-102h-198z" />
<glyph unicode="@" d="M-14 242v102h200v-102h-200zM-14 434v105h972v-105h-972zM-14 629v102h393v-102h-393zM-14 821v103h200v-103h-200zM-14 1016v102h200v-102h-200zM180 49v103h778v-103h-778zM180 1208v103h586v-103h-586zM373 821v103h585v-103h-585zM567 629v102h391v-102h-391z M760 1016v102h198v-102h-198z" />
<glyph unicode="A" d="M-18 49v105h202v-105h-202zM-18 246v104h202v-104h-202zM-18 442v105h989v-105h-989zM-18 639v104h202v-104h-202zM-18 836v104h202v-104h-202zM-18 1032v105h202v-105h-202zM178 1229v104h596v-104h-596zM768 49v105h203v-105h-203zM768 246v104h203v-104h-203zM768 639 v104h203v-104h-203zM768 836v104h203v-104h-203zM768 1032v105h203v-105h-203z" />
<glyph unicode="B" d="M-18 49v105h792v-105h-792zM-18 246v104h202v-104h-202zM-18 442v105h202v-105h-202zM-18 639v104h792v-104h-792zM-18 836v104h202v-104h-202zM-18 1032v105h202v-105h-202zM-18 1229v104h792v-104h-792zM768 246v104h203v-104h-203zM768 442v105h203v-105h-203z M768 836v104h203v-104h-203zM768 1032v105h203v-105h-203z" />
<glyph unicode="C" d="M-18 246v104h202v-104h-202zM-18 442v105h202v-105h-202zM-18 639v104h202v-104h-202zM-18 836v104h202v-104h-202zM-18 1032v105h202v-105h-202zM178 49v105h596v-105h-596zM178 1229v104h596v-104h-596zM768 246v104h203v-104h-203zM768 1032v105h203v-105h-203z" />
<glyph unicode="D" d="M-18 49v105h792v-105h-792zM-18 246v104h202v-104h-202zM-18 442v105h202v-105h-202zM-18 639v104h202v-104h-202zM-18 836v104h202v-104h-202zM-18 1032v105h202v-105h-202zM-18 1229v104h792v-104h-792zM768 246v104h203v-104h-203zM768 442v105h203v-105h-203z M768 639v104h203v-104h-203zM768 836v104h203v-104h-203zM768 1032v105h203v-105h-203z" />
<glyph unicode="E" d="M-18 49v105h989v-105h-989zM-18 246v104h202v-104h-202zM-18 442v105h202v-105h-202zM-18 639v104h792v-104h-792zM-18 836v104h202v-104h-202zM-18 1032v105h202v-105h-202zM-18 1229v104h989v-104h-989z" />
<glyph unicode="F" d="M-18 49v105h202v-105h-202zM-18 246v104h202v-104h-202zM-18 442v105h202v-105h-202zM-18 639v104h792v-104h-792zM-18 836v104h202v-104h-202zM-18 1032v105h202v-105h-202zM-18 1229v104h989v-104h-989z" />
<glyph unicode="G" d="M-18 246v104h202v-104h-202zM-18 442v105h202v-105h-202zM-18 639v104h202v-104h-202zM-18 836v104h202v-104h-202zM-18 1032v105h202v-105h-202zM178 49v105h793v-105h-793zM178 1229v104h596v-104h-596zM571 442v105h400v-105h-400zM768 246v104h203v-104h-203z M768 1032v105h203v-105h-203z" />
<glyph unicode="H" d="M-18 49v105h202v-105h-202zM-18 246v104h202v-104h-202zM-18 442v105h202v-105h-202zM-18 639v104h989v-104h-989zM-18 836v104h202v-104h-202zM-18 1032v105h202v-105h-202zM-18 1229v104h202v-104h-202zM768 49v105h203v-105h-203zM768 246v104h203v-104h-203zM768 442 v105h203v-105h-203zM768 836v104h203v-104h-203zM768 1032v105h203v-105h-203zM768 1229v104h203v-104h-203z" />
<glyph unicode="I" d="M-18 49v105h989v-105h-989zM-18 1229v104h989v-104h-989zM375 246v104h203v-104h-203zM375 442v105h203v-105h-203zM375 639v104h203v-104h-203zM375 836v104h203v-104h-203zM375 1032v105h203v-105h-203z" />
<glyph unicode="J" d="M-20 246v104h202v-104h-202zM-20 1229v104h792v-104h-792zM176 49v105h399v-105h-399zM569 246v104h203v-104h-203zM569 442v105h203v-105h-203zM569 639v104h203v-104h-203zM569 836v104h203v-104h-203zM569 1032v105h203v-105h-203z" />
<glyph unicode="K" d="M-18 49v105h202v-105h-202zM-18 246v104h202v-104h-202zM-18 442v105h202v-105h-202zM-18 639v104h596v-104h-596zM-18 836v104h202v-104h-202zM-18 1032v105h202v-105h-202zM-18 1229v104h202v-104h-202zM571 442v105h203v-105h-203zM571 836v104h203v-104h-203zM768 49 v105h203v-105h-203zM768 246v104h203v-104h-203zM768 1032v105h203v-105h-203zM768 1229v104h203v-104h-203z" />
<glyph unicode="L" d="M-18 49v105h989v-105h-989zM-18 246v104h202v-104h-202zM-18 442v105h202v-105h-202zM-18 639v104h202v-104h-202zM-18 836v104h202v-104h-202zM-18 1032v105h202v-105h-202zM-18 1229v104h202v-104h-202z" />
<glyph unicode="M" d="M-18 49v105h202v-105h-202zM-18 246v104h202v-104h-202zM-18 442v105h202v-105h-202zM-18 639v104h202v-104h-202zM-18 836v104h399v-104h-399zM-18 1032v105h399v-105h-399zM-18 1229v104h202v-104h-202zM375 442v105h203v-105h-203zM375 639v104h203v-104h-203z M571 836v104h400v-104h-400zM571 1032v105h400v-105h-400zM768 49v105h203v-105h-203zM768 246v104h203v-104h-203zM768 442v105h203v-105h-203zM768 639v104h203v-104h-203zM768 1229v104h203v-104h-203z" />
<glyph unicode="N" d="M-18 49v105h202v-105h-202zM-18 246v104h202v-104h-202zM-18 442v105h202v-105h-202zM-18 639v104h202v-104h-202zM-18 836v104h202v-104h-202zM-18 1032v105h399v-105h-399zM-18 1229v104h202v-104h-202zM375 639v104h203v-104h-203zM375 836v104h203v-104h-203z M571 442v105h400v-105h-400zM768 49v105h203v-105h-203zM768 246v104h203v-104h-203zM768 639v104h203v-104h-203zM768 836v104h203v-104h-203zM768 1032v105h203v-105h-203zM768 1229v104h203v-104h-203z" />
<glyph unicode="O" d="M-18 246v104h202v-104h-202zM-18 442v105h202v-105h-202zM-18 639v104h202v-104h-202zM-18 836v104h202v-104h-202zM-18 1032v105h202v-105h-202zM178 49v105h596v-105h-596zM178 1229v104h596v-104h-596zM768 246v104h203v-104h-203zM768 442v105h203v-105h-203z M768 639v104h203v-104h-203zM768 836v104h203v-104h-203zM768 1032v105h203v-105h-203z" />
<glyph unicode="P" d="M-18 49v105h202v-105h-202zM-18 246v104h202v-104h-202zM-18 442v105h792v-105h-792zM-18 639v104h202v-104h-202zM-18 836v104h202v-104h-202zM-18 1032v105h202v-105h-202zM-18 1229v104h792v-104h-792zM768 639v104h203v-104h-203zM768 836v104h203v-104h-203z M768 1032v105h203v-105h-203z" />
<glyph unicode="Q" d="M-18 246v104h202v-104h-202zM-18 442v105h202v-105h-202zM-18 639v104h202v-104h-202zM-18 836v104h202v-104h-202zM-18 1032v105h202v-105h-202zM178 49v105h596v-105h-596zM178 1229v104h596v-104h-596zM375 -43h203v-104h-203v104zM375 246v104h203v-104h-203z M571 -240h203v-104h-203v104zM768 246v104h203v-104h-203zM768 442v105h203v-105h-203zM768 639v104h203v-104h-203zM768 836v104h203v-104h-203zM768 1032v105h203v-105h-203z" />
<glyph unicode="R" d="M-18 49v105h202v-105h-202zM-18 246v104h202v-104h-202zM-18 442v105h202v-105h-202zM-18 639v104h792v-104h-792zM-18 836v104h202v-104h-202zM-18 1032v105h202v-105h-202zM-18 1229v104h792v-104h-792zM571 442v105h203v-105h-203zM768 49v105h203v-105h-203zM768 246 v104h203v-104h-203zM768 836v104h203v-104h-203zM768 1032v105h203v-105h-203z" />
<glyph unicode="S" d="M-18 49v105h792v-105h-792zM-18 836v104h202v-104h-202zM-18 1032v105h202v-105h-202zM178 639v104h596v-104h-596zM178 1229v104h793v-104h-793zM768 246v104h203v-104h-203zM768 442v105h203v-105h-203z" />
<glyph unicode="T" d="M-18 1229v104h989v-104h-989zM375 49v105h203v-105h-203zM375 246v104h203v-104h-203zM375 442v105h203v-105h-203zM375 639v104h203v-104h-203zM375 836v104h203v-104h-203zM375 1032v105h203v-105h-203z" />
<glyph unicode="U" d="M-18 246v104h202v-104h-202zM-18 442v105h202v-105h-202zM-18 639v104h202v-104h-202zM-18 836v104h202v-104h-202zM-18 1032v105h202v-105h-202zM-18 1229v104h202v-104h-202zM178 49v105h596v-105h-596zM768 246v104h203v-104h-203zM768 442v105h203v-105h-203z M768 639v104h203v-104h-203zM768 836v104h203v-104h-203zM768 1032v105h203v-105h-203zM768 1229v104h203v-104h-203z" />
<glyph unicode="V" d="M-18 639v104h202v-104h-202zM-18 836v104h202v-104h-202zM-18 1032v105h202v-105h-202zM-18 1229v104h202v-104h-202zM178 246v104h203v-104h-203zM178 442v105h203v-105h-203zM375 49v105h203v-105h-203zM571 246v104h203v-104h-203zM571 442v105h203v-105h-203z M768 639v104h203v-104h-203zM768 836v104h203v-104h-203zM768 1032v105h203v-105h-203zM768 1229v104h203v-104h-203z" />
<glyph unicode="W" d="M-18 442v105h202v-105h-202zM-18 639v104h202v-104h-202zM-18 836v104h202v-104h-202zM-18 1032v105h202v-105h-202zM-18 1229v104h202v-104h-202zM178 49v105h203v-105h-203zM178 246v104h203v-104h-203zM375 442v105h203v-105h-203zM375 639v104h203v-104h-203z M375 836v104h203v-104h-203zM375 1032v105h203v-105h-203zM571 49v105h203v-105h-203zM571 246v104h203v-104h-203zM768 442v105h203v-105h-203zM768 639v104h203v-104h-203zM768 836v104h203v-104h-203zM768 1032v105h203v-105h-203zM768 1229v104h203v-104h-203z" />
<glyph unicode="X" d="M-18 49v105h202v-105h-202zM-18 246v104h202v-104h-202zM-18 1032v105h202v-105h-202zM-18 1229v104h202v-104h-202zM178 442v105h203v-105h-203zM178 836v104h203v-104h-203zM375 639v104h203v-104h-203zM571 442v105h203v-105h-203zM571 836v104h203v-104h-203zM768 49 v105h203v-105h-203zM768 246v104h203v-104h-203zM768 1032v105h203v-105h-203zM768 1229v104h203v-104h-203z" />
<glyph unicode="Y" d="M-18 836v104h202v-104h-202zM-18 1032v105h202v-105h-202zM-18 1229v104h202v-104h-202zM178 639v104h203v-104h-203zM375 49v105h203v-105h-203zM375 246v104h203v-104h-203zM375 442v105h203v-105h-203zM571 639v104h203v-104h-203zM768 836v104h203v-104h-203z M768 1032v105h203v-105h-203zM768 1229v104h203v-104h-203z" />
<glyph unicode="Z" d="M-18 49v105h989v-105h-989zM-18 246v104h202v-104h-202zM-18 1229v104h989v-104h-989zM178 442v105h203v-105h-203zM375 639v104h203v-104h-203zM571 836v104h203v-104h-203zM768 1032v105h203v-105h-203z" />
<glyph unicode="[" d="M377 49v103h391v-103h-391zM377 242v102h198v-102h-198zM377 434v105h198v-105h-198zM377 629v102h198v-102h-198zM377 821v103h198v-103h-198zM377 1016v102h198v-102h-198zM377 1208v103h391v-103h-391z" />
<glyph unicode="\" d="M182 1016v102h199v-102h-199zM182 1208v103h199v-103h-199zM377 821v103h198v-103h-198zM569 434v105h199v-105h-199zM569 629v102h199v-102h-199zM764 49v103h199v-103h-199zM764 242v102h199v-102h-199z" />
<glyph unicode="]" d="M377 49v103h391v-103h-391zM377 1208v103h391v-103h-391zM569 242v102h199v-102h-199zM569 434v105h199v-105h-199zM569 629v102h199v-102h-199zM569 821v103h199v-103h-199zM569 1016v102h199v-102h-199z" />
<glyph unicode="^" d="M180 1208v103h199v-103h-199zM373 1403v102h200v-102h-200zM567 1208v103h199v-103h-199z" />
<glyph unicode="_" d="M-14 49v103h972v-103h-972z" />
<glyph unicode="`" d="M-18 1403v102h198v-102h-198zM174 1208v103h393v-103h-393z" />
<glyph unicode="a" d="M-14 242v102h200v-102h-200zM180 49v103h778v-103h-778zM180 434v105h778v-105h-778zM180 821v103h586v-103h-586zM760 242v102h198v-102h-198zM760 629v102h198v-102h-198z" />
<glyph unicode="b" d="M-14 49v103h780v-103h-780zM-14 242v102h200v-102h-200zM-14 434v105h200v-105h-200zM-14 629v102h395v-102h-395zM-14 821v103h194v-103h-194zM-14 1016v102h200v-102h-200zM-14 1208v103h200v-103h-200zM381 821v103h385v-103h-385zM760 242v102h198v-102h-198z M760 434v105h198v-105h-198zM760 629v102h198v-102h-198z" />
<glyph unicode="c" d="M-14 242v102h200v-102h-200zM-14 434v105h200v-105h-200zM-14 629v102h200v-102h-200zM180 49v103h586v-103h-586zM180 821v103h586v-103h-586zM760 242v102h198v-102h-198zM760 629v102h198v-102h-198z" />
<glyph unicode="d" d="M-14 242v102h200v-102h-200zM-14 434v105h200v-105h-200zM-14 629v102h200v-102h-200zM180 49v103h393v-103h-393zM180 821v103h778v-103h-778zM567 242v102h391v-102h-391zM760 49v103h198v-103h-198zM760 434v105h198v-105h-198zM760 629v102h198v-102h-198zM760 1016 v102h198v-102h-198zM760 1208v103h198v-103h-198z" />
<glyph unicode="e" d="M-14 242v102h200v-102h-200zM-14 434v105h972v-105h-972zM-14 629v102h200v-102h-200zM180 49v103h778v-103h-778zM180 821v103h586v-103h-586zM760 629v102h198v-102h-198z" />
<glyph unicode="f" d="M-14 49v103h972v-103h-972zM180 821v103h778v-103h-778zM373 242v102h200v-102h-200zM373 434v105h200v-105h-200zM373 629v102h200v-102h-200zM373 1016v102h200v-102h-200zM567 1208v103h391v-103h-391z" />
<glyph unicode="g" d="M-14 242v102h200v-102h-200zM-14 434v105h200v-105h-200zM-14 629v102h200v-102h-200zM180 49v103h393v-103h-393zM180 -236h586v-102h-586v102zM180 821v103h778v-103h-778zM567 242v102h391v-102h-391zM760 -43h198v-102h-198v102zM760 49v103h198v-103h-198zM760 434 v105h198v-105h-198zM760 629v102h198v-102h-198z" />
<glyph unicode="h" d="M-14 49v103h200v-103h-200zM-14 242v102h200v-102h-200zM-14 434v105h200v-105h-200zM-14 629v102h200v-102h-200zM-14 821v103h780v-103h-780zM-14 1016v102h200v-102h-200zM-14 1208v103h200v-103h-200zM760 49v103h198v-103h-198zM760 242v102h198v-102h-198zM760 434 v105h198v-105h-198zM760 629v102h198v-102h-198z" />
<glyph unicode="i" d="M-14 49v103h972v-103h-972zM-14 821v103h587v-103h-587zM373 242v102h200v-102h-200zM373 434v105h200v-105h-200zM373 629v102h200v-102h-200zM373 1208v103h200v-103h-200z" />
<glyph unicode="j" d="M-14 -43h200v-102h-200v102zM180 -236h586v-102h-586v102zM180 821v103h778v-103h-778zM760 -43h198v-102h-198v102zM760 49v103h198v-103h-198zM760 242v102h198v-102h-198zM760 434v105h198v-105h-198zM760 629v102h198v-102h-198zM760 1208v103h198v-103h-198z" />
<glyph unicode="k" d="M-14 49v103h200v-103h-200zM-14 242v102h200v-102h-200zM-14 434v105h587v-105h-587zM-14 629v102h200v-102h-200zM-14 821v103h200v-103h-200zM-14 1016v102h200v-102h-200zM-14 1208v103h200v-103h-200zM567 242v102h199v-102h-199zM567 629v102h199v-102h-199z M567 821v103h199v-103h-199zM760 49v103h198v-103h-198z" />
<glyph unicode="l" d="M-14 49v103h972v-103h-972zM-14 1208v103h587v-103h-587zM373 242v102h200v-102h-200zM373 434v105h200v-105h-200zM373 629v102h200v-102h-200zM373 821v103h200v-103h-200zM373 1016v102h200v-102h-200z" />
<glyph unicode="m" d="M-14 49v103h200v-103h-200zM-14 242v102h200v-102h-200zM-14 434v105h200v-105h-200zM-14 629v102h972v-102h-972zM-14 821v103h200v-103h-200zM373 49v103h200v-103h-200zM373 242v102h200v-102h-200zM373 434v105h200v-105h-200zM373 821v103h200v-103h-200zM760 49 v103h198v-103h-198zM760 242v102h198v-102h-198zM760 434v105h198v-105h-198zM760 821v103h198v-103h-198z" />
<glyph unicode="n" d="M-14 49v103h200v-103h-200zM-14 242v102h200v-102h-200zM-14 434v105h200v-105h-200zM-14 629v102h393v-102h-393zM-14 821v103h200v-103h-200zM373 821v103h393v-103h-393zM760 49v103h198v-103h-198zM760 242v102h198v-102h-198zM760 434v105h198v-105h-198zM760 629 v102h198v-102h-198z" />
<glyph unicode="o" d="M-14 242v102h200v-102h-200zM-14 434v105h200v-105h-200zM-14 629v102h200v-102h-200zM180 49v103h586v-103h-586zM180 821v103h586v-103h-586zM760 242v102h198v-102h-198zM760 434v105h198v-105h-198zM760 629v102h198v-102h-198z" />
<glyph unicode="p" d="M-14 -43h200v-102h-200v102zM-14 49v103h780v-103h-780zM-14 -236h200v-102h-200v102zM-14 242v102h200v-102h-200zM-14 434v105h200v-105h-200zM-14 629v102h393v-102h-393zM-14 821v103h200v-103h-200zM373 821v103h393v-103h-393zM760 242v102h198v-102h-198zM760 434 v105h198v-105h-198zM760 629v102h198v-102h-198z" />
<glyph unicode="q" d="M-14 242v102h200v-102h-200zM-14 434v105h200v-105h-200zM-14 629v102h200v-102h-200zM180 49v103h393v-103h-393zM180 821v103h778v-103h-778zM567 242v102h391v-102h-391zM760 -43h198v-102h-198v102zM760 49v103h198v-103h-198zM760 -236h198v-102h-198v102zM760 434 v105h198v-105h-198zM760 629v102h198v-102h-198z" />
<glyph unicode="r" d="M-14 49v103h780v-103h-780zM-14 821v103h393v-103h-393zM180 242v102h199v-102h-199zM180 434v105h199v-105h-199zM180 629v102h393v-102h-393zM567 821v103h391v-103h-391z" />
<glyph unicode="s" d="M-14 49v103h780v-103h-780zM-14 629v102h200v-102h-200zM180 434v105h586v-105h-586zM180 821v103h778v-103h-778zM760 242v102h198v-102h-198z" />
<glyph unicode="t" d="M-14 821v103h972v-103h-972zM373 242v102h200v-102h-200zM373 434v105h200v-105h-200zM373 629v102h200v-102h-200zM373 1016v102h200v-102h-200zM567 49v103h391v-103h-391z" />
<glyph unicode="u" d="M-14 242v102h200v-102h-200zM-14 434v105h200v-105h-200zM-14 629v102h200v-102h-200zM-14 821v103h200v-103h-200zM180 49v103h393v-103h-393zM567 242v102h391v-102h-391zM760 49v103h198v-103h-198zM760 434v105h198v-105h-198zM760 629v102h198v-102h-198zM760 821 v103h198v-103h-198z" />
<glyph unicode="v" d="M-14 629v102h200v-102h-200zM-14 821v103h200v-103h-200zM180 242v102h199v-102h-199zM180 434v105h199v-105h-199zM373 49v103h200v-103h-200zM567 242v102h199v-102h-199zM567 434v105h199v-105h-199zM760 629v102h198v-102h-198zM760 821v103h198v-103h-198z" />
<glyph unicode="w" d="M-14 434v105h200v-105h-200zM-14 629v102h200v-102h-200zM-14 821v103h200v-103h-200zM180 49v103h199v-103h-199zM180 242v102h199v-102h-199zM373 434v105h200v-105h-200zM373 629v102h200v-102h-200zM567 49v103h199v-103h-199zM567 242v102h199v-102h-199zM760 434 v105h198v-105h-198zM760 629v102h198v-102h-198zM760 821v103h198v-103h-198z" />
<glyph unicode="x" d="M-14 49v103h200v-103h-200zM-14 242v102h200v-102h-200zM-14 629v102h200v-102h-200zM-14 821v103h200v-103h-200zM180 434v105h586v-105h-586zM760 49v103h198v-103h-198zM760 242v102h198v-102h-198zM760 629v102h198v-102h-198zM760 821v103h198v-103h-198z" />
<glyph unicode="y" d="M-14 -236h393v-102h-393v102zM-14 629v102h200v-102h-200zM-14 821v103h200v-103h-200zM180 242v102h199v-102h-199zM180 434v105h199v-105h-199zM373 -43h200v-102h-200v102zM373 49v103h200v-103h-200zM567 242v102h199v-102h-199zM567 434v105h199v-105h-199zM760 629 v102h198v-102h-198zM760 821v103h198v-103h-198z" />
<glyph unicode="z" d="M-14 49v103h972v-103h-972zM-14 821v103h972v-103h-972zM180 242v102h199v-102h-199zM373 434v105h200v-105h-200zM567 629v102h199v-102h-199z" />
<glyph unicode="{" d="M180 629v102h199v-102h-199zM373 242v102h200v-102h-200zM373 434v105h200v-105h-200zM373 821v103h200v-103h-200zM373 1016v102h200v-102h-200zM567 49v103h199v-103h-199zM567 1208v103h199v-103h-199z" />
<glyph unicode="|" d="M373 49v103h200v-103h-200zM373 242v102h200v-102h-200zM373 434v105h200v-105h-200zM373 629v102h200v-102h-200zM373 821v103h200v-103h-200zM373 1016v102h200v-102h-200zM373 1208v103h200v-103h-200z" />
<glyph unicode="}" d="M379 49v103h199v-103h-199zM379 1208v103h199v-103h-199zM571 242v102h201v-102h-201zM571 434v105h201v-105h-201zM571 821v103h201v-103h-201zM571 1016v102h201v-102h-201zM766 629v102h199v-102h-199z" />
<glyph unicode="~" d="M-14 629v102h200v-102h-200zM180 821v103h199v-103h-199zM373 629v102h200v-102h-200zM567 434v105h199v-105h-199zM760 629v102h198v-102h-198z" />
<glyph unicode="&#xa0;" />
<glyph unicode="&#xa1;" d="M373 96v103h200v-103h-200zM373 291v102h200v-102h-200zM373 483v103h200v-103h-200zM373 678v102h200v-102h-200zM373 1063v102h200v-102h-200zM373 1257v103h200v-103h-200z" />
<glyph unicode="&#xa2;" d="M-14 242v102h200v-102h-200zM-14 434v105h200v-105h-200zM-14 629v102h200v-102h-200zM180 49v103h586v-103h-586zM180 821v103h586v-103h-586zM373 -43h200v-102h-200v102zM373 242v102h200v-102h-200zM373 434v105h200v-105h-200zM373 629v102h200v-102h-200zM373 1016 v102h200v-102h-200zM760 242v102h198v-102h-198zM760 629v102h198v-102h-198z" />
<glyph unicode="&#xa3;" d="M-14 49v103h972v-103h-972zM-14 629v102h780v-102h-780zM180 242v102h199v-102h-199zM180 434v105h199v-105h-199zM180 821v103h199v-103h-199zM180 1016v102h199v-102h-199zM373 1208v103h393v-103h-393zM760 1016v102h198v-102h-198z" />
<glyph unicode="&#xa4;" d="M-14 49v103h200v-103h-200zM-14 821v103h200v-103h-200zM180 242v102h586v-102h-586zM180 434v105h199v-105h-199zM180 629v102h586v-102h-586zM567 434v105h199v-105h-199zM760 49v103h198v-103h-198zM760 821v103h198v-103h-198z" />
<glyph unicode="&#xa5;" d="M-14 434v105h972v-105h-972zM-14 1016v102h200v-102h-200zM-14 1208v103h200v-103h-200zM180 821v103h199v-103h-199zM373 49v103h200v-103h-200zM373 242v102h200v-102h-200zM373 629v102h200v-102h-200zM567 821v103h199v-103h-199zM760 1016v102h198v-102h-198z M760 1208v103h198v-103h-198z" />
<glyph unicode="&#xa6;" d="M373 49v103h200v-103h-200zM373 242v102h200v-102h-200zM373 434v105h200v-105h-200zM373 821v103h200v-103h-200zM373 1016v102h200v-102h-200zM373 1208v103h200v-103h-200z" />
<glyph unicode="&#xa7;" d="M182 49v103h586v-103h-586zM182 629v102h199v-102h-199zM182 1016v102h199v-102h-199zM377 434v105h391v-105h-391zM377 821v103h391v-103h-391zM377 1208v103h586v-103h-586zM764 242v102h199v-102h-199zM764 629v102h199v-102h-199z" />
<glyph unicode="&#xa8;" d="M-14 1208v103h200v-103h-200zM-14 1403v102h200v-102h-200zM760 1208v103h198v-103h-198zM760 1403v102h198v-102h-198z" />
<glyph unicode="&#xa9;" d="M-14 242v102h200v-102h-200zM-14 434v105h393v-105h-393zM-14 629v102h200v-102h-200zM180 49v103h586v-103h-586zM180 821v103h586v-103h-586zM373 242v102h200v-102h-200zM373 629v102h200v-102h-200zM760 242v102h198v-102h-198zM760 434v105h198v-105h-198zM760 629 v102h198v-102h-198z" />
<glyph unicode="&#xaa;" d="M-18 821v103h585v-103h-585zM174 629v102h393v-102h-393zM174 1208v103h199v-103h-199zM367 1016v102h200v-102h-200z" />
<glyph unicode="&#xab;" d="M-14 434v105h200v-105h-200zM180 242v102h199v-102h-199zM180 629v102h199v-102h-199zM373 49v103h200v-103h-200zM373 434v105h200v-105h-200zM373 821v103h200v-103h-200zM567 242v102h199v-102h-199zM567 629v102h199v-102h-199zM760 49v103h198v-103h-198zM760 821 v103h198v-103h-198z" />
<glyph unicode="&#xac;" d="M-14 434v105h972v-105h-972zM760 49v103h198v-103h-198zM760 242v102h198v-102h-198z" />
<glyph unicode="&#xad;" d="M180 434v105h586v-105h-586z" />
<glyph unicode="&#xae;" d="M-14 629v102h200v-102h-200zM-14 821v103h200v-103h-200zM-14 1016v102h200v-102h-200zM180 434v105h586v-105h-586zM180 1208v103h586v-103h-586zM373 821v103h200v-103h-200zM373 1016v102h585v-102h-585zM567 629v102h391v-102h-391zM760 821v103h198v-103h-198z" />
<glyph unicode="&#xaf;" d="M180 1208v103h586v-103h-586z" />
<glyph unicode="&#xb0;" d="M-18 1016v102h198v-102h-198zM174 821v103h199v-103h-199zM174 1208v103h199v-103h-199zM367 1016v102h200v-102h-200z" />
<glyph unicode="&#xb1;" d="M-14 49v103h972v-103h-972zM-14 629v102h972v-102h-972zM373 434v105h200v-105h-200zM373 821v103h200v-103h-200z" />
<glyph unicode="&#xb2;" d="M-23 629v102h394v-102h-394zM-23 821v103h199v-103h-199zM-23 1208v103h199v-103h-199zM172 1016v102h199v-102h-199z" />
<glyph unicode="&#xb3;" d="M-23 629v102h394v-102h-394zM-23 1208v103h199v-103h-199zM172 821v103h199v-103h-199zM172 1016v102h199v-102h-199z" />
<glyph unicode="&#xb4;" d="M180 1208v103h393v-103h-393zM567 1403v102h199v-102h-199z" />
<glyph unicode="&#xb5;" d="M-14 -43h200v-102h-200v102zM-14 49v103h587v-103h-587zM-14 -236h200v-102h-200v102zM-14 242v102h200v-102h-200zM-14 434v105h200v-105h-200zM-14 629v102h200v-102h-200zM-14 821v103h200v-103h-200zM567 242v102h391v-102h-391zM760 49v103h198v-103h-198zM760 434 v105h198v-105h-198zM760 629v102h198v-102h-198zM760 821v103h198v-103h-198z" />
<glyph unicode="&#xb6;" d="M-14 821v103h587v-103h-587zM-14 1016v102h587v-102h-587zM180 629v102h393v-102h-393zM180 1208v103h393v-103h-393zM373 49v103h200v-103h-200zM373 242v102h200v-102h-200zM373 434v105h200v-105h-200zM760 49v103h198v-103h-198zM760 242v102h198v-102h-198zM760 434 v105h198v-105h-198zM760 629v102h198v-102h-198zM760 821v103h198v-103h-198zM760 1016v102h198v-102h-198zM760 1208v103h198v-103h-198z" />
<glyph unicode="&#xb7;" d="M174 434v105h199v-105h-199zM174 629v102h199v-102h-199z" />
<glyph unicode="&#xb8;" d="M176 -236h201v-102h-201v102zM371 -43h198v-102h-198v102z" />
<glyph unicode="&#xb9;" d="M-18 629v102h585v-102h-585zM-18 1208v103h391v-103h-391zM174 821v103h199v-103h-199zM174 1016v102h199v-102h-199z" />
<glyph unicode="&#xba;" d="M-18 1016v102h198v-102h-198zM174 821v103h199v-103h-199zM174 1208v103h199v-103h-199zM367 1016v102h200v-102h-200z" />
<glyph unicode="&#xbb;" d="M-14 49v103h200v-103h-200zM-14 821v103h200v-103h-200zM180 242v102h199v-102h-199zM180 629v102h199v-102h-199zM373 49v103h200v-103h-200zM373 434v105h200v-105h-200zM373 821v103h200v-103h-200zM567 242v102h199v-102h-199zM567 629v102h199v-102h-199zM760 434 v105h198v-105h-198z" />
<glyph unicode="&#xbc;" d="M-10 1208v103h391v-103h-391zM182 49v103h199v-103h-199zM182 242v102h199v-102h-199zM182 821v103h199v-103h-199zM182 1016v102h199v-102h-199zM377 434v105h198v-105h-198zM377 629v102h198v-102h-198zM569 821v103h199v-103h-199zM764 434v105h391v-105h-391z M764 1016v102h199v-102h-199zM764 1208v103h199v-103h-199zM956 49v103h199v-103h-199zM956 242v102h199v-102h-199zM956 629v102h199v-102h-199z" />
<glyph unicode="&#xbd;" d="M-10 1208v103h391v-103h-391zM182 49v103h199v-103h-199zM182 242v102h199v-102h-199zM182 821v103h199v-103h-199zM182 1016v102h199v-102h-199zM377 434v105h198v-105h-198zM377 629v102h198v-102h-198zM569 821v103h199v-103h-199zM764 49v103h391v-103h-391zM764 242 v102h199v-102h-199zM764 629v102h199v-102h-199zM764 1016v102h199v-102h-199zM764 1208v103h199v-103h-199zM956 434v105h199v-105h-199z" />
<glyph unicode="&#xbe;" d="M-10 629v102h585v-102h-585zM-10 1208v103h198v-103h-198zM182 49v103h199v-103h-199zM182 242v102h199v-102h-199zM182 821v103h199v-103h-199zM182 1016v102h199v-102h-199zM377 434v105h198v-105h-198zM569 821v103h199v-103h-199zM764 434v105h391v-105h-391z M764 1016v102h199v-102h-199zM764 1208v103h199v-103h-199zM956 49v103h199v-103h-199zM956 242v102h199v-102h-199zM956 629v102h199v-102h-199z" />
<glyph unicode="&#xbf;" d="M-14 242v102h200v-102h-200zM-14 434v105h200v-105h-200zM180 49v103h586v-103h-586zM180 629v102h393v-102h-393zM373 1016v102h200v-102h-200zM373 1208v103h200v-103h-200zM760 242v102h198v-102h-198z" />
<glyph unicode="&#xc0;" d="M-18 49v105h202v-105h-202zM-18 246v104h202v-104h-202zM-18 442v105h989v-105h-989zM-18 639v104h202v-104h-202zM-18 836v104h202v-104h-202zM-18 1032v105h202v-105h-202zM178 1229v104h596v-104h-596zM178 1868v104h203v-104h-203zM375 1671v105h399v-105h-399z M768 49v105h203v-105h-203zM768 246v104h203v-104h-203zM768 639v104h203v-104h-203zM768 836v104h203v-104h-203zM768 1032v105h203v-105h-203z" />
<glyph unicode="&#xc1;" d="M-18 49v105h202v-105h-202zM-18 246v104h202v-104h-202zM-18 442v105h989v-105h-989zM-18 639v104h202v-104h-202zM-18 836v104h202v-104h-202zM-18 1032v105h202v-105h-202zM178 1229v104h596v-104h-596zM178 1671v105h400v-105h-400zM571 1868v104h203v-104h-203z M768 49v105h203v-105h-203zM768 246v104h203v-104h-203zM768 639v104h203v-104h-203zM768 836v104h203v-104h-203zM768 1032v105h203v-105h-203z" />
<glyph unicode="&#xc2;" d="M-18 49v105h202v-105h-202zM-18 246v104h202v-104h-202zM-18 442v105h989v-105h-989zM-18 639v104h202v-104h-202zM-18 836v104h202v-104h-202zM-18 1032v105h202v-105h-202zM178 1229v104h596v-104h-596zM178 1671v105h203v-105h-203zM375 1868v104h203v-104h-203z M571 1671v105h203v-105h-203zM768 49v105h203v-105h-203zM768 246v104h203v-104h-203zM768 639v104h203v-104h-203zM768 836v104h203v-104h-203zM768 1032v105h203v-105h-203z" />
<glyph unicode="&#xc3;" d="M-18 49v105h202v-105h-202zM-18 246v104h202v-104h-202zM-18 442v105h989v-105h-989zM-18 639v104h202v-104h-202zM-18 836v104h202v-104h-202zM-18 1032v105h202v-105h-202zM-18 1671v105h202v-105h-202zM178 1229v104h596v-104h-596zM178 1868v104h203v-104h-203z M375 1671v105h399v-105h-399zM768 49v105h203v-105h-203zM768 246v104h203v-104h-203zM768 639v104h203v-104h-203zM768 836v104h203v-104h-203zM768 1032v105h203v-105h-203zM768 1868v104h203v-104h-203z" />
<glyph unicode="&#xc4;" d="M-18 49v105h202v-105h-202zM-18 246v104h202v-104h-202zM-18 442v105h989v-105h-989zM-18 639v104h202v-104h-202zM-18 836v104h202v-104h-202zM-18 1032v105h202v-105h-202zM-18 1671v105h202v-105h-202zM-18 1868v104h202v-104h-202zM178 1229v104h596v-104h-596z M768 49v105h203v-105h-203zM768 246v104h203v-104h-203zM768 639v104h203v-104h-203zM768 836v104h203v-104h-203zM768 1032v105h203v-105h-203zM768 1671v105h203v-105h-203zM768 1868v104h203v-104h-203z" />
<glyph unicode="&#xc5;" d="M-18 49v105h202v-105h-202zM-18 246v104h202v-104h-202zM-18 442v105h989v-105h-989zM-18 639v104h202v-104h-202zM-18 836v104h202v-104h-202zM-18 1032v105h202v-105h-202zM178 1229v104h596v-104h-596zM178 1868v104h203v-104h-203zM375 1671v105h203v-105h-203z M375 2064v105h203v-105h-203zM571 1868v104h203v-104h-203zM768 49v105h203v-105h-203zM768 246v104h203v-104h-203zM768 639v104h203v-104h-203zM768 836v104h203v-104h-203zM768 1032v105h203v-105h-203z" />
<glyph unicode="&#xc6;" d="M-18 49v105h202v-105h-202zM-18 246v104h202v-104h-202zM-18 442v105h596v-105h-596zM-18 639v104h202v-104h-202zM-18 836v104h202v-104h-202zM-18 1032v105h202v-105h-202zM178 1229v104h793v-104h-793zM375 49v105h596v-105h-596zM375 246v104h203v-104h-203zM375 639 v104h399v-104h-399zM375 836v104h203v-104h-203zM375 1032v105h203v-105h-203z" />
<glyph unicode="&#xc7;" d="M-18 246v104h202v-104h-202zM-18 442v105h202v-105h-202zM-18 639v104h202v-104h-202zM-18 836v104h202v-104h-202zM-18 1032v105h202v-105h-202zM178 49v105h596v-105h-596zM178 -240h203v-104h-203v104zM178 1229v104h596v-104h-596zM375 -43h203v-104h-203v104z M768 246v104h203v-104h-203zM768 1032v105h203v-105h-203z" />
<glyph unicode="&#xc8;" d="M-18 49v105h989v-105h-989zM-18 246v104h202v-104h-202zM-18 442v105h202v-105h-202zM-18 639v104h792v-104h-792zM-18 836v104h202v-104h-202zM-18 1032v105h202v-105h-202zM-18 1229v104h989v-104h-989zM178 1868v104h203v-104h-203zM375 1671v105h399v-105h-399z" />
<glyph unicode="&#xc9;" d="M-18 49v105h989v-105h-989zM-18 246v104h202v-104h-202zM-18 442v105h202v-105h-202zM-18 639v104h792v-104h-792zM-18 836v104h202v-104h-202zM-18 1032v105h202v-105h-202zM-18 1229v104h989v-104h-989zM178 1671v105h400v-105h-400zM571 1868v104h203v-104h-203z" />
<glyph unicode="&#xca;" d="M-18 49v105h989v-105h-989zM-18 246v104h202v-104h-202zM-18 442v105h202v-105h-202zM-18 639v104h792v-104h-792zM-18 836v104h202v-104h-202zM-18 1032v105h202v-105h-202zM-18 1229v104h989v-104h-989zM178 1671v105h203v-105h-203zM375 1868v104h203v-104h-203z M571 1671v105h203v-105h-203z" />
<glyph unicode="&#xcb;" d="M-18 49v105h989v-105h-989zM-18 246v104h202v-104h-202zM-18 442v105h202v-105h-202zM-18 639v104h792v-104h-792zM-18 836v104h202v-104h-202zM-18 1032v105h202v-105h-202zM-18 1229v104h989v-104h-989zM-18 1671v105h202v-105h-202zM-18 1868v104h202v-104h-202z M768 1671v105h203v-105h-203zM768 1868v104h203v-104h-203z" />
<glyph unicode="&#xcc;" d="M-18 49v105h989v-105h-989zM-18 1229v104h989v-104h-989zM178 1868v104h203v-104h-203zM375 246v104h203v-104h-203zM375 442v105h203v-105h-203zM375 639v104h203v-104h-203zM375 836v104h203v-104h-203zM375 1032v105h203v-105h-203zM375 1671v105h399v-105h-399z" />
<glyph unicode="&#xcd;" d="M-18 49v105h989v-105h-989zM-18 1229v104h989v-104h-989zM178 1671v105h400v-105h-400zM375 246v104h203v-104h-203zM375 442v105h203v-105h-203zM375 639v104h203v-104h-203zM375 836v104h203v-104h-203zM375 1032v105h203v-105h-203zM571 1868v104h203v-104h-203z" />
<glyph unicode="&#xce;" d="M-18 49v105h989v-105h-989zM-18 1229v104h989v-104h-989zM178 1671v105h203v-105h-203zM375 246v104h203v-104h-203zM375 442v105h203v-105h-203zM375 639v104h203v-104h-203zM375 836v104h203v-104h-203zM375 1032v105h203v-105h-203zM375 1868v104h203v-104h-203z M571 1671v105h203v-105h-203z" />
<glyph unicode="&#xcf;" d="M-18 49v105h989v-105h-989zM-18 1229v104h989v-104h-989zM-18 1671v105h202v-105h-202zM-18 1868v104h202v-104h-202zM375 246v104h203v-104h-203zM375 442v105h203v-105h-203zM375 639v104h203v-104h-203zM375 836v104h203v-104h-203zM375 1032v105h203v-105h-203z M768 1671v105h203v-105h-203zM768 1868v104h203v-104h-203z" />
<glyph unicode="&#xd0;" d="M-18 639v104h596v-104h-596zM178 49v105h596v-105h-596zM178 246v104h203v-104h-203zM178 442v105h203v-105h-203zM178 836v104h203v-104h-203zM178 1032v105h203v-105h-203zM178 1229v104h596v-104h-596zM768 246v104h203v-104h-203zM768 442v105h203v-105h-203z M768 639v104h203v-104h-203zM768 836v104h203v-104h-203zM768 1032v105h203v-105h-203z" />
<glyph unicode="&#xd1;" d="M-18 49v105h202v-105h-202zM-18 246v104h202v-104h-202zM-18 442v105h202v-105h-202zM-18 639v104h202v-104h-202zM-18 836v104h202v-104h-202zM-18 1032v105h399v-105h-399zM-18 1229v104h202v-104h-202zM-18 1671v105h202v-105h-202zM178 1868v104h203v-104h-203z M375 639v104h203v-104h-203zM375 836v104h203v-104h-203zM375 1671v105h399v-105h-399zM571 442v105h400v-105h-400zM768 49v105h203v-105h-203zM768 246v104h203v-104h-203zM768 639v104h203v-104h-203zM768 836v104h203v-104h-203zM768 1032v105h203v-105h-203zM768 1229 v104h203v-104h-203zM768 1868v104h203v-104h-203z" />
<glyph unicode="&#xd2;" d="M-18 246v104h202v-104h-202zM-18 442v105h202v-105h-202zM-18 639v104h202v-104h-202zM-18 836v104h202v-104h-202zM-18 1032v105h202v-105h-202zM178 49v105h596v-105h-596zM178 1229v104h596v-104h-596zM178 1868v104h203v-104h-203zM375 1671v105h399v-105h-399z M768 246v104h203v-104h-203zM768 442v105h203v-105h-203zM768 639v104h203v-104h-203zM768 836v104h203v-104h-203zM768 1032v105h203v-105h-203z" />
<glyph unicode="&#xd3;" d="M-18 246v104h202v-104h-202zM-18 442v105h202v-105h-202zM-18 639v104h202v-104h-202zM-18 836v104h202v-104h-202zM-18 1032v105h202v-105h-202zM178 49v105h596v-105h-596zM178 1229v104h596v-104h-596zM178 1671v105h400v-105h-400zM571 1868v104h203v-104h-203z M768 246v104h203v-104h-203zM768 442v105h203v-105h-203zM768 639v104h203v-104h-203zM768 836v104h203v-104h-203zM768 1032v105h203v-105h-203z" />
<glyph unicode="&#xd4;" d="M-18 246v104h202v-104h-202zM-18 442v105h202v-105h-202zM-18 639v104h202v-104h-202zM-18 836v104h202v-104h-202zM-18 1032v105h202v-105h-202zM178 49v105h596v-105h-596zM178 1229v104h596v-104h-596zM178 1671v105h203v-105h-203zM375 1868v104h203v-104h-203z M571 1671v105h203v-105h-203zM768 246v104h203v-104h-203zM768 442v105h203v-105h-203zM768 639v104h203v-104h-203zM768 836v104h203v-104h-203zM768 1032v105h203v-105h-203z" />
<glyph unicode="&#xd5;" d="M-18 246v104h202v-104h-202zM-18 442v105h202v-105h-202zM-18 639v104h202v-104h-202zM-18 836v104h202v-104h-202zM-18 1032v105h202v-105h-202zM-18 1671v105h202v-105h-202zM178 49v105h596v-105h-596zM178 1229v104h596v-104h-596zM178 1868v104h203v-104h-203z M375 1671v105h399v-105h-399zM768 246v104h203v-104h-203zM768 442v105h203v-105h-203zM768 639v104h203v-104h-203zM768 836v104h203v-104h-203zM768 1032v105h203v-105h-203zM768 1868v104h203v-104h-203z" />
<glyph unicode="&#xd6;" d="M-18 246v104h202v-104h-202zM-18 442v105h202v-105h-202zM-18 639v104h202v-104h-202zM-18 836v104h202v-104h-202zM-18 1032v105h202v-105h-202zM-18 1671v105h202v-105h-202zM-18 1868v104h202v-104h-202zM178 49v105h596v-105h-596zM178 1229v104h596v-104h-596z M768 246v104h203v-104h-203zM768 442v105h203v-105h-203zM768 639v104h203v-104h-203zM768 836v104h203v-104h-203zM768 1032v105h203v-105h-203zM768 1671v105h203v-105h-203zM768 1868v104h203v-104h-203z" />
<glyph unicode="&#xd7;" d="M-14 49v103h200v-103h-200zM-14 821v103h200v-103h-200zM180 242v102h199v-102h-199zM180 629v102h199v-102h-199zM373 434v105h200v-105h-200zM567 242v102h199v-102h-199zM567 629v102h199v-102h-199zM760 49v103h198v-103h-198zM760 821v103h198v-103h-198z" />
<glyph unicode="&#xd8;" d="M-18 246v104h403v-104h-403zM-18 442v105h202v-105h-202zM-18 639v104h202v-104h-202zM-18 836v104h202v-104h-202zM-18 1032v105h202v-105h-202zM178 49v105h596v-105h-596zM178 1229v104h596v-104h-596zM379 442v105h203v-105h-203zM379 639v104h203v-104h-203z M379 836v104h203v-104h-203zM575 1032v105h396v-105h-396zM768 246v104h203v-104h-203zM768 442v105h203v-105h-203zM768 639v104h203v-104h-203zM768 836v104h203v-104h-203z" />
<glyph unicode="&#xd9;" d="M-18 246v104h202v-104h-202zM-18 442v105h202v-105h-202zM-18 639v104h202v-104h-202zM-18 836v104h202v-104h-202zM-18 1032v105h202v-105h-202zM-18 1229v104h202v-104h-202zM178 49v105h596v-105h-596zM178 1868v104h203v-104h-203zM375 1671v105h399v-105h-399z M768 246v104h203v-104h-203zM768 442v105h203v-105h-203zM768 639v104h203v-104h-203zM768 836v104h203v-104h-203zM768 1032v105h203v-105h-203zM768 1229v104h203v-104h-203z" />
<glyph unicode="&#xda;" d="M-18 246v104h202v-104h-202zM-18 442v105h202v-105h-202zM-18 639v104h202v-104h-202zM-18 836v104h202v-104h-202zM-18 1032v105h202v-105h-202zM-18 1229v104h202v-104h-202zM178 49v105h596v-105h-596zM178 1671v105h400v-105h-400zM571 1868v104h203v-104h-203z M768 246v104h203v-104h-203zM768 442v105h203v-105h-203zM768 639v104h203v-104h-203zM768 836v104h203v-104h-203zM768 1032v105h203v-105h-203zM768 1229v104h203v-104h-203z" />
<glyph unicode="&#xdb;" d="M-18 246v104h202v-104h-202zM-18 442v105h202v-105h-202zM-18 639v104h202v-104h-202zM-18 836v104h202v-104h-202zM-18 1032v105h202v-105h-202zM-18 1229v104h202v-104h-202zM178 49v105h596v-105h-596zM178 1671v105h203v-105h-203zM375 1868v104h203v-104h-203z M571 1671v105h203v-105h-203zM768 246v104h203v-104h-203zM768 442v105h203v-105h-203zM768 639v104h203v-104h-203zM768 836v104h203v-104h-203zM768 1032v105h203v-105h-203zM768 1229v104h203v-104h-203z" />
<glyph unicode="&#xdc;" d="M-18 246v104h202v-104h-202zM-18 442v105h202v-105h-202zM-18 639v104h202v-104h-202zM-18 836v104h202v-104h-202zM-18 1032v105h202v-105h-202zM-18 1229v104h202v-104h-202zM-18 1671v105h202v-105h-202zM-18 1868v104h202v-104h-202zM178 49v105h596v-105h-596z M768 246v104h203v-104h-203zM768 442v105h203v-105h-203zM768 639v104h203v-104h-203zM768 836v104h203v-104h-203zM768 1032v105h203v-105h-203zM768 1229v104h203v-104h-203zM768 1671v105h203v-105h-203zM768 1868v104h203v-104h-203z" />
<glyph unicode="&#xdd;" d="M-18 836v104h202v-104h-202zM-18 1032v105h202v-105h-202zM-18 1229v104h202v-104h-202zM178 639v104h203v-104h-203zM178 1671v105h400v-105h-400zM375 49v105h203v-105h-203zM375 246v104h203v-104h-203zM375 442v105h203v-105h-203zM571 639v104h203v-104h-203z M571 1868v104h203v-104h-203zM768 836v104h203v-104h-203zM768 1032v105h203v-105h-203zM768 1229v104h203v-104h-203z" />
<glyph unicode="&#xde;" d="M-18 49v105h202v-105h-202zM-18 246v104h202v-104h-202zM-18 442v105h792v-105h-792zM-18 639v104h202v-104h-202zM-18 836v104h202v-104h-202zM-18 1032v105h792v-105h-792zM-18 1229v104h202v-104h-202zM768 639v104h203v-104h-203zM768 836v104h203v-104h-203z" />
<glyph unicode="&#xdf;" d="M-14 49v103h200v-103h-200zM-14 242v102h200v-102h-200zM-14 434v105h200v-105h-200zM-14 629v102h200v-102h-200zM-14 821v103h200v-103h-200zM180 1016v102h199v-102h-199zM373 49v103h393v-103h-393zM373 629v102h200v-102h-200zM373 1208v103h200v-103h-200zM567 434 v105h199v-105h-199zM567 821v103h199v-103h-199zM567 1016v102h199v-102h-199zM760 242v102h198v-102h-198z" />
<glyph unicode="&#xe0;" d="M-14 242v102h200v-102h-200zM180 49v103h778v-103h-778zM180 434v105h778v-105h-778zM180 821v103h586v-103h-586zM180 1403v102h199v-102h-199zM373 1208v103h393v-103h-393zM760 242v102h198v-102h-198zM760 629v102h198v-102h-198z" />
<glyph unicode="&#xe1;" d="M-14 242v102h200v-102h-200zM180 49v103h778v-103h-778zM180 434v105h778v-105h-778zM180 821v103h586v-103h-586zM180 1208v103h393v-103h-393zM567 1403v102h199v-102h-199zM760 242v102h198v-102h-198zM760 629v102h198v-102h-198z" />
<glyph unicode="&#xe2;" d="M-14 242v102h200v-102h-200zM180 49v103h778v-103h-778zM180 434v105h778v-105h-778zM180 821v103h586v-103h-586zM760 242v102h198v-102h-198zM760 629v102h198v-102h-198z" />
<glyph unicode="&#xe3;" d="M-14 242v102h200v-102h-200zM-14 1208v103h200v-103h-200zM180 49v103h778v-103h-778zM180 434v105h778v-105h-778zM180 821v103h586v-103h-586zM180 1403v102h199v-102h-199zM373 1208v103h393v-103h-393zM760 242v102h198v-102h-198zM760 629v102h198v-102h-198z M760 1403v102h198v-102h-198z" />
<glyph unicode="&#xe4;" d="M-14 242v102h200v-102h-200zM-14 1208v103h200v-103h-200zM-14 1403v102h200v-102h-200zM180 49v103h778v-103h-778zM180 434v105h778v-105h-778zM180 821v103h586v-103h-586zM760 242v102h198v-102h-198zM760 629v102h198v-102h-198zM760 1208v103h198v-103h-198z M760 1403v102h198v-102h-198z" />
<glyph unicode="&#xe5;" d="M-14 242v102h200v-102h-200zM180 49v103h778v-103h-778zM180 434v105h778v-105h-778zM180 821v103h586v-103h-586zM180 1403v102h199v-102h-199zM373 1208v103h200v-103h-200zM373 1595v103h200v-103h-200zM567 1403v102h199v-102h-199zM760 242v102h198v-102h-198z M760 629v102h198v-102h-198z" />
<glyph unicode="&#xe6;" d="M-14 242v102h200v-102h-200zM180 49v103h778v-103h-778zM180 434v105h586v-105h-586zM180 821v103h199v-103h-199zM373 242v102h200v-102h-200zM373 629v102h200v-102h-200zM567 821v103h199v-103h-199zM760 629v102h198v-102h-198z" />
<glyph unicode="&#xe7;" d="M-14 242v102h200v-102h-200zM-14 434v105h200v-105h-200zM-14 629v102h200v-102h-200zM180 49v103h586v-103h-586zM180 -236h199v-102h-199v102zM180 821v103h586v-103h-586zM373 -43h200v-102h-200v102zM760 242v102h198v-102h-198zM760 629v102h198v-102h-198z" />
<glyph unicode="&#xe8;" d="M-14 242v102h200v-102h-200zM-14 434v105h972v-105h-972zM-14 629v102h200v-102h-200zM180 49v103h778v-103h-778zM180 821v103h586v-103h-586zM180 1403v102h199v-102h-199zM373 1208v103h393v-103h-393zM760 629v102h198v-102h-198z" />
<glyph unicode="&#xe9;" d="M-14 242v102h200v-102h-200zM-14 434v105h972v-105h-972zM-14 629v102h200v-102h-200zM180 49v103h778v-103h-778zM180 821v103h586v-103h-586zM180 1208v103h393v-103h-393zM567 1403v102h199v-102h-199zM760 629v102h198v-102h-198z" />
<glyph unicode="&#xea;" d="M-14 242v102h200v-102h-200zM-14 434v105h972v-105h-972zM-14 629v102h200v-102h-200zM180 49v103h778v-103h-778zM180 821v103h586v-103h-586zM180 1208v103h199v-103h-199zM373 1403v102h200v-102h-200zM567 1208v103h199v-103h-199zM760 629v102h198v-102h-198z" />
<glyph unicode="&#xeb;" d="M-14 242v102h200v-102h-200zM-14 434v105h972v-105h-972zM-14 629v102h200v-102h-200zM-14 1208v103h200v-103h-200zM-14 1403v102h200v-102h-200zM180 49v103h778v-103h-778zM180 821v103h586v-103h-586zM760 629v102h198v-102h-198zM760 1208v103h198v-103h-198z M760 1403v102h198v-102h-198z" />
<glyph unicode="&#xec;" d="M-14 49v103h972v-103h-972zM-14 821v103h587v-103h-587zM326 1378v103h198v-103h-198zM373 242v102h200v-102h-200zM373 434v105h200v-105h-200zM373 629v102h200v-102h-200zM518 1186v102h393v-102h-393z" />
<glyph unicode="&#xed;" d="M-14 49v103h972v-103h-972zM-14 821v103h587v-103h-587zM326 1186v102h391v-102h-391zM373 242v102h200v-102h-200zM373 434v105h200v-105h-200zM373 629v102h200v-102h-200zM713 1378v103h198v-103h-198z" />
<glyph unicode="&#xee;" d="M-14 49v103h972v-103h-972zM-14 821v103h587v-103h-587zM326 1186v102h198v-102h-198zM373 242v102h200v-102h-200zM373 434v105h200v-105h-200zM373 629v102h200v-102h-200zM518 1378v103h199v-103h-199zM713 1186v102h198v-102h-198z" />
<glyph unicode="&#xef;" d="M-14 49v103h972v-103h-972zM-14 821v103h587v-103h-587zM-14 1208v103h200v-103h-200zM-14 1403v102h200v-102h-200zM373 242v102h200v-102h-200zM373 434v105h200v-105h-200zM373 629v102h200v-102h-200zM760 1208v103h198v-103h-198zM760 1403v102h198v-102h-198z" />
<glyph unicode="&#xf0;" d="M-14 242v102h200v-102h-200zM-14 434v105h200v-105h-200zM180 49v103h586v-103h-586zM180 629v102h778v-102h-778zM180 1208v103h393v-103h-393zM373 821v103h200v-103h-200zM567 1016v102h199v-102h-199zM760 242v102h198v-102h-198zM760 434v105h198v-105h-198z M760 821v103h198v-103h-198zM760 1208v103h198v-103h-198z" />
<glyph unicode="&#xf1;" d="M-14 49v103h200v-103h-200zM-14 242v102h200v-102h-200zM-14 434v105h200v-105h-200zM-14 629v102h393v-102h-393zM-14 821v103h200v-103h-200zM-14 1208v103h200v-103h-200zM180 1403v102h199v-102h-199zM373 821v103h393v-103h-393zM373 1208v103h393v-103h-393z M760 49v103h198v-103h-198zM760 242v102h198v-102h-198zM760 434v105h198v-105h-198zM760 629v102h198v-102h-198zM760 1403v102h198v-102h-198z" />
<glyph unicode="&#xf2;" d="M-14 242v102h200v-102h-200zM-14 434v105h200v-105h-200zM-14 629v102h200v-102h-200zM180 49v103h586v-103h-586zM180 821v103h586v-103h-586zM180 1403v102h199v-102h-199zM373 1208v103h393v-103h-393zM760 242v102h198v-102h-198zM760 434v105h198v-105h-198z M760 629v102h198v-102h-198z" />
<glyph unicode="&#xf3;" d="M-14 242v102h200v-102h-200zM-14 434v105h200v-105h-200zM-14 629v102h200v-102h-200zM180 49v103h586v-103h-586zM180 821v103h586v-103h-586zM180 1208v103h393v-103h-393zM567 1403v102h199v-102h-199zM760 242v102h198v-102h-198zM760 434v105h198v-105h-198z M760 629v102h198v-102h-198z" />
<glyph unicode="&#xf4;" d="M-14 242v102h200v-102h-200zM-14 434v105h200v-105h-200zM-14 629v102h200v-102h-200zM180 49v103h586v-103h-586zM180 821v103h586v-103h-586zM180 1208v103h199v-103h-199zM373 1403v102h200v-102h-200zM567 1208v103h199v-103h-199zM760 242v102h198v-102h-198z M760 434v105h198v-105h-198zM760 629v102h198v-102h-198z" />
<glyph unicode="&#xf5;" d="M-14 242v102h200v-102h-200zM-14 434v105h200v-105h-200zM-14 629v102h200v-102h-200zM-14 1208v103h200v-103h-200zM180 49v103h586v-103h-586zM180 821v103h586v-103h-586zM180 1403v102h199v-102h-199zM373 1208v103h393v-103h-393zM760 242v102h198v-102h-198z M760 434v105h198v-105h-198zM760 629v102h198v-102h-198zM760 1403v102h198v-102h-198z" />
<glyph unicode="&#xf6;" d="M-14 242v102h200v-102h-200zM-14 434v105h200v-105h-200zM-14 629v102h200v-102h-200zM-14 1208v103h200v-103h-200zM-14 1403v102h200v-102h-200zM180 49v103h586v-103h-586zM180 821v103h586v-103h-586zM760 242v102h198v-102h-198zM760 434v105h198v-105h-198z M760 629v102h198v-102h-198zM760 1208v103h198v-103h-198zM760 1403v102h198v-102h-198z" />
<glyph unicode="&#xf7;" d="M-14 434v105h972v-105h-972zM373 49v103h200v-103h-200zM373 821v103h200v-103h-200z" />
<glyph unicode="&#xf8;" d="M-14 242v102h200v-102h-200zM-14 434v105h200v-105h-200zM-14 629v102h200v-102h-200zM-12 -43h200v-102h-200v102zM180 49v103h586v-103h-586zM180 821v103h586v-103h-586zM373 242v102h200v-102h-200zM373 434v105h200v-105h-200zM567 629v102h391v-102h-391zM760 242 v102h198v-102h-198zM760 434v105h198v-105h-198zM760 1016v102h198v-102h-198z" />
<glyph unicode="&#xf9;" d="M-14 242v102h200v-102h-200zM-14 434v105h200v-105h-200zM-14 629v102h200v-102h-200zM-14 821v103h200v-103h-200zM180 49v103h393v-103h-393zM180 1403v102h199v-102h-199zM373 1208v103h393v-103h-393zM567 242v102h391v-102h-391zM760 49v103h198v-103h-198zM760 434 v105h198v-105h-198zM760 629v102h198v-102h-198zM760 821v103h198v-103h-198z" />
<glyph unicode="&#xfa;" d="M-14 242v102h200v-102h-200zM-14 434v105h200v-105h-200zM-14 629v102h200v-102h-200zM-14 821v103h200v-103h-200zM180 49v103h393v-103h-393zM180 1208v103h393v-103h-393zM567 242v102h391v-102h-391zM567 1403v102h199v-102h-199zM760 49v103h198v-103h-198zM760 434 v105h198v-105h-198zM760 629v102h198v-102h-198zM760 821v103h198v-103h-198z" />
<glyph unicode="&#xfb;" d="M-14 242v102h200v-102h-200zM-14 434v105h200v-105h-200zM-14 629v102h200v-102h-200zM-14 821v103h200v-103h-200zM180 49v103h393v-103h-393zM180 1208v103h199v-103h-199zM373 1403v102h200v-102h-200zM567 242v102h391v-102h-391zM567 1208v103h199v-103h-199z M760 49v103h198v-103h-198zM760 434v105h198v-105h-198zM760 629v102h198v-102h-198zM760 821v103h198v-103h-198z" />
<glyph unicode="&#xfc;" d="M-14 242v102h200v-102h-200zM-14 434v105h200v-105h-200zM-14 629v102h200v-102h-200zM-14 821v103h200v-103h-200zM-14 1208v103h200v-103h-200zM-14 1403v102h200v-102h-200zM180 49v103h393v-103h-393zM567 242v102h391v-102h-391zM760 49v103h198v-103h-198zM760 434 v105h198v-105h-198zM760 629v102h198v-102h-198zM760 821v103h198v-103h-198zM760 1208v103h198v-103h-198zM760 1403v102h198v-102h-198z" />
<glyph unicode="&#xfd;" d="M-14 -236h393v-102h-393v102zM-14 629v102h200v-102h-200zM-14 821v103h200v-103h-200zM180 242v102h199v-102h-199zM180 434v105h199v-105h-199zM180 1208v103h393v-103h-393zM373 -43h200v-102h-200v102zM373 49v103h200v-103h-200zM567 242v102h199v-102h-199z M567 434v105h199v-105h-199zM567 1403v102h199v-102h-199zM760 629v102h198v-102h-198zM760 821v103h198v-103h-198z" />
<glyph unicode="&#xfe;" d="M-14 -43h200v-102h-200v102zM-14 49v103h780v-103h-780zM-14 -236h200v-102h-200v102zM-14 242v102h200v-102h-200zM-14 434v105h200v-105h-200zM-14 629v102h200v-102h-200zM-14 821v103h780v-103h-780zM-14 1016v102h200v-102h-200zM-14 1208v103h200v-103h-200z M760 242v102h198v-102h-198zM760 434v105h198v-105h-198zM760 629v102h198v-102h-198z" />
<glyph unicode="&#xff;" d="M-14 -236h393v-102h-393v102zM-14 629v102h200v-102h-200zM-14 821v103h200v-103h-200zM-14 1208v103h200v-103h-200zM-14 1403v102h200v-102h-200zM180 242v102h199v-102h-199zM180 434v105h199v-105h-199zM373 -43h200v-102h-200v102zM373 49v103h200v-103h-200z M567 242v102h199v-102h-199zM567 434v105h199v-105h-199zM760 629v102h198v-102h-198zM760 821v103h198v-103h-198zM760 1208v103h198v-103h-198zM760 1403v102h198v-102h-198z" />
<glyph unicode="&#x152;" d="M-18 246v104h202v-104h-202zM-18 442v105h202v-105h-202zM-18 639v104h202v-104h-202zM-18 836v104h202v-104h-202zM-18 1032v105h202v-105h-202zM178 49v105h793v-105h-793zM178 1229v104h793v-104h-793zM375 246v104h203v-104h-203zM375 442v105h203v-105h-203z M375 639v104h399v-104h-399zM375 836v104h203v-104h-203zM375 1032v105h203v-105h-203z" />
<glyph unicode="&#x153;" d="M-14 242v102h200v-102h-200zM-14 434v105h200v-105h-200zM-14 629v102h200v-102h-200zM180 49v103h199v-103h-199zM180 821v103h199v-103h-199zM373 242v102h200v-102h-200zM373 434v105h585v-105h-585zM373 629v102h200v-102h-200zM567 49v103h391v-103h-391zM567 821 v103h199v-103h-199zM760 629v102h198v-102h-198z" />
<glyph unicode="&#x178;" d="M-18 836v104h202v-104h-202zM-18 1032v105h202v-105h-202zM-18 1229v104h202v-104h-202zM-18 1671v105h202v-105h-202zM-18 1868v104h202v-104h-202zM178 639v104h203v-104h-203zM375 49v105h203v-105h-203zM375 246v104h203v-104h-203zM375 442v105h203v-105h-203z M571 639v104h203v-104h-203zM768 836v104h203v-104h-203zM768 1032v105h203v-105h-203zM768 1229v104h203v-104h-203zM768 1671v105h203v-105h-203zM768 1868v104h203v-104h-203z" />
<glyph unicode="&#x2c6;" d="M180 1208v103h199v-103h-199zM373 1403v102h200v-102h-200zM567 1208v103h199v-103h-199z" />
<glyph unicode="&#x2dc;" d="M-14 1208v103h200v-103h-200zM180 1403v102h199v-102h-199zM373 1208v103h393v-103h-393zM760 1403v102h198v-102h-198z" />
<glyph unicode="&#x2000;" horiz-adv-x="1083" />
<glyph unicode="&#x2001;" horiz-adv-x="2168" />
<glyph unicode="&#x2002;" horiz-adv-x="1083" />
<glyph unicode="&#x2003;" horiz-adv-x="2168" />
<glyph unicode="&#x2004;" horiz-adv-x="722" />
<glyph unicode="&#x2005;" horiz-adv-x="540" />
<glyph unicode="&#x2006;" horiz-adv-x="360" />
<glyph unicode="&#x2007;" horiz-adv-x="360" />
<glyph unicode="&#x2008;" horiz-adv-x="270" />
<glyph unicode="&#x2009;" horiz-adv-x="432" />
<glyph unicode="&#x200a;" horiz-adv-x="118" />
<glyph unicode="&#x2010;" d="M180 434v105h586v-105h-586z" />
<glyph unicode="&#x2011;" d="M180 434v105h586v-105h-586z" />
<glyph unicode="&#x2012;" d="M180 434v105h586v-105h-586z" />
<glyph unicode="&#x2013;" d="M180 434v105h586v-105h-586z" />
<glyph unicode="&#x2014;" d="M-14 434v105h972v-105h-972z" />
<glyph unicode="&#x2018;" d="M377 821v103h198v-103h-198zM377 1016v102h198v-102h-198zM569 1208v103h199v-103h-199z" />
<glyph unicode="&#x2019;" d="M377 821v103h198v-103h-198zM569 1016v102h199v-102h-199zM569 1208v103h199v-103h-199z" />
<glyph unicode="&#x201a;" d="M377 -43h198v-102h-198v102zM569 49v103h199v-103h-199zM569 242v102h199v-102h-199z" />
<glyph unicode="&#x201c;" d="M182 821v103h199v-103h-199zM182 1016v102h199v-102h-199zM377 1208v103h198v-103h-198zM569 821v103h199v-103h-199zM569 1016v102h199v-102h-199zM764 1208v103h199v-103h-199z" />
<glyph unicode="&#x201d;" d="M182 821v103h199v-103h-199zM377 1016v102h198v-102h-198zM377 1208v103h198v-103h-198zM569 821v103h199v-103h-199zM764 1016v102h199v-102h-199zM764 1208v103h199v-103h-199z" />
<glyph unicode="&#x201e;" d="M182 -43h199v-102h-199v102zM377 49v103h198v-103h-198zM377 242v102h198v-102h-198zM569 -43h199v-102h-199v102zM764 49v103h199v-103h-199zM764 242v102h199v-102h-199z" />
<glyph unicode="&#x2022;" d="M-18 434v105h585v-105h-585zM-18 629v102h585v-102h-585zM-18 821v103h585v-103h-585z" />
<glyph unicode="&#x2026;" d="M-14 49v103h200v-103h-200zM-14 242v102h200v-102h-200zM373 49v103h200v-103h-200zM373 242v102h200v-102h-200zM760 49v103h198v-103h-198zM760 242v102h198v-102h-198z" />
<glyph unicode="&#x202f;" horiz-adv-x="432" />
<glyph unicode="&#x2039;" d="M180 434v105h199v-105h-199zM373 242v102h200v-102h-200zM373 629v102h200v-102h-200zM567 49v103h199v-103h-199zM567 821v103h199v-103h-199z" />
<glyph unicode="&#x203a;" d="M379 49v103h199v-103h-199zM379 821v103h199v-103h-199zM571 242v102h201v-102h-201zM571 629v102h201v-102h-201zM766 434v105h199v-105h-199z" />
<glyph unicode="&#x205f;" horiz-adv-x="540" />
<glyph unicode="&#x20ac;" d="M-14 434v105h587v-105h-587zM-14 821v103h780v-103h-780zM180 242v102h199v-102h-199zM180 629v102h199v-102h-199zM180 1016v102h199v-102h-199zM373 49v103h585v-103h-585zM373 1208v103h585v-103h-585z" />
<glyph unicode="&#x2122;" d="M-10 1208v103h778v-103h-778zM182 821v103h199v-103h-199zM182 1016v102h199v-102h-199zM569 821v103h199v-103h-199zM569 1016v102h586v-102h-586zM956 821v103h199v-103h-199zM956 1208v103h199v-103h-199z" />
<glyph unicode="&#xe000;" horiz-adv-x="925" d="M0 925h925v-925h-925v925z" />
<glyph unicode="&#xfb01;" horiz-adv-x="2457" d="M1215 49v103h972v-103h-972zM1215 821v103h587v-103h-587zM1602 242v102h200v-102h-200zM1602 434v105h200v-105h-200zM1602 629v102h200v-102h-200zM1602 1208v103h200v-103h-200zM-14 49v103h972v-103h-972zM180 821v103h778v-103h-778zM373 242v102h200v-102h-200z M373 434v105h200v-105h-200zM373 629v102h200v-102h-200zM373 1016v102h200v-102h-200zM567 1208v103h391v-103h-391z" />
<glyph unicode="&#xfb02;" horiz-adv-x="2457" d="M1215 49v103h972v-103h-972zM1215 1208v103h587v-103h-587zM1602 242v102h200v-102h-200zM1602 434v105h200v-105h-200zM1602 629v102h200v-102h-200zM1602 821v103h200v-103h-200zM1602 1016v102h200v-102h-200zM-14 49v103h972v-103h-972zM180 821v103h778v-103h-778z M373 242v102h200v-102h-200zM373 434v105h200v-105h-200zM373 629v102h200v-102h-200zM373 1016v102h200v-102h-200zM567 1208v103h391v-103h-391z" />
<glyph unicode="&#xfb03;" horiz-adv-x="3686" d="M2444 49v103h972v-103h-972zM2444 821v103h587v-103h-587zM2831 242v102h200v-102h-200zM2831 434v105h200v-105h-200zM2831 629v102h200v-102h-200zM2831 1208v103h200v-103h-200zM1215 49v103h972v-103h-972zM1409 821v103h778v-103h-778zM1602 242v102h200v-102h-200z M1602 434v105h200v-105h-200zM1602 629v102h200v-102h-200zM1602 1016v102h200v-102h-200zM1796 1208v103h391v-103h-391zM-14 49v103h972v-103h-972zM180 821v103h778v-103h-778zM373 242v102h200v-102h-200zM373 434v105h200v-105h-200zM373 629v102h200v-102h-200z M373 1016v102h200v-102h-200zM567 1208v103h391v-103h-391z" />
<glyph unicode="&#xfb04;" horiz-adv-x="3686" d="M2444 49v103h972v-103h-972zM2444 1208v103h587v-103h-587zM2831 242v102h200v-102h-200zM2831 434v105h200v-105h-200zM2831 629v102h200v-102h-200zM2831 821v103h200v-103h-200zM2831 1016v102h200v-102h-200zM1215 49v103h972v-103h-972zM1409 821v103h778v-103h-778 zM1602 242v102h200v-102h-200zM1602 434v105h200v-105h-200zM1602 629v102h200v-102h-200zM1602 1016v102h200v-102h-200zM1796 1208v103h391v-103h-391zM-14 49v103h972v-103h-972zM180 821v103h778v-103h-778zM373 242v102h200v-102h-200zM373 434v105h200v-105h-200z M373 629v102h200v-102h-200zM373 1016v102h200v-102h-200zM567 1208v103h391v-103h-391z" />
</font>
</defs>
</svg>
